<svg width="375" height="50" viewBox="0 0 375 50" fill="none" xmlns="http://www.w3.org/2000/svg">
<path d="M152 4.66667L147.467 9.33333H75.7333C28.8 9.33333 4 9.73333 4 10.6667C4 11.6 28.6667 12 75.3333 12H146.667L151.867 7.33333L156.933 2.66667H214.533C252 2.66667 272 2.26667 272 1.33333C272 0.399999 251.867 -6.25849e-07 214.267 -6.25849e-07H156.533L152 4.66667Z" fill="#F5F5F5"/>
<path d="M278.667 7.33325C278.667 12.3999 279.067 13.3333 281.333 13.3333C283.6 13.3333 284 12.3999 284 7.33325C284 2.26658 283.6 1.33325 281.333 1.33325C279.067 1.33325 278.667 2.26658 278.667 7.33325ZM280.933 8.93325C280.533 10.2666 280.267 9.46659 280.267 7.33325C280.267 5.06658 280.533 4.13325 280.933 4.93325C281.2 5.86658 281.2 7.73325 280.933 8.93325Z" fill="#F5F5F5"/>
<path d="M288 7.33325C288 11.7333 288.533 13.3333 290 13.3333C291.467 13.3333 292 11.7333 292 7.33325C292 2.93325 291.467 1.33325 290 1.33325C288.533 1.33325 288 2.93325 288 7.33325Z" fill="#F5F5F5"/>
<path d="M297.333 7.33325C297.333 11.7333 297.867 13.3333 299.333 13.3333C300.8 13.3333 301.333 11.7333 301.333 7.33325C301.333 2.93325 300.8 1.33325 299.333 1.33325C297.867 1.33325 297.333 2.93325 297.333 7.33325ZM299.6 8.93325C299.2 10.2666 298.933 9.46659 298.933 7.33325C298.933 5.06658 299.2 4.13325 299.6 4.93325C299.867 5.86658 299.867 7.73325 299.6 8.93325Z" fill="#F5F5F5"/>
<path d="M305.867 3.19999C304.533 6.79999 306 12.6667 308.4 13.0667C310.267 13.4667 310.667 12.5333 310.667 7.46666C310.667 2.79999 310.133 1.33333 308.667 1.33333C307.467 1.33333 306.267 2.13333 305.867 3.19999Z" fill="#F5F5F5"/>
<path d="M315.2 3.19999C313.867 6.79999 315.333 12.6667 317.733 13.0667C319.6 13.4667 320 12.5333 320 7.46666C320 2.79999 319.467 1.33333 318 1.33333C316.8 1.33333 315.6 2.13333 315.2 3.19999Z" fill="#F5F5F5"/>
<path d="M324.933 2.26658C324.4 2.66658 324 5.46658 324 8.26659C324 12.3999 324.4 13.3333 326.667 13.3333C328.933 13.3333 329.333 12.3999 329.333 7.33325C329.333 1.59992 327.467 -0.400082 324.933 2.26658ZM328 7.33325C328 9.19992 327.467 10.6666 326.667 10.6666C326 10.6666 325.333 9.19992 325.333 7.33325C325.333 5.46658 326 3.99992 326.667 3.99992C327.467 3.99992 328 5.46658 328 7.33325Z" fill="#F5F5F5"/>
<path d="M333.333 7.19992C333.333 12.5333 333.733 13.3333 336.133 13.3333C338.533 13.3333 338.8 12.6666 338.4 7.73325C338.133 3.59992 337.333 1.86658 335.733 1.59992C333.733 1.19992 333.333 2.13325 333.333 7.19992Z" fill="#F5F5F5"/>
<path d="M342.667 7.33326C342.667 12.5333 343.067 13.4666 345.067 13.0666C346.8 12.7999 347.333 11.3333 347.333 7.33326C347.333 3.33326 346.8 1.8666 345.067 1.59993C343.067 1.19993 342.667 2.13326 342.667 7.33326ZM344.933 8.93326C344.533 10.2666 344.267 9.4666 344.267 7.33326C344.267 5.0666 344.533 4.13326 344.933 4.93326C345.2 5.8666 345.2 7.73326 344.933 8.93326Z" fill="#F5F5F5"/>
<path d="M352 7.33325C352 11.7333 352.533 13.3333 354 13.3333C355.467 13.3333 356 11.7333 356 7.33325C356 2.93325 355.467 1.33325 354 1.33325C352.533 1.33325 352 2.93325 352 7.33325ZM354.267 8.93325C353.867 10.2666 353.6 9.46659 353.6 7.33325C353.6 5.06658 353.867 4.13325 354.267 4.93325C354.533 5.86658 354.533 7.73325 354.267 8.93325Z" fill="#F5F5F5"/>
<path d="M360.533 3.19999C359.2 6.79999 360.667 12.6667 363.067 13.0667C364.933 13.4667 365.333 12.5333 365.333 7.46666C365.333 2.79999 364.8 1.33333 363.333 1.33333C362.133 1.33333 360.933 2.13333 360.533 3.19999Z" fill="#F5F5F5"/>
<path d="M370.667 7.33325C370.667 11.7333 371.2 13.3333 372.667 13.3333C374.133 13.3333 374.667 11.7333 374.667 7.33325C374.667 2.93325 374.133 1.33325 372.667 1.33325C371.2 1.33325 370.667 2.93325 370.667 7.33325Z" fill="#F5F5F5"/>
<path d="M0.933333 20.9333C0.4 21.3333 0 22.5333 0 23.6C0 25.0667 15.3333 25.3333 86.5333 25.3333H172.933L176.667 30.6667L180.4 36H277.6H374.8L374.4 28.2667L374 20.6667L187.867 20.2667C85.6 20.1333 1.33333 20.4 0.933333 20.9333Z" fill="#F5F5F5"/>
<path d="M232.4 48.9333C258.533 49.2 301.467 49.2 327.733 48.9333C353.867 48.8 332.4 48.6666 280 48.6666C227.6 48.6666 206.133 48.8 232.4 48.9333Z" fill="#F5F5F5"/>
</svg>
