<svg width="375" height="50" viewBox="0 0 375 50" fill="none" xmlns="http://www.w3.org/2000/svg">
<path d="M222.8 4.66667L227.333 9.33333H299.067C346 9.33333 370.8 9.73333 370.8 10.6667C370.8 11.6 346.133 12 299.467 12H228.133L222.933 7.33333L217.867 2.66667H160.267C122.8 2.66667 102.8 2.26667 102.8 1.33333C102.8 0.399999 122.933 -6.25849e-07 160.533 -6.25849e-07H218.267L222.8 4.66667Z" fill="#F5F5F5"/>
<path d="M96.1334 7.33325C96.1334 12.3999 95.7334 13.3333 93.4667 13.3333C91.2 13.3333 90.8 12.3999 90.8 7.33325C90.8 2.26658 91.2 1.33325 93.4667 1.33325C95.7334 1.33325 96.1334 2.26658 96.1334 7.33325ZM93.8667 8.93325C94.2667 10.2666 94.5334 9.46659 94.5334 7.33325C94.5334 5.06658 94.2667 4.13325 93.8667 4.93325C93.6 5.86658 93.6 7.73325 93.8667 8.93325Z" fill="#F5F5F5"/>
<path d="M86.8 7.33325C86.8 11.7333 86.2667 13.3333 84.8 13.3333C83.3334 13.3333 82.8 11.7333 82.8 7.33325C82.8 2.93325 83.3334 1.33325 84.8 1.33325C86.2667 1.33325 86.8 2.93325 86.8 7.33325Z" fill="#F5F5F5"/>
<path d="M77.4667 7.33325C77.4667 11.7333 76.9333 13.3333 75.4667 13.3333C74 13.3333 73.4667 11.7333 73.4667 7.33325C73.4667 2.93325 74 1.33325 75.4667 1.33325C76.9333 1.33325 77.4667 2.93325 77.4667 7.33325ZM75.2 8.93325C75.6 10.2666 75.8667 9.46659 75.8667 7.33325C75.8667 5.06658 75.6 4.13325 75.2 4.93325C74.9333 5.86658 74.9333 7.73325 75.2 8.93325Z" fill="#F5F5F5"/>
<path d="M68.9334 3.19999C70.2667 6.79999 68.8 12.6667 66.4 13.0667C64.5334 13.4667 64.1334 12.5333 64.1334 7.46666C64.1334 2.79999 64.6667 1.33333 66.1334 1.33333C67.3334 1.33333 68.5334 2.13333 68.9334 3.19999Z" fill="#F5F5F5"/>
<path d="M59.6 3.19999C60.9333 6.79999 59.4667 12.6667 57.0667 13.0667C55.2 13.4667 54.8 12.5333 54.8 7.46666C54.8 2.79999 55.3333 1.33333 56.8 1.33333C58 1.33333 59.2 2.13333 59.6 3.19999Z" fill="#F5F5F5"/>
<path d="M49.8667 2.26658C50.4 2.66658 50.8 5.46658 50.8 8.26659C50.8 12.3999 50.4 13.3333 48.1334 13.3333C45.8667 13.3333 45.4667 12.3999 45.4667 7.33325C45.4667 1.59992 47.3334 -0.400082 49.8667 2.26658ZM46.8 7.33325C46.8 9.19992 47.3334 10.6666 48.1334 10.6666C48.8 10.6666 49.4667 9.19992 49.4667 7.33325C49.4667 5.46658 48.8 3.99992 48.1334 3.99992C47.3334 3.99992 46.8 5.46658 46.8 7.33325Z" fill="#F5F5F5"/>
<path d="M41.4667 7.19992C41.4667 12.5333 41.0667 13.3333 38.6667 13.3333C36.2667 13.3333 36 12.6666 36.4 7.73325C36.6667 3.59992 37.4667 1.86658 39.0667 1.59992C41.0667 1.19992 41.4667 2.13325 41.4667 7.19992Z" fill="#F5F5F5"/>
<path d="M32.1334 7.33326C32.1334 12.5333 31.7334 13.4666 29.7334 13.0666C28 12.7999 27.4667 11.3333 27.4667 7.33326C27.4667 3.33326 28 1.8666 29.7334 1.59993C31.7334 1.19993 32.1334 2.13326 32.1334 7.33326ZM29.8667 8.93326C30.2667 10.2666 30.5334 9.4666 30.5334 7.33326C30.5334 5.0666 30.2667 4.13326 29.8667 4.93326C29.6 5.8666 29.6 7.73326 29.8667 8.93326Z" fill="#F5F5F5"/>
<path d="M22.8 7.33325C22.8 11.7333 22.2667 13.3333 20.8 13.3333C19.3334 13.3333 18.8 11.7333 18.8 7.33325C18.8 2.93325 19.3334 1.33325 20.8 1.33325C22.2667 1.33325 22.8 2.93325 22.8 7.33325ZM20.5334 8.93325C20.9334 10.2666 21.2 9.46659 21.2 7.33325C21.2 5.06658 20.9334 4.13325 20.5334 4.93325C20.2667 5.86658 20.2667 7.73325 20.5334 8.93325Z" fill="#F5F5F5"/>
<path d="M14.2667 3.19999C15.6 6.79999 14.1334 12.6667 11.7334 13.0667C9.86669 13.4667 9.46669 12.5333 9.46669 7.46666C9.46669 2.79999 10 1.33333 11.4667 1.33333C12.6667 1.33333 13.8667 2.13333 14.2667 3.19999Z" fill="#F5F5F5"/>
<path d="M4.13336 7.33325C4.13336 11.7333 3.60003 13.3333 2.13336 13.3333C0.666695 13.3333 0.133362 11.7333 0.133362 7.33325C0.133362 2.93325 0.666695 1.33325 2.13336 1.33325C3.60003 1.33325 4.13336 2.93325 4.13336 7.33325Z" fill="#F5F5F5"/>
<path d="M373.867 20.9333C374.4 21.3333 374.8 22.5333 374.8 23.6C374.8 25.0667 359.467 25.3333 288.267 25.3333H201.867L198.133 30.6667L194.4 36H97.2H-1.2368e-06L0.399999 28.2667L0.799999 20.6667L186.933 20.2667C289.2 20.1333 373.467 20.4 373.867 20.9333Z" fill="#F5F5F5"/>
<path d="M142.4 48.9333C116.267 49.2 73.3333 49.2 47.0667 48.9333C20.9333 48.8 42.4 48.6666 94.8 48.6666C147.2 48.6666 168.667 48.8 142.4 48.9333Z" fill="#F5F5F5"/>
</svg>
