<svg width="261" height="229" viewBox="0 0 261 229" fill="none" xmlns="http://www.w3.org/2000/svg">
<g opacity="0.84">
<path d="M52.8499 16.5203C52.6236 16.7466 52.4879 17.1539 52.4879 17.516C52.4879 18.0139 52.6689 18.0139 53.4381 17.6065C54.6146 16.9729 56.9675 17.5613 60.4063 19.3716C61.6733 20.0052 65.9266 22.1777 69.8632 24.2143C73.845 26.2057 77.1481 28.0614 77.2386 28.3329C77.3291 28.6045 75.474 29.3286 72.7591 30.0528C66.0171 31.8631 60.9945 33.7188 55.8363 36.389C54.5241 37.0679 54.1168 37.0679 49.954 36.208C47.1034 35.6649 45.3839 35.0765 45.1124 34.6239C44.7957 33.9903 44.6147 34.0808 43.8455 35.0313C43.393 35.6196 42.9858 36.389 42.9858 36.7059C42.9858 36.9774 42.3975 38.5615 41.6283 40.1455C40.1804 43.2232 40.0899 43.4495 40.6329 43.4495C40.8139 43.4495 41.4473 42.2275 42.0356 40.7339C43.6645 36.6606 44.117 36.389 48.0083 37.1132C49.7277 37.43 51.2662 37.8826 51.4019 38.0636C51.5829 38.3804 51.0852 38.7878 47.4201 41.5938C45.9269 42.7253 44.4337 44.3546 41.9903 47.568C41.5378 48.1564 41.1758 48.9711 41.1758 49.3784C41.1758 50.5551 39.9994 51.234 38.1442 51.053C36.832 50.9625 36.4248 51.0982 36.289 51.6866C36.1985 52.275 36.5153 52.456 37.8727 52.5918L39.5922 52.7276L39.9089 55.4431C40.3161 58.385 42.0808 62.413 43.8455 64.4044C44.5242 65.1738 44.7957 65.8074 44.5242 66.0337C44.0265 66.5769 35.2483 67.9799 31.0855 68.2514C28.7326 68.3872 27.9634 68.6135 27.6014 69.2471C27.3751 69.6545 27.2847 70.1523 27.4204 70.2428C27.5109 70.3786 29.1851 70.1976 31.1307 69.8808C33.0312 69.5639 37.4655 68.8851 40.9496 68.3872L47.2391 67.5273L49.773 69.5187C52.3521 71.5101 61.1303 76.1265 65.7456 77.8464C67.1483 78.3895 68.3248 78.8873 68.3248 78.9778C68.3248 79.2494 62.8497 81.6481 58.8226 83.0964C56.4697 83.9563 52.8046 85.3594 50.678 86.2193C46.6056 87.8034 42.2166 89.5685 33.2574 93.0534C27.8276 95.1353 27.8276 95.1353 22.4431 95.0901C19.502 95.0901 16.9681 94.9543 16.8323 94.8638C16.6061 94.5922 19.7282 87.2603 20.6784 85.7667C21.6286 84.3184 21.4024 83.3227 20.3617 84.6352C19.864 85.2689 19.4567 85.9477 19.4567 86.174C19.4567 86.3551 18.5065 88.4823 17.3753 90.8357C16.2441 93.1892 15.3844 95.4522 15.4749 95.8595C15.5654 96.4479 16.1536 96.6289 18.0993 96.6742C19.4567 96.7194 28.8231 96.8552 38.9134 97.0362C57.058 97.3078 71.8089 97.6246 82.8947 97.9867C86.062 98.0772 92.9398 98.213 98.1886 98.213C103.483 98.2582 108.053 98.394 108.415 98.5298C109.365 98.8918 109.32 105.59 108.369 106.36C107.826 106.812 106.107 106.857 101.22 106.676C97.6908 106.495 86.1525 106.269 75.5645 106.133C64.9764 105.998 54.9765 105.771 53.3476 105.635C51.2209 105.5 50.2255 105.59 49.9087 105.998C49.1395 106.993 48.0083 110.931 48.5513 110.75C48.8228 110.659 49.1848 110.026 49.3658 109.347C49.954 107.22 50.5875 106.812 53.3476 106.812C55.791 106.812 56.0625 106.948 59.0489 109.347C64.7049 113.873 67.2388 115.411 73.664 118.172C74.75 118.625 75.5192 119.213 75.3835 119.439C75.2025 119.666 73.7545 120.299 72.0804 120.888C68.1438 122.155 62.895 124.599 59.6824 126.545C58.2797 127.405 56.515 128.084 55.7458 128.084C54.2978 128.084 45.4292 124.735 44.4337 123.83C43.9812 123.377 44.0717 122.653 45.0219 120.118C45.6554 118.399 46.5604 116.181 47.0129 115.185C48.1441 112.651 48.5513 111.338 48.0988 111.338C47.6916 111.338 45.8817 115.411 42.488 123.784C42.307 124.282 41.4021 126.636 40.4971 128.989C39.5469 131.343 38.5514 133.877 38.2347 134.647C35.8366 140.304 34.3886 143.925 34.3886 144.196C34.3886 144.377 33.8004 145.826 33.0312 147.41C32.3072 148.948 31.6737 150.578 31.6737 150.895C31.6737 151.257 31.176 152.524 30.5425 153.701C29.909 154.832 29.2303 156.461 29.0041 157.231C28.6421 158.498 28.1444 159.946 27.1489 162.707C26.9679 163.205 26.4249 164.518 25.882 165.649C25.3842 166.78 24.7508 168.455 24.4793 169.36C24.1625 170.265 23.6195 171.261 23.2576 171.533C22.9408 171.85 22.6241 172.619 22.6241 173.298C22.6241 173.977 22.3074 174.972 21.9001 175.515C21.2666 176.421 20.8142 177.552 18.778 183.3C18.3708 184.432 17.5563 186.423 16.9681 187.735C16.3346 189.048 15.8369 190.315 15.8369 190.587C15.8369 190.994 14.7509 193.8 13.5292 196.651C11.9455 200.363 11.3573 202.49 11.9003 202.852C12.398 203.169 16.0179 203.305 28.2801 203.486C31.2665 203.486 38.5967 203.667 44.5695 203.848C57.4199 204.165 73.0758 204.481 96.6049 204.798C106.062 204.934 119.5 205.115 126.469 205.251C133.437 205.387 147.283 205.568 157.237 205.703C167.192 205.839 180.314 206.065 186.423 206.156C192.531 206.292 207.282 206.473 219.227 206.654C231.173 206.79 241.037 206.971 241.173 207.061C241.49 207.242 248.548 206.382 248.82 206.156C248.865 206.065 248.367 204.3 247.689 202.264C246.286 198.145 245.652 198.055 246.829 202.128C247.327 203.848 247.417 204.843 247.1 205.16C246.829 205.432 244.159 205.522 240.177 205.387L233.707 205.16L227.372 202.807C221.309 200.544 207.553 194.117 205.065 192.397C204.386 191.945 201.49 189.998 198.549 188.052C195.653 186.151 192.757 183.979 192.079 183.3L190.857 181.988L192.35 181.354C193.21 180.992 195.201 180.132 196.83 179.453C199.861 178.186 201.264 177.416 207.553 173.705L211.219 171.487L215.246 172.619C220.223 174.022 225.834 174.972 232.576 175.561C237.01 175.968 237.915 176.194 238.594 177.009C239.001 177.552 239.363 178.322 239.363 178.729C239.363 179.181 240.177 181.942 241.173 184.929C242.214 187.871 243.39 191.537 243.842 193.076C244.657 195.746 246.105 198.869 246.15 198.055C246.15 197.557 246.512 198.688 239.861 178.548C231.218 152.252 226.422 137.634 225.11 133.379C223.888 129.578 223.074 128.039 223.074 129.759C223.074 130.618 225.924 139.489 226.965 141.979C227.327 142.748 227.598 143.698 227.598 144.06C227.598 144.468 228.006 145.69 228.503 146.866C229.001 148.043 229.408 149.175 229.408 149.401C229.408 149.673 228.187 149.808 226.603 149.718C224.159 149.582 223.752 149.446 223.617 148.677C223.526 148.179 222.757 146.323 221.897 144.558C220.63 141.979 219.318 140.394 215.517 136.683C212.938 134.149 210.947 131.931 211.173 131.75C211.354 131.569 212.757 131.026 214.25 130.573C215.743 130.121 217.372 129.623 217.87 129.396C220.087 128.537 222.169 128.039 222.621 128.31C222.847 128.446 223.074 128.31 223.074 127.948C223.074 126.726 217.553 110.433 217.146 110.433C216.648 110.433 216.603 111.926 217.056 112.424C217.237 112.605 217.644 113.601 217.915 114.642C218.187 115.683 218.684 117.267 219.001 118.127C220.449 122.155 220.947 123.377 221.309 124.101C222.259 125.912 221.807 126.59 219.137 127.541C217.689 128.039 215.11 128.989 213.39 129.623C211.671 130.256 209.861 130.8 209.363 130.8C208.866 130.8 206.377 129.578 203.888 128.129C201.354 126.681 198.097 124.916 196.603 124.237C195.11 123.603 193.481 122.879 192.983 122.653C192.486 122.427 191.083 121.838 189.907 121.386C187.237 120.39 187.373 120.209 192.983 117.901C195.201 116.995 197.554 115.864 198.232 115.366C198.911 114.914 199.59 114.506 199.771 114.506C199.952 114.506 201.943 113.284 204.16 111.745L208.277 109.03L211.942 109.301C213.979 109.482 215.879 109.664 216.196 109.754C216.467 109.89 216.739 109.573 216.739 109.12C216.739 108.351 215.924 108.306 204.884 107.989C198.323 107.853 184.929 107.582 175.11 107.446C165.292 107.265 157.102 106.948 156.966 106.722C156.83 106.495 156.785 105.364 156.83 104.187C156.875 103.01 156.966 101.381 156.966 100.521L157.011 99.0276L169.59 99.2992C176.468 99.435 190.766 99.6613 201.354 99.797C211.942 99.9328 223.662 100.114 227.372 100.25C251.354 101.064 252.032 101.019 252.032 99.8423C251.987 99.5707 251.625 98.5298 251.127 97.5341C250.63 96.5384 250.268 95.5879 250.222 95.4069C250.222 95.2259 249.634 93.7776 248.865 92.1935C248.096 90.5642 247.508 89.0254 247.508 88.7991C247.508 88.1202 245.969 85.5404 245.607 85.5404C245.019 85.5404 245.155 85.993 246.829 89.478C247.689 91.3336 248.413 93.0082 248.413 93.2345C248.413 93.4608 248.91 94.7733 249.544 96.131C250.177 97.4888 250.675 98.7108 250.675 98.8466C250.675 98.9824 248.548 99.1181 246.014 99.1181C240.856 99.1181 238.956 98.6203 233.028 95.8142C231.173 94.9543 228.639 93.8228 227.372 93.325C226.15 92.8271 222.35 91.2883 219.001 89.84C215.653 88.437 211.264 86.5814 209.273 85.7667C203.617 83.4132 200.449 81.8744 200.449 81.4671C200.449 81.2861 202.124 80.4714 204.205 79.7473C209.952 77.6653 214.793 75.3119 218.684 72.7773L222.259 70.4239L229.996 71.6911C234.295 72.37 238.367 73.1394 239.091 73.411C240.404 73.9541 241.173 75.3119 243.209 80.743C243.752 82.2365 244.431 83.549 244.702 83.6395C245.471 83.8658 245.2 83.1417 242.575 77.258C241.806 75.5382 241.173 74.0446 241.173 73.9088C241.173 73.7731 240.856 72.9584 240.449 72.0532C239.453 69.745 238.729 68.0704 237.508 65.1738C236.919 63.8161 236.286 62.5035 236.105 62.2772C235.607 61.6436 235.653 63.2277 236.195 64.1781C236.422 64.5854 237.055 65.9432 237.553 67.2105C238.051 68.4325 238.684 69.8355 238.956 70.2881C239.77 71.7816 238.005 71.8269 230.992 70.4239C230.494 70.3334 228.911 70.1071 227.463 69.926C224.295 69.5639 223.888 68.8851 225.562 66.8937C227.553 64.4949 228.956 60.8742 228.956 57.9324C228.956 55.7147 229.092 55.3073 229.861 55.081C231.263 54.719 232.53 55.2168 232.802 56.303C233.3 57.9776 234.793 61.01 235.291 61.3268C236.015 61.7794 235.834 60.7837 234.793 58.4755C233.662 56.0767 231.535 50.9172 230.494 48.2017C229.589 45.8934 229.454 45.5314 227.101 39.9193C226.06 37.3395 225.019 35.167 224.883 35.0765C224.431 34.805 224.929 37.249 225.426 37.8826C226.06 38.6973 226.15 38.652 216.648 40.1455C215.246 40.3718 214.16 40.0098 209.861 37.8826C204.929 35.4839 193.029 30.7769 191.898 30.7769C191.581 30.7769 190.902 30.5506 190.404 30.2791C189.499 29.7812 189.545 29.7812 190.812 28.9666C191.536 28.5592 192.622 28.0161 193.255 27.8351C193.843 27.654 196.784 26.3415 199.771 24.9385C208.866 20.5936 209.59 20.3673 214.024 20.3673C217.644 20.3673 217.96 20.4578 218.413 21.363C218.684 21.9514 219.589 23.9428 220.494 25.7984C221.354 27.654 222.44 30.1885 222.847 31.3653C223.3 32.542 223.888 33.6282 224.114 33.8093C224.386 33.9903 224.476 33.8093 224.34 33.4472C220.268 23.0376 218.865 19.6432 218.639 19.4169C218.232 19.0548 199.047 18.6475 169.907 18.3307C129.862 17.9233 101.13 17.3802 96.8311 16.9729C92.804 16.5656 53.1666 16.2035 52.8499 16.5203ZM89.9986 18.1044C107.148 18.5117 107.419 18.557 108.505 19.5527C110.225 21.182 111.446 23.1281 111.039 23.5355C110.813 23.7617 106.967 24.2596 102.487 24.6669C98.0076 25.029 93.4375 25.5721 92.3063 25.7984C91.1751 26.0247 88.9579 26.432 87.329 26.7036C85.7001 26.9299 83.3924 27.3825 82.1255 27.654C79.9083 28.1519 79.8178 28.1519 75.3382 25.9342C72.8496 24.6669 69.5012 22.9018 67.8723 21.9966C66.2433 21.0915 63.8452 19.8242 62.5782 19.1453C61.266 18.5117 60.1801 17.8328 60.1801 17.5613C60.1801 17.335 62.714 17.2897 66.4243 17.4255C69.8179 17.5613 80.4513 17.8781 89.9986 18.1044ZM137.328 19.2359C149.048 19.3716 158.866 19.4621 159.183 19.4621C159.862 19.4621 159.002 21.2272 157.464 23.0376L156.559 24.0786L149.409 23.7165C145.518 23.5355 135.609 23.3544 127.419 23.3092C113.03 23.3092 112.532 23.2639 112.034 22.404C111.763 21.9061 111.175 21.001 110.722 20.4126C109.636 18.919 110.406 18.4664 113.573 18.7833C114.93 18.919 125.654 19.1001 137.328 19.2359ZM179.635 19.6432C187.735 19.779 196.92 19.9147 200.133 19.9147C203.707 19.9147 205.879 20.0958 205.879 20.3673C205.879 20.6389 204.612 21.4083 203.074 22.1324C197.146 24.848 190.223 28.1066 188.866 28.8308C187.689 29.4191 187.056 29.4644 185.246 29.0571C179.454 27.7446 171.988 26.251 170.359 26.07C169.364 25.9342 166.332 25.5269 163.572 25.1648C160.857 24.7574 158.55 24.4406 158.504 24.4406C157.916 24.4406 158.64 22.9018 159.952 21.363C161.4 19.6884 162.939 19.0096 164.477 19.2811C164.749 19.3716 171.536 19.5074 179.635 19.6432ZM151.717 25.1195C153.482 25.3458 154.749 25.6626 154.749 25.9794C154.749 26.2963 154.206 27.2014 153.482 28.0161L152.26 29.5097L142.984 28.9666C137.464 28.6045 130.179 28.514 125.066 28.6497C115.519 28.9666 115.383 28.9213 114.704 26.1605L114.387 24.9385L119.319 24.8027C127.69 24.5764 148.505 24.8027 151.717 25.1195ZM113.754 26.9299L114.976 28.514L113.935 28.9213C113.347 29.1476 110.858 29.4191 108.369 29.6002C105.881 29.7812 102.668 30.098 101.265 30.3696C94.1615 31.5011 92.8493 31.7726 90.9488 32.2252C89.0032 32.6778 88.6864 32.6325 85.5643 31.0485C83.5734 30.0075 82.3969 29.1928 82.6684 28.9213C83.6639 27.9256 101.175 25.6174 109.32 25.4363C112.532 25.3458 112.577 25.3458 113.754 26.9299ZM162.803 26.2963C171.536 27.2014 184.16 29.6907 184.16 30.4148C184.16 31.0937 178.73 33.4925 177.282 33.4925C176.468 33.4925 173.979 33.1304 171.717 32.6325C164.613 31.139 161.853 30.6411 158.007 30.3243C155.97 30.1433 154.161 29.8717 153.98 29.7359C153.844 29.5549 154.296 28.6045 154.975 27.6088C156.378 25.5721 156.332 25.5721 162.803 26.2963ZM83.2114 30.8674C84.8403 31.6821 86.1525 32.542 86.1525 32.7683C86.1978 32.9493 83.3019 34.0808 79.7273 35.2576C76.1979 36.4343 72.6233 37.8826 71.8089 38.5162C70.6324 39.3761 69.8632 39.6024 67.646 39.5572C65.2026 39.5119 57.7367 37.9731 57.1484 37.3847C57.0127 37.249 58.0987 36.6153 59.5466 35.9364C64.2977 33.8093 64.3429 33.764 74.8857 30.4148C78.7771 29.1476 79.9988 29.2381 83.2114 30.8674ZM147.962 30.5506C151.219 30.9579 151.265 31.0032 149.862 33.2662C148.686 35.3028 148.595 35.3481 147.057 35.0313C146.197 34.8502 139.591 34.6692 132.351 34.6239L119.274 34.4882L118.46 32.7231C117.419 30.3696 117.419 30.4148 119.591 30.1885C121.989 29.917 145.247 30.2338 147.962 30.5506ZM117.012 31.9989C119.636 34.8955 119.908 34.7144 109.727 36.027C106.514 36.4343 102.351 37.1584 100.541 37.5658L97.2383 38.3352L94.433 36.1175C92.8945 34.8955 91.5371 33.764 91.4466 33.6735C90.8131 33.0851 104.478 31.0485 111.989 30.6411C113.482 30.5506 114.885 30.4601 115.111 30.4148C115.292 30.3696 116.197 31.0937 117.012 31.9989ZM190.676 31.7274C195.97 33.2662 199.047 34.3524 204.069 36.4796C211.083 39.5119 211.761 39.8287 211.761 40.2361C211.761 40.4624 209.997 40.9602 207.825 41.3223C199.499 42.8158 200.314 42.9063 194.793 40.1003C192.079 38.6973 189.59 37.5658 189.273 37.5658C188.956 37.5658 188.323 37.3395 187.87 37.1132C187.463 36.8416 185.699 36.1627 184.024 35.6196C182.305 35.0313 180.902 34.3976 180.902 34.1713C180.857 33.764 186.151 30.8674 187.056 30.8222C187.282 30.7769 188.911 31.1842 190.676 31.7274ZM160.903 31.9084C167.283 32.7683 174.205 34.2166 174.839 34.8502C175.11 35.1218 175.11 35.3028 174.839 35.3028C174.567 35.3028 173.979 35.6649 173.482 36.1175C173.029 36.5701 171.943 37.3847 171.129 37.9731C169.635 39.0141 169.59 39.0141 166.604 38.2899C161.129 36.9774 157.283 36.2985 153.934 35.9364C151.989 35.7554 150.495 35.3933 150.405 35.0765C150.269 34.7597 150.631 33.764 151.129 32.8588C152.034 31.4105 152.305 31.2295 154.025 31.2295C155.066 31.2295 158.142 31.5463 160.903 31.9084ZM90.8583 35.0765C92.0348 35.6649 93.5732 36.7059 94.2972 37.2942L95.6547 38.4257L93.0755 39.5572C91.7181 40.1908 90.4059 40.7339 90.2249 40.7339C90.0439 40.7339 88.3244 41.5486 86.3788 42.5443C82.8042 44.3546 81.5372 44.6714 80.768 43.9473C80.3155 43.54 75.8812 42.0917 72.8948 41.3223C72.0351 41.1412 71.2659 40.7339 71.1754 40.4624C70.8587 39.5119 83.8449 34.6239 88.3697 33.9903C88.5507 33.9451 89.6819 34.4429 90.8583 35.0765ZM184.296 37.1132C191.671 39.6929 193.481 40.4624 195.155 41.5033C196.06 42.0917 196.83 42.6348 196.83 42.7253C196.83 42.8611 195.653 43.2684 194.25 43.6758C192.802 44.0831 190.314 44.8072 188.73 45.2598C185.97 46.1197 185.744 46.1197 184.658 45.3956C182.395 43.9021 179.771 42.6348 175.88 41.1865C173.708 40.3266 171.943 39.5572 171.943 39.4214C171.988 38.7878 173.663 37.249 175.337 36.2985C177.509 35.0765 178.957 35.2123 184.296 37.1132ZM143.21 36.1627C146.695 36.389 147.283 36.5701 147.419 37.2942C147.509 37.7468 147.373 38.5615 147.102 39.1046C146.83 39.6024 146.106 41.3675 145.518 42.9969L144.477 45.9387L142.034 45.8482C140.677 45.8029 135.88 45.7124 131.355 45.6671L123.12 45.5314L122.804 44.1736C122.668 43.4042 122.08 41.3675 121.491 39.6929C120.36 36.3438 120.36 36.389 123.075 36.0722C125.699 35.8007 138.867 35.8459 143.21 36.1627ZM118.641 36.7511C119.365 37.3395 121.356 42.0012 121.944 44.4452C122.261 45.7577 122.351 45.7577 116.967 46.3913C115.745 46.5723 113.166 47.0702 111.22 47.568C106.243 48.79 105.881 48.7448 104.433 46.4818C103.754 45.4409 102.261 43.4947 101.13 42.1369C99.9985 40.7792 99.2293 39.5572 99.4103 39.3761C99.908 38.9688 107.057 37.6563 112.849 36.8869C115.338 36.5701 117.555 36.2985 117.691 36.2533C117.826 36.2533 118.233 36.4796 118.641 36.7511ZM158.414 38.0184C165.473 39.2856 167.871 39.9193 167.871 40.5529C167.871 40.6886 166.604 42.2275 165.02 44.0378C163.482 45.8482 161.853 47.7943 161.446 48.3827C160.857 49.1974 160.405 49.3784 159.409 49.1974C152.894 47.9301 146.333 46.4818 146.016 46.2103C145.654 45.8482 148.188 38.2899 149.002 37.2037C149.59 36.4796 149.59 36.4796 158.414 38.0184ZM64.3429 40.7339L66.2886 41.277L64.3882 42.9516C62.533 44.5357 60.4968 47.3417 59.4109 49.8763C59.0941 50.6004 58.5964 51.1435 58.2797 51.1888C55.972 51.2793 41.8998 51.0982 41.7641 51.0077C41.5831 50.8267 42.9858 47.8396 43.4383 47.5228C43.574 47.387 44.117 46.7534 44.6147 46.1197C46.1531 44.0831 51.5829 39.7382 53.3024 39.1498C54.886 38.6067 57.9629 39.0593 64.3429 40.7339ZM99.727 42.1822C101.673 44.4452 101.718 44.4904 103.302 46.7986C104.659 48.8353 104.433 49.5594 102.216 50.012C101.446 50.1931 99.9985 50.8267 98.9578 51.4151C97.9171 52.0034 96.8311 52.5013 96.5144 52.5013C96.1976 52.5013 94.7044 51.5961 93.1208 50.5099C91.5371 49.4237 89.0032 47.8848 87.4195 47.1154C85.8358 46.3008 84.6141 45.4409 84.7046 45.1693C85.1571 43.8115 93.4375 40.3266 96.1976 40.2813C97.8718 40.2813 98.2791 40.5076 99.727 42.1822ZM226.241 40.7339C226.241 41.0055 226.739 42.0012 227.372 42.9969C228.006 43.9926 228.503 44.9883 228.503 45.2598C228.503 45.7577 229.996 49.3784 230.766 50.7814C231.037 51.234 231.218 52.0034 231.218 52.5013C231.218 53.2254 230.901 53.4065 229.68 53.4065C228.322 53.4065 228.006 53.1802 227.191 51.4151C226.241 49.5142 222.938 46.0745 219.227 43.1326C218.232 42.3632 217.553 41.5938 217.734 41.4128C217.915 41.2318 219.544 40.9602 221.354 40.7339C226.196 40.2361 226.241 40.2361 226.241 40.7339ZM174.929 42.1822C178.776 43.54 183.708 46.0745 183.708 46.6176C183.708 46.8891 181.355 48.1564 174.567 51.6866C173.663 52.1845 172.667 52.8633 172.35 53.2254C171.626 54.1306 170.631 53.9948 168.368 52.7276C167.328 52.0939 166.197 51.5961 165.97 51.5961C165.156 51.5961 162.441 50.1478 162.441 49.6952C162.441 48.2922 169.002 40.7339 170.224 40.7339C170.631 40.7339 172.758 41.3675 174.929 42.1822ZM75.5192 43.3589C78.3699 44.3094 80.768 45.3051 80.8585 45.5314C80.949 45.8029 80.406 46.7081 79.682 47.568C78.9128 48.428 78.0531 49.6952 77.7816 50.4646C76.8314 52.8633 76.7862 52.8633 72.5328 52.2297C70.3157 51.8676 66.7863 51.5961 64.6144 51.5961C61.8995 51.5961 60.6326 51.4151 60.4968 51.0077C59.7728 49.0163 66.8316 41.6391 69.456 41.6391C69.9537 41.6391 72.6686 42.4085 75.5192 43.3589ZM217.463 43.2684C220.721 45.4409 223.888 48.3827 225.291 50.5551C226.06 51.6866 226.693 52.8181 226.693 53.0444C226.693 53.5875 210.404 53.4517 209.409 52.9086C208.956 52.6823 208.594 52.1845 208.594 51.8676C208.594 51.0982 206.151 47.9301 203.753 45.6219C201.762 43.6758 201.716 43.6758 207.282 42.8158C213.571 41.8201 215.472 41.9106 217.463 43.2684ZM203.029 46.8439C204.567 48.2469 206.286 50.0573 206.829 50.9625C208.096 52.9991 207.644 53.3612 203.843 53.4065C202.35 53.4517 199.047 53.678 196.513 53.9948C191.717 54.5832 190.947 54.4474 190.947 52.9086C190.947 52.456 190.223 51.1888 189.364 50.0573C188.504 48.8806 187.78 47.7038 187.78 47.3417C187.78 46.9344 189.318 46.346 192.441 45.5766C199.363 43.8568 199.725 43.9021 203.029 46.8439ZM86.5598 47.8848C91.6728 50.6004 94.8402 52.9086 94.4782 53.7233C93.7542 55.3073 92.1253 57.4798 91.6276 57.4798C91.2656 57.4798 89.5009 56.8914 87.6457 56.122C85.7906 55.3979 83.2567 54.5379 81.9897 54.3116C78.5961 53.5422 78.0531 52.9991 78.6866 51.0077C79.1391 49.6499 82.2612 46.165 83.0757 46.165C83.2114 46.165 84.7951 46.9344 86.5598 47.8848ZM143.527 47.8848C143.889 48.2469 143.165 51.7771 142.351 53.8591C142.215 54.2211 141.808 56.0767 141.491 57.9324L140.948 61.3268L133.392 61.4626L125.88 61.5531L125.609 59.8785C125.473 58.9281 125.247 57.0272 125.111 55.6694C124.975 54.3116 124.613 52.1392 124.342 50.8267C123.482 46.7534 123.12 46.8891 133.799 47.206C138.912 47.3417 143.301 47.6586 143.527 47.8848ZM122.985 50.012C123.709 52.8633 124.161 56.5746 124.206 59.4712V61.7341L120.134 62.5941C112.849 64.1329 113.392 64.1781 112.487 61.9152C112.034 60.8742 111.492 59.5617 111.311 59.0638C111.084 58.566 110.089 56.3936 109.093 54.2211C108.053 52.0487 107.238 50.1478 107.238 50.0573C107.238 49.3784 117.691 47.568 120.813 47.7038C122.306 47.7491 122.442 47.8396 122.985 50.012ZM154.161 49.3784C159.998 50.7814 159.998 50.7814 158.595 53.0896C157.916 54.1306 156.875 56.122 156.287 57.4798C155.654 58.8376 154.839 60.5121 154.477 61.191C154.115 61.8246 153.844 62.6846 153.844 63.0919C153.844 63.7708 153.256 64.0423 152.26 63.8161C152.034 63.7708 149.771 63.3182 147.283 62.8203C144.794 62.3225 142.622 61.7794 142.441 61.5984C142.079 61.2815 144.025 51.1435 144.839 49.0163C145.247 47.9301 145.382 47.8848 147.69 48.1564C149.048 48.2922 151.943 48.8353 154.161 49.3784ZM187.508 49.6499C188.006 50.2836 188.821 51.6866 189.409 52.7276L190.404 54.6737L184.251 56.8009C175.608 59.7427 176.015 59.6975 174.386 57.6156C172.169 54.8095 172.124 54.9 174.975 53.0896C182.169 48.4732 185.925 47.4323 187.508 49.6499ZM106.378 51.5961C107.51 53.7233 112.215 64.1781 112.215 64.5402C112.215 64.7665 108.686 66.5316 108.234 66.5316C108.007 66.5316 106.876 65.038 105.745 63.1824C104.569 61.3721 102.397 58.6113 100.903 57.0724C99.4103 55.5336 98.1886 54.0853 98.1886 53.8591C98.1886 52.9991 103.256 50.7362 104.931 50.8267C105.519 50.8719 106.197 51.234 106.378 51.5961ZM164.522 52.4108C169.862 54.8548 169.816 54.719 166.694 58.0229C163.708 61.191 160.631 65.1738 160.631 65.8527C160.631 66.9842 159.726 67.0747 157.464 66.0337C155.247 65.038 154.387 64.0876 155.201 63.5898C155.473 63.4087 155.654 62.8656 155.654 62.2772C155.654 61.6889 156.151 60.3311 156.785 59.2449C157.373 58.1587 158.188 56.5746 158.55 55.7599C159.681 53.3159 161.084 51.5961 161.988 51.5961C162.441 51.5961 163.572 51.9582 164.522 52.4108ZM58.5511 53.4517C58.7774 53.678 59.0489 54.719 59.1394 55.7599C59.2751 57.0724 59.9086 58.566 61.1303 60.2858C62.0805 61.7341 62.895 63.0919 62.895 63.3182C62.895 63.5445 61.1303 63.9518 58.9584 64.2234C56.7412 64.4949 53.3024 65.038 51.2209 65.4454C47.0581 66.2148 47.1034 66.2148 44.66 63.454C42.7143 61.2815 41.5831 58.8828 41.3116 56.2578C40.8591 52.275 40.4519 52.456 49.8635 52.7728C54.4336 52.9086 58.3249 53.2254 58.5511 53.4517ZM70.2252 53.4065C76.0622 53.9496 76.6957 54.1759 77.4196 55.5789C78.4604 57.6156 80.6775 60.8289 81.4015 61.3721C82.1707 61.9604 80.4965 62.1867 71.7184 62.6846C69.2297 62.8656 66.8316 63.0919 66.3791 63.2277C65.7909 63.3635 64.9764 62.8656 63.7547 61.5531C61.1303 58.8376 59.9086 56.0767 60.1348 53.497C60.1801 52.8181 63.8904 52.7728 70.2252 53.4065ZM83.4376 55.8957C89.2294 57.7966 91.8538 59.1091 91.8538 60.1048C91.8538 60.6026 92.1705 61.5531 92.5325 62.2772C92.8945 62.9561 93.0755 63.635 92.985 63.7255C92.8945 63.8613 90.8583 63.5898 88.5054 63.1372C84.6141 62.4583 83.9806 62.1867 82.1255 60.5574C80.044 58.7018 78.7318 56.7556 78.7318 55.4431C78.7318 54.5379 79.3201 54.5832 83.4376 55.8957ZM99.546 57.344C104.523 62.4583 107.193 67.0294 106.243 68.8851C105.474 70.4239 104.207 69.7903 102.532 67.0747C100.949 64.4497 97.8718 61.5078 94.8402 59.6975C93.9352 59.1996 93.2113 58.4755 93.2113 58.1587C93.2113 57.3893 95.6547 54.7642 96.3786 54.7642C96.6954 54.7642 98.0981 55.941 99.546 57.344ZM208.368 57.2987C208.323 59.3354 208.096 59.969 206.377 62.1867C205.336 63.635 204.16 64.9023 203.753 65.038C203.391 65.1738 200.811 65.0833 198.006 64.7665C195.246 64.4949 191.671 64.1781 190.088 64.0423C188.504 63.9518 187.101 63.7708 187.011 63.635C186.875 63.4992 187.418 62.7298 188.187 61.9152C188.956 61.1005 190.042 59.5617 190.54 58.5207C191.038 57.4345 191.717 56.4388 191.988 56.2578C192.893 55.6694 200.902 54.8548 204.748 54.9453L208.368 54.9905V57.2987ZM227.508 58.2944C227.644 61.5531 227.598 61.6889 225.653 64.6307C222.757 69.0208 222.712 69.0661 219.092 68.4325C213.617 67.5273 205.653 65.9885 205.472 65.8527C205.381 65.7622 205.924 64.9023 206.648 63.9518C208.639 61.4173 209.409 59.7427 209.544 57.4798C209.59 56.3483 209.725 55.3073 209.816 55.081C209.952 54.9 213.933 54.8095 218.684 54.8548L227.372 54.9905L227.508 58.2944ZM172.577 57.344C175.246 60.0143 175.337 59.8333 170.224 63.635C168.685 64.7665 167.102 66.3053 166.694 67.0294C166.332 67.7536 165.88 68.342 165.654 68.342C165.427 68.342 165.156 68.7493 165.02 69.2019C164.93 69.6545 164.387 70.2881 163.889 70.5597C163.074 70.967 162.803 70.8765 161.988 69.6997C160.857 68.1157 160.993 67.5726 163.029 64.4044C165.292 60.9195 169.907 56.122 171.038 56.122C171.219 56.122 171.943 56.6651 172.577 57.344ZM189.59 57.6156C189.59 58.566 187.599 61.01 185.337 62.7751C183.617 64.0876 182.622 64.4949 179.364 65.038C177.237 65.4001 175.382 65.6264 175.291 65.4906C175.156 65.4001 175.337 64.3592 175.653 63.2277C176.242 60.9195 176.558 60.6932 183.255 58.4302C187.508 56.9819 189.59 56.7104 189.59 57.6156ZM139.726 63.1824C140.722 63.454 140.722 63.5898 140.45 67.8441C140.224 71.0575 139.953 72.3248 139.41 72.7773C138.867 73.2752 137.419 73.3205 132.803 73.0942C129.591 72.9584 126.74 72.6416 126.514 72.4153C125.926 71.8269 125.835 63.635 126.423 63.2729C127.012 62.8656 138.233 62.8203 139.726 63.1824ZM124.93 67.6631C125.111 70.2428 125.021 71.9627 124.704 72.37C124.342 72.8226 123.437 72.9131 120.813 72.7321C115.835 72.3248 115.111 71.9627 114.749 69.6092C114.025 65.5359 114.071 65.4906 116.288 64.857C119.455 63.8613 121.808 63.454 123.301 63.4992L124.659 63.5898L124.93 67.6631ZM148.776 64.5854C150.676 64.9928 152.215 65.5359 152.351 65.898C152.486 66.26 152.305 67.7988 151.989 69.2924C151.265 72.5511 150.903 72.7773 146.106 72.8679C140.496 72.9584 141.039 73.411 141.401 68.8851C141.582 66.7126 141.944 64.5854 142.17 64.1329C142.622 63.2277 142.441 63.2277 148.776 64.5854ZM86.5598 64.9023C87.6005 65.4906 90.1344 66.6674 92.1705 67.482C94.252 68.342 95.9261 69.1566 95.9261 69.3377C95.9261 69.5187 95.3832 69.7903 94.7044 69.9713C93.9805 70.1071 91.4466 70.8312 89.0484 71.6459L84.6593 73.0489L81.5825 72.0079C77.1481 70.4239 73.3473 68.704 70.4514 66.8484C66.1981 64.0876 66.5601 63.9518 77.0577 63.8613C84.2974 63.8161 84.7951 63.8613 86.5598 64.9023ZM67.2388 66.3506C69.0035 67.6631 77.9174 72.0985 80.225 72.8679C82.3064 73.5015 81.9445 74.2256 79.0938 75.1308C78.0079 75.4476 76.0622 76.217 74.7047 76.8054C70.9039 78.48 70.2704 78.5253 66.5148 76.9412C60.7683 74.4972 56.4697 72.4153 53.3024 70.5144C49.8182 68.4325 48.9133 67.5726 49.8182 67.2105C51.5377 66.5769 64.2524 64.8118 65.1574 65.0833C65.5194 65.2191 66.4696 65.7622 67.2388 66.3506ZM197.192 66.1695C199.228 66.3958 200.902 66.8031 200.902 67.0294C200.902 68.2062 194.115 71.5101 186.965 73.8183C184.024 74.7235 183.481 74.7688 182.214 74.2709C180.947 73.7278 173.798 71.2838 171.943 70.7407C171.581 70.6049 173.21 69.8808 175.608 69.0208C178.006 68.2062 180.585 67.2105 181.4 66.7579C184.432 65.2191 188.549 65.038 197.192 66.1695ZM208.142 67.8894C214.567 68.9303 219.182 69.745 219.544 69.9713C221.354 71.1028 209.771 76.9412 199.725 79.9735L197.418 80.6977L192.26 78.48C189.183 77.1675 187.101 75.9908 187.101 75.6287C187.101 75.2666 188.187 74.633 189.816 74.1351C192.938 73.1394 197.825 70.9217 199.499 69.745C201.762 68.1157 204.296 66.9842 204.974 67.2557C205.336 67.3915 206.784 67.7083 208.142 67.8894ZM105.654 71.4196C106.921 71.6911 109.455 72.189 111.311 72.5511C113.166 72.9584 115.473 73.411 116.424 73.5468C117.329 73.6825 118.098 73.9541 118.098 74.1351C118.098 74.3162 117.193 75.4476 116.016 76.6696L113.98 78.8873L110.813 78.6158C104.342 78.0727 87.7815 74.5877 87.7815 73.7731C87.7815 73.411 90.1344 72.4605 93.89 71.3291C96.2881 70.5597 101.446 70.6502 105.654 71.4196ZM176.83 73.5468C178.911 74.1804 180.54 74.9498 180.45 75.2213C180.223 75.8097 177.282 76.6244 171.717 77.5748C163.663 78.9326 157.916 79.6567 155.111 79.6567H152.26L150.314 77.1222C149.229 75.7192 148.459 74.4972 148.595 74.3614C148.731 74.2256 150.495 73.9088 152.577 73.6825C154.658 73.411 158.052 72.9584 160.179 72.5963C165.835 71.6911 172.215 72.0532 176.83 73.5468ZM145.428 74.6782C146.468 74.6782 147.238 75.2213 148.912 77.0317C150.586 78.8873 150.948 79.4757 150.45 79.7473C149.138 80.5167 119.455 80.1546 116.65 79.3852C115.654 79.0684 116.062 77.9821 117.781 76.4886C120.36 74.3162 120.36 74.3162 132.532 74.5424C138.912 74.633 144.704 74.7235 145.428 74.6782ZM90.9488 76.1265C95.3832 77.3485 105.745 79.4304 109.636 79.883C110.858 80.0641 111.899 80.4261 112.08 80.7882C112.17 81.1503 111.356 82.5533 110.134 83.9563C108.505 85.8572 107.691 86.4456 106.74 86.4456C104.388 86.4456 87.1028 83.3227 82.8042 82.1007C74.6595 79.8378 73.2568 79.3852 73.3021 78.9326C73.3473 78.7063 74.8405 77.9821 76.6052 77.3485C78.4151 76.7149 80.587 75.855 81.4467 75.4476C83.4376 74.5424 85.5191 74.6782 90.9488 76.1265ZM187.327 77.6653C188.685 78.299 190.902 79.2494 192.214 79.7473C193.526 80.2451 194.522 80.8787 194.431 81.1503C194.25 81.7839 188.006 83.4132 182.124 84.4089C173.934 85.812 172.531 86.0383 166.74 86.6719C157.735 87.7129 158.233 87.8034 155.88 84.59C154.749 83.0512 153.98 81.6481 154.115 81.4218C154.251 81.1955 155.382 81.0145 156.649 81.0145C157.916 81.0145 160.179 80.7882 161.717 80.5619C171.626 78.9326 175.291 78.2084 178.278 77.439C182.848 76.2623 184.386 76.3076 187.327 77.6653ZM72.4423 80.3809C78.8223 82.6891 94.4329 86.174 104.659 87.6223C105.835 87.7581 106.786 88.0297 106.786 88.2107C106.786 88.3465 105.293 90.2926 103.483 92.5556L100.179 96.6289L95.5642 96.6742C93.0303 96.7194 84.7951 96.5836 77.2386 96.3573C69.7274 96.1763 56.6507 95.9047 48.1893 95.7237C39.7279 95.5427 32.6239 95.2259 32.4429 95.0448C32.2167 94.8638 33.0312 94.3207 34.2529 93.9133C35.4293 93.4608 37.8727 92.5556 39.5922 91.8767C41.3568 91.1978 44.8862 89.7948 47.5106 88.7991C56.334 85.4046 65.3836 81.8292 67.1936 81.0145C68.189 80.6072 69.3202 80.1093 69.6822 79.9735C70.0442 79.8378 70.4062 79.702 70.4062 79.702C70.4514 79.6567 71.3564 79.9735 72.4423 80.3809ZM125.564 81.5124C130.224 81.8292 136.966 81.9197 142.668 81.7386L152.124 81.4218L153.618 83.0964C155.382 84.9973 156.332 87.1697 155.608 87.6223C154.025 88.5728 122.034 88.1654 113.12 87.0792C109.455 86.6266 109.365 86.3551 111.944 83.6395C112.577 82.9606 113.12 82.1912 113.12 81.9649C113.12 81.1503 114.704 80.5619 116.288 80.7882C117.148 80.8787 121.356 81.2408 125.564 81.5124ZM202.35 84.0921C204.431 85.0878 206.92 86.1288 207.915 86.4456C208.911 86.7624 210.449 87.396 211.309 87.8486C212.169 88.3465 213.028 88.7085 213.255 88.7085C213.481 88.7085 215.427 89.5232 217.553 90.4737C219.725 91.4694 222.938 92.8271 224.657 93.506C226.422 94.1849 228.232 95.0448 228.73 95.3616C229.227 95.6785 229.861 95.95 230.177 95.95C230.992 95.95 235.834 98.3035 235.562 98.575C235.291 98.8466 218.096 98.7561 208.82 98.4393C205.336 98.3035 194.25 98.1224 184.16 97.9867L165.835 97.7604L164.341 96.0405C162.577 94.0944 159.726 89.8853 159.726 89.2517C159.726 89.0254 162.124 88.5728 165.065 88.256C172.622 87.4866 182.486 85.7667 189.59 84.0016C192.938 83.1417 196.332 82.4628 197.146 82.4175C197.916 82.3723 200.268 83.1417 202.35 84.0921ZM118.098 89.1159C119.953 89.3422 129.681 89.478 139.681 89.4327L157.916 89.3874L160.631 93.0534C162.124 95.0901 163.346 96.991 163.346 97.3078C163.346 97.7604 160.722 97.8509 150.36 97.5793C143.165 97.4436 132.668 97.3078 126.921 97.3078C115.021 97.3078 101.808 96.8552 101.808 96.4479C101.808 96.3121 102.578 95.3164 103.528 94.3207C104.433 93.2797 105.519 91.9672 105.881 91.4241C106.243 90.881 106.967 89.8853 107.419 89.2969C108.369 88.0297 107.872 88.0297 118.098 89.1159ZM139.229 99.1181C139.5 99.1181 139.862 99.9328 140.043 100.929C140.541 103.916 140.134 104.097 133.527 104.097C125.88 104.097 125.745 104.006 126.061 101.653C126.514 98.3487 126.107 98.5298 132.713 98.8466C135.971 98.9824 138.912 99.1181 139.229 99.1181ZM116.378 102.784C117.238 103.237 117.283 103.554 117.012 106.314C116.514 111.338 116.288 112.243 115.383 112.243C114.93 112.243 114.116 111.881 113.573 111.429C112.623 110.659 112.577 110.433 113.075 108.125C113.347 106.812 113.663 104.911 113.799 103.961C114.071 102.196 114.704 101.879 116.378 102.784ZM148.007 106.043C148.007 106.857 148.097 108.713 148.233 110.252C148.459 112.967 148.459 113.013 147.192 113.511C146.514 113.782 145.066 114.235 143.98 114.461C142.125 114.868 141.989 114.823 141.582 113.692C141.355 113.058 141.22 110.886 141.265 108.894L141.401 105.228L143.618 104.685C144.794 104.368 145.925 104.051 146.016 103.916C146.649 103.282 147.962 104.685 148.007 106.043ZM123.89 104.866C124.432 105.092 124.523 105.862 124.252 109.709C124.071 112.198 123.709 114.37 123.482 114.551C122.985 114.823 118.233 113.873 117.736 113.42C117.6 113.239 117.736 111.836 118.007 110.252C118.324 108.668 118.55 106.767 118.55 106.043C118.55 105.319 118.686 104.549 118.867 104.368C119.229 104.051 122.577 104.368 123.89 104.866ZM139.998 105.907C140.179 106.133 140.45 113.194 140.315 114.37C140.315 114.642 139.636 115.004 138.867 115.185C137.057 115.592 126.423 115.547 125.745 115.14C125.383 114.959 125.337 113.556 125.564 110.478C125.745 108.079 125.971 105.998 126.061 105.816C126.288 105.5 139.636 105.59 139.998 105.907ZM85.0666 107.536L104.297 107.808L105.519 109.166C106.921 110.704 107.51 112.153 106.921 112.741C106.74 112.922 105.428 113.239 104.071 113.375C102.713 113.556 101.084 113.782 100.451 113.873C93.0303 115.14 90.2701 115.728 85.0666 117.041C81.492 117.946 78.5056 118.489 77.8269 118.353C75.7455 117.855 69.0035 114.823 68.0533 114.008C67.5555 113.511 66.9673 113.148 66.7863 113.148C66.1528 113.148 58.8226 107.582 58.8226 107.084C58.8226 106.857 60.2253 106.812 62.352 106.993C64.2524 107.129 74.4785 107.401 85.0666 107.536ZM199.454 109.03C202.486 109.075 204.974 109.256 204.974 109.437C204.974 109.618 204.341 110.207 203.572 110.659C202.802 111.157 201.626 111.926 200.947 112.334C198.866 113.692 193.119 116.543 189.273 118.127C185.88 119.485 185.382 119.575 183.617 119.168C182.531 118.896 179.047 117.946 175.789 117.086C168.549 115.185 165.835 114.597 161.807 114.054C160.133 113.827 158.595 113.556 158.459 113.42C158.323 113.284 158.55 112.786 158.912 112.379C159.319 111.926 159.952 110.886 160.36 110.071L161.129 108.532L177.509 108.804C186.513 108.939 196.377 109.03 199.454 109.03ZM114.568 113.737L115.7 114.778L114.478 119.756C113.12 125.233 112.713 125.685 110.496 123.784L109.093 122.608L109.953 120.254C110.451 118.942 111.175 116.724 111.537 115.276C111.944 113.873 112.532 112.696 112.849 112.696C113.166 112.696 113.935 113.148 114.568 113.737ZM153.391 113.465C153.391 113.918 153.934 116.09 154.613 118.308L155.835 122.336L154.568 123.377C153.029 124.735 152.124 124.735 151.808 123.422C151.717 122.879 151.31 121.024 150.903 119.349C149.998 115.321 150.043 113.737 151.038 113.194C152.26 112.47 153.391 112.605 153.391 113.465ZM106.197 116.136C105.835 118.399 105.293 118.896 102.804 119.258C101.627 119.394 98.9578 119.983 96.8311 120.48C93.9352 121.159 92.1705 121.34 89.7271 121.114C86.3788 120.843 82.3517 119.937 82.3517 119.485C82.3517 118.625 100.225 114.823 105.383 114.551C106.378 114.506 106.424 114.642 106.197 116.136ZM120.813 115.728C122.396 116 124.116 117.086 123.799 117.629C123.482 118.127 123.075 121.929 123.03 124.599C122.939 127.903 122.532 128.22 119.41 127.45C116.876 126.771 114.478 125.957 114.478 125.73C114.478 125.64 114.885 124.282 115.383 122.743C115.881 121.159 116.288 119.439 116.288 118.987C116.288 118.489 116.605 117.358 116.967 116.498C117.51 115.23 117.826 114.914 118.414 115.185C118.867 115.366 119.953 115.592 120.813 115.728ZM148.64 115.502C148.731 115.819 149.274 118.082 149.817 120.526C150.722 124.418 150.767 125.052 150.179 125.64C149.229 126.545 143.346 128.174 142.803 127.631C142.577 127.405 142.215 124.961 141.989 122.155C141.491 116.317 141.627 116.09 144.839 115.457C147.735 114.868 148.414 114.914 148.64 115.502ZM165.382 116.09C170.224 116.905 180.631 119.439 181.128 119.937C181.309 120.118 180.812 120.526 180.043 120.888C177.735 121.838 170.993 121.657 166.513 120.526C164.387 119.983 161.943 119.439 161.038 119.258C159.726 119.077 159.228 118.715 158.821 117.674C158.052 115.773 158.504 114.823 160.043 115.14C160.767 115.276 163.165 115.728 165.382 116.09ZM140.767 120.616C140.903 122.608 141.22 125.097 141.401 126.138C141.717 127.948 141.672 128.039 140.45 128.401C139.048 128.763 124.659 128.899 124.297 128.537C124.071 128.356 124.794 118.625 125.111 117.448C125.156 117.177 128.143 116.995 132.849 116.995H140.496L140.767 120.616ZM84.3426 121.476L88.3697 122.517L83.4376 124.463C78.5961 126.409 72.9401 129.351 71.4016 130.709C70.8134 131.207 69.9537 131.297 68.008 131.116C64.3882 130.8 58.7774 129.396 58.9584 128.853C59.2751 127.903 67.9628 123.694 74.1165 121.476C77.8721 120.164 79.2748 120.164 84.3426 121.476ZM106.786 124.508C106.288 126.228 102.487 132.746 101.492 133.56C100.903 134.058 100.722 134.013 100.179 133.289C99.2293 132.022 99.4103 130.709 100.722 128.944C101.356 128.084 102.804 125.821 103.935 123.83L106.016 120.299L106.605 121.702C107.012 122.653 107.057 123.513 106.786 124.508ZM187.825 122.155C188.73 122.653 190.495 123.332 191.807 123.739C194.884 124.644 205.879 130.347 205.879 131.026C205.879 131.659 203.572 132.384 199.228 133.108C196.377 133.56 195.834 133.56 194.929 132.927C188.232 128.22 185.653 126.771 180.404 124.644C178.73 123.965 177.463 123.332 177.554 123.241C177.961 122.834 183.572 121.34 184.839 121.34C185.608 121.295 186.92 121.702 187.825 122.155ZM160.903 125.233C161.853 127.179 163.12 129.442 163.708 130.302C164.613 131.659 164.703 131.976 164.206 133.153C163.934 133.877 163.436 134.375 163.165 134.284C161.988 133.877 157.192 123.558 157.645 122.336C158.188 121.024 159.228 121.929 160.903 125.233ZM102.261 122.381C102.261 122.472 101.22 122.879 99.908 123.332C96.1524 124.554 91.4918 127.088 89.3652 129.034C87.6005 130.664 87.0123 130.935 84.2974 131.252C81.5372 131.614 76.6504 131.84 73.7998 131.75C71.9899 131.659 73.3473 130.664 78.8676 127.948C86.6503 124.056 89.9081 123.015 95.6999 122.653C98.46 122.517 101.039 122.336 101.492 122.291C101.899 122.246 102.261 122.291 102.261 122.381ZM171.038 123.558C175.563 124.011 179.997 125.64 187.554 129.713C195.065 133.741 195.02 134.194 187.237 133.832C179.816 133.47 178.459 133.153 176.468 131.252C174.748 129.578 167.78 124.916 167.056 124.916C166.83 124.916 165.744 124.508 164.658 124.011L162.667 123.105H164.703C165.835 123.105 168.685 123.332 171.038 123.558ZM110.541 125.459C111.356 126.047 112.08 126.545 112.17 126.59C112.532 126.817 111.265 130.528 109.727 133.787C108.912 135.552 108.098 137.407 107.962 137.95C107.781 138.494 107.419 138.946 107.148 138.946C106.378 138.946 102.261 136.185 102.261 135.687C102.261 135.416 103.483 133.243 104.976 130.754C106.469 128.31 107.691 126.138 107.691 125.912C107.691 125.549 108.641 124.463 108.912 124.463C109.003 124.463 109.727 124.916 110.541 125.459ZM157.69 127.496C158.414 129.215 159.681 131.75 160.495 133.153C161.31 134.556 161.988 135.823 161.988 135.959C161.988 136.366 158.278 138.946 157.69 138.946C157.147 138.946 155.201 135.416 155.201 134.465C155.201 134.194 155.02 133.606 154.794 133.153C154.115 131.976 152.939 127.812 152.939 126.771C152.939 125.912 154.749 124.508 155.925 124.463C156.197 124.463 157.011 125.821 157.69 127.496ZM44.9314 125.685C45.1124 125.821 47.1034 126.681 49.411 127.586C51.6734 128.491 53.6191 129.442 53.7096 129.713C53.8001 129.985 53.1214 130.709 52.1712 131.388C50.0445 132.791 44.8862 137.815 43.6645 139.625C43.1215 140.394 42.3523 141.888 41.8546 143.019C40.5876 146.097 40.4066 146.188 37.5107 146.188C34.7054 146.188 34.2981 145.826 35.2483 144.015C36.108 142.431 37.1035 140.168 37.1035 139.716C37.1035 139.489 37.4202 138.629 37.7822 137.769C38.1442 136.909 38.7777 135.552 39.1397 134.692C39.5017 133.832 39.8184 133.017 39.8184 132.836C39.8184 132.519 40.6781 130.483 42.1713 127.269C42.9858 125.504 44.117 124.825 44.9314 125.685ZM152.713 131.569C153.482 133.787 154.477 136.366 154.885 137.226C155.292 138.131 155.654 139.172 155.654 139.535C155.654 140.304 149.5 142.476 146.106 142.884L144.025 143.11L143.753 141.39C143.572 140.394 143.301 137.362 143.165 134.601L142.848 129.532L145.518 128.808C146.966 128.356 148.686 127.858 149.319 127.631C149.952 127.45 150.631 127.315 150.903 127.36C151.129 127.405 151.943 129.306 152.713 131.569ZM98.1886 129.08C98.1886 130.256 97.6456 131.162 95.5642 133.334C92.8493 136.231 89.0484 139.399 88.3244 139.399C88.0982 139.399 87.6457 139.716 87.329 140.078C87.0123 140.44 86.3335 140.757 85.8358 140.757C85.0213 140.757 84.9761 140.53 85.2023 137.996C85.5643 133.832 86.967 132.067 90.8131 130.754C92.4873 130.211 94.7044 129.306 95.6999 128.718C98.0981 127.405 98.1886 127.405 98.1886 129.08ZM118.505 128.763C120.586 129.396 122.396 129.985 122.487 130.075C122.668 130.256 121.808 135.054 120.632 140.304L120.089 142.793L118.279 142.657C117.329 142.612 114.84 142.024 112.804 141.345C108.867 140.123 108.415 139.625 109.636 137.815C109.953 137.317 110.632 135.869 111.084 134.647C112.487 130.845 113.98 127.631 114.342 127.631C114.568 127.631 116.424 128.174 118.505 128.763ZM170.043 130.981C172.215 132.112 174.703 133.289 175.608 133.696C178.142 134.737 179.952 139.172 178.911 141.843C178.233 143.608 175.201 141.752 169.545 136.004C166.875 133.334 165.608 131.162 165.608 129.306C165.608 128.763 165.925 128.899 170.043 130.981ZM141.853 133.062C142.034 134.692 142.351 137.588 142.577 139.58C142.848 141.526 142.894 143.246 142.758 143.427C142.351 143.834 122.306 143.789 121.899 143.336C121.718 143.155 121.763 142.024 122.08 140.847C122.351 139.67 122.713 137.498 122.849 136.004C122.985 134.511 123.301 132.565 123.528 131.705L123.935 130.121H132.758H141.582L141.853 133.062ZM61.085 131.252C62.714 131.75 64.3882 132.157 64.7954 132.157C65.2026 132.157 66.1076 132.384 66.7863 132.61L68.008 133.108L66.4243 134.782C63.6189 137.769 61.4923 141.843 61.3565 144.558C61.266 146.278 59.6371 146.595 50.9495 146.504L42.7595 146.414L42.6238 145.282C42.488 144.015 45.1124 139.67 47.3748 137.362C52.0354 132.655 55.2028 130.347 57.0127 130.347C57.6462 130.347 59.4561 130.754 61.085 131.252ZM211.535 134.556C214.612 137.181 219.001 141.707 219.499 142.793C219.725 143.291 220.449 144.513 221.037 145.509C221.671 146.504 222.169 147.862 222.169 148.541V149.808L213.028 149.537C207.961 149.401 203.617 149.22 203.345 149.129C203.074 149.039 202.848 147.862 202.802 146.459C202.757 143.789 201.083 139.761 198.775 136.774C198.142 135.959 197.735 135.19 197.78 135.099C198.097 134.828 207.01 132.7 208.142 132.655C208.866 132.655 210.087 133.334 211.535 134.556ZM85.0666 133.832C85.0666 134.194 84.7498 135.099 84.3426 135.869C83.8901 136.728 83.7091 138.041 83.7996 139.58C83.9354 141.843 83.8901 141.888 82.3064 142.657C78.3246 144.649 63.9357 146.957 62.8045 145.826C61.7185 144.739 64.7501 138.629 68.1438 135.099L69.9084 133.289L77.5101 133.243C83.7091 133.198 85.0666 133.289 85.0666 133.832ZM99.003 133.606C100.225 135.144 100.044 136.14 98.1886 138.313C96.0166 140.892 94.071 142.929 91.2656 145.644L89.2747 147.591L88.0077 146.097C86.2883 144.06 85.6096 142.476 86.3335 142.205C87.9172 141.707 92.623 138.086 95.4284 135.28C97.6456 133.017 98.2791 132.746 99.003 133.606ZM166.74 134.873C166.875 135.371 167.418 136.004 167.916 136.231C168.368 136.502 168.776 136.909 168.776 137.181C168.776 137.905 174.884 142.929 176.604 143.608C177.78 144.06 177.554 145.644 176.015 147.138C174.975 148.224 174.522 148.405 173.844 148.043C172.893 147.545 169.047 143.155 165.88 139.082C163.753 136.231 163.753 136.231 164.568 135.099C165.563 133.741 166.378 133.651 166.74 134.873ZM197.373 137.272C199.906 140.078 201.264 143.155 201.445 146.414L201.581 148.677L199.635 148.813C196.558 149.039 189.318 147.636 184.522 145.871L180.133 144.241L180.223 141.028C180.269 139.263 180.133 137.181 179.952 136.457L179.59 135.099L187.644 135.235L195.698 135.371L197.373 137.272ZM102.985 138.086C103.437 138.629 104.388 139.308 105.066 139.67C106.469 140.394 106.695 141.707 105.654 142.567C105.293 142.884 104.976 143.336 104.976 143.563C104.976 143.789 104.478 144.649 103.845 145.463C103.211 146.278 102.713 147.093 102.713 147.229C102.713 147.41 101.989 148.541 101.13 149.763C100.27 150.94 99.546 152.162 99.546 152.479C99.546 153.746 94.7497 151.936 91.4013 149.401L90.3154 148.541L95.6999 142.884C98.6863 139.761 101.356 137.181 101.627 137.181C101.899 137.136 102.487 137.543 102.985 138.086ZM165.02 140.213C166.061 141.616 168.233 144.196 169.862 145.961C171.491 147.681 172.803 149.356 172.848 149.673C172.848 150.216 166.74 153.882 165.789 153.882C165.111 153.882 162.441 149.808 159.5 144.196C158.007 141.435 157.916 141.028 158.504 140.394C159.138 139.761 162.396 137.724 162.893 137.634C163.029 137.634 163.979 138.765 165.02 140.213ZM110.451 142.114C110.903 142.386 113.211 143.065 115.519 143.653C118.052 144.287 119.727 144.966 119.817 145.328C119.862 145.69 119.229 148.586 118.414 151.845L116.921 157.729L115.383 157.683C113.256 157.638 103.935 155.466 101.22 154.38L99.9532 153.882L101.718 151.302C104.342 147.455 106.333 144.377 106.333 144.106C106.333 143.97 106.65 143.382 107.057 142.793C107.826 141.571 109.003 141.345 110.451 142.114ZM158.821 145.871C159.907 148.179 161.4 150.759 162.079 151.619C162.758 152.479 163.346 153.52 163.346 153.927C163.346 154.923 159.545 156.19 152.532 157.502C147.554 158.453 147.328 158.453 146.74 157.683C146.423 157.231 146.152 156.416 146.152 155.873C146.152 155.285 145.744 152.66 145.201 149.989C144.704 147.364 144.387 145.101 144.477 144.966C144.613 144.875 146.468 144.377 148.686 143.834C150.857 143.336 153.301 142.612 154.07 142.295C154.794 141.979 155.744 141.707 156.106 141.707C156.513 141.707 157.599 143.382 158.821 145.871ZM85.5191 144.785C85.7906 145.509 86.424 146.459 86.9218 146.912C87.3742 147.319 87.7815 147.998 87.7815 148.405C87.7815 149.175 81.9897 153.701 77.8269 156.19C76.4694 157.005 74.5238 158.181 73.5283 158.815C70.6324 160.671 70.3609 160.716 68.6867 159.449C65.6551 157.05 61.447 148.903 62.8497 148.043C63.1665 147.817 65.4741 147.545 68.008 147.41C72.4876 147.138 79.0938 145.644 82.3517 144.196C84.5688 143.246 84.8856 143.291 85.5191 144.785ZM133.437 145.463C139.455 145.463 143.21 145.69 143.301 145.961C143.346 146.188 143.844 148.541 144.296 151.166C144.794 153.791 145.337 156.461 145.473 157.14C145.744 158.227 145.654 158.408 144.523 158.724C142.894 159.177 121.491 159.177 119.727 158.724C118.641 158.408 118.505 158.181 118.686 157.14C121.175 145.056 121.265 144.785 122.713 145.147C123.301 145.282 128.098 145.418 133.437 145.463ZM181.264 146.142C182.26 147.093 190.223 149.356 194.115 149.808C200.63 150.578 201.354 150.714 201.354 151.121C201.354 152.252 198.368 157.14 196.513 158.996C193.753 161.802 193.119 162.119 191.626 161.576C189.002 160.58 176.015 150.759 176.015 149.763C176.015 149.492 176.739 148.496 177.69 147.545C179.319 145.78 180.404 145.328 181.264 146.142ZM39.0039 147.953C40.1351 147.998 40.1804 148.088 40.1804 150.351C40.1804 154.832 42.85 160.082 47.5558 164.744C51.1757 168.365 51.2209 168.274 45.4744 169.406C36.7868 171.08 25.6557 171.985 25.1127 171.08C24.9317 170.763 25.701 168.274 26.8322 165.513C27.9634 162.707 29.9543 157.683 31.2665 154.334C32.6239 150.985 33.8456 148.088 34.0719 147.953C34.2529 147.817 35.2031 147.726 36.108 147.817C37.013 147.862 38.3252 147.907 39.0039 147.953ZM60.8136 148.27C61.1303 148.405 61.4018 149.31 61.447 150.351C61.4923 151.483 62.0353 153.022 62.7592 154.244C63.4832 155.33 64.2524 156.642 64.5239 157.095C64.7954 157.548 65.7456 158.679 66.6506 159.539C67.6008 160.444 68.3248 161.349 68.3248 161.53C68.3248 162.3 55.0218 167.459 53.1666 167.459C52.0354 167.459 47.6463 163.477 45.5197 160.535C42.85 156.869 41.4021 152.66 41.5831 149.039L41.6283 147.998L50.9495 148.043C56.0625 148.043 60.4968 148.134 60.8136 148.27ZM91.6728 151.121C92.6683 151.8 94.252 152.75 95.2022 153.203C96.1524 153.655 97.0121 154.289 97.1478 154.606C97.6003 155.783 86.0168 168.817 84.5236 168.817C84.0711 168.817 83.3472 168.636 82.8947 168.41C82.4874 168.184 80.8133 167.369 79.1843 166.599C75.5645 164.925 71.7184 162.39 71.7636 161.802C71.8089 161.53 73.5735 160.308 75.7002 159.041C77.8269 157.774 81.6277 155.194 84.1616 153.293C86.6955 151.392 89.0484 149.808 89.3199 149.808C89.6367 149.808 90.7226 150.397 91.6728 151.121ZM216.286 151.166C219.408 151.166 222.169 151.347 222.485 151.528C223.3 152.026 222.123 156.778 220.313 160.127C218.82 162.933 213.028 169.179 211.445 169.768C211.038 169.903 209.228 169.587 207.508 169.043C204.205 168.002 194.567 163.658 194.567 163.205C194.567 163.024 195.744 161.711 197.237 160.218C199.771 157.593 201.083 155.511 202.305 152.162L202.848 150.668L206.739 150.895C208.866 151.03 213.164 151.121 216.286 151.166ZM177.418 153.293C178.685 154.515 180.223 155.783 180.766 156.145C186.423 159.992 190.088 162.436 190.54 162.571C191.807 162.979 190.314 164.246 185.925 166.418C183.346 167.686 180.45 168.998 179.5 169.315C177.735 169.949 177.735 169.949 176.106 168.093C173.663 165.423 170.857 162.028 170.405 161.168C170.178 160.761 169.183 159.449 168.233 158.272C167.283 157.05 166.513 155.828 166.513 155.556C166.513 154.968 173.074 151.347 174.296 151.211C174.703 151.211 176.106 152.117 177.418 153.293ZM228.865 151.619C229.951 151.619 230.313 151.8 230.313 152.388C230.313 152.841 230.856 154.606 231.49 156.371C232.123 158.091 232.757 160.037 232.892 160.671C233.073 161.304 233.435 162.209 233.752 162.707C234.069 163.205 234.431 164.11 234.567 164.744C234.657 165.377 235.381 167.64 236.105 169.858L237.417 173.796L236.376 174.067C233.978 174.656 214.612 171.85 213.481 170.718C213.3 170.537 214.748 168.727 216.694 166.735C221.128 162.209 223.933 157.005 223.978 153.339C223.978 151.936 225.11 151.076 226.467 151.392C226.965 151.528 228.051 151.619 228.865 151.619ZM102.713 156.461C103.573 156.823 106.921 157.683 110.134 158.408C113.301 159.132 116.062 159.856 116.197 159.992C116.333 160.127 116.197 160.897 115.881 161.711C115.292 163.25 114.433 166.011 113.528 169.27C113.211 170.401 112.577 172.212 112.08 173.298L111.175 175.289L108.188 175.018C105.066 174.746 95.7451 172.709 90.2701 171.08C88.5507 170.582 87.0575 170.175 87.0123 170.175C86.9218 170.175 86.8765 169.903 86.8765 169.587C86.8765 169.27 88.053 167.776 89.5009 166.283C90.9036 164.789 92.5778 162.979 93.166 162.255C99.2293 154.877 99.0935 154.968 102.713 156.461ZM165.337 156.688C165.608 157.005 166.559 158.272 167.418 159.539C168.278 160.761 170.586 163.612 172.531 165.875C174.432 168.093 175.97 170.13 175.88 170.356C175.563 171.261 163.346 174.158 154.387 175.47C151.536 175.878 151.491 175.878 151.038 174.746C150.36 172.89 147.871 163.341 147.645 161.53L147.464 159.901L150.767 159.358C154.613 158.679 162.441 156.778 162.803 156.416C163.255 155.964 164.749 156.145 165.337 156.688ZM133.03 160.897C134.885 160.897 138.55 160.806 141.174 160.671L145.88 160.444L146.242 161.576C146.423 162.209 146.876 164.02 147.238 165.649C147.645 167.278 148.278 169.722 148.686 171.08C150.088 175.923 150.088 175.878 147.871 176.24C144.523 176.828 124.93 176.873 119.003 176.33L113.347 175.832L113.482 174.022C113.573 173.026 113.799 172.031 113.98 171.759C114.387 171.261 115.157 168.908 116.74 163.477L117.691 160.127L123.663 160.535C126.966 160.716 131.174 160.897 133.03 160.897ZM73.3473 164.744C75.293 166.011 78.4151 167.731 80.3155 168.591C82.4422 169.541 83.6639 170.356 83.4829 170.673C82.4874 172.257 74.026 179.227 73.1211 179.227C71.3111 179.227 55.9268 170.809 55.0218 169.315C54.705 168.862 58.1439 167.052 59.4109 166.962C59.7276 166.962 62.0805 165.966 64.7049 164.744C67.3293 163.567 69.5465 162.526 69.637 162.526C69.7274 162.481 71.4016 163.522 73.3473 164.744ZM203.526 168.862C206.196 169.903 208.549 170.899 208.73 171.08C209.182 171.487 204.069 174.565 199.499 176.647C189.409 181.309 189.68 181.218 188.323 180.313C186.558 179.136 179.635 171.985 179.635 171.352C179.635 171.035 180.585 170.401 181.807 169.949C184.115 169.043 187.735 167.143 190.902 165.106L192.938 163.839L195.789 165.423C197.373 166.283 200.857 167.867 203.526 168.862ZM54.0263 170.492C55.8363 171.668 56.4245 172.031 61.3113 175.063C62.5782 175.832 65.3836 177.326 67.5555 178.322C69.7274 179.363 71.4921 180.358 71.4921 180.585C71.4921 180.947 67.5555 183.843 61.99 187.645C57.4199 190.723 45.8817 196.018 36.651 199.277L30.09 201.539L21.8549 201.766C14.6604 201.902 13.5292 201.856 13.303 201.223C13.0315 200.589 13.8007 197.964 15.2034 194.751C15.5654 193.981 15.8369 193.121 15.8369 192.895C15.8369 192.623 16.2441 191.718 16.6966 190.904C17.1943 190.089 17.8278 188.505 18.1445 187.373C18.4613 186.242 18.8685 185.11 19.0495 184.884C19.2305 184.613 20.1354 182.485 21.0404 180.132C21.9906 177.778 22.9861 175.199 23.3481 174.429L23.9363 173.026L30.7688 172.709C37.8275 172.393 42.7595 171.714 48.1893 170.265C49.954 169.768 51.5377 169.36 51.7639 169.315C52.0354 169.315 53.0309 169.813 54.0263 170.492ZM87.872 171.487C92.08 173.207 99.4555 175.108 106.514 176.285C108.46 176.647 110.225 177.054 110.406 177.281C110.632 177.462 110.27 178.638 109.727 179.906C109.139 181.128 108.143 183.3 107.51 184.748C106.876 186.151 106.197 187.419 105.971 187.554C105.383 187.916 97.9623 186.694 92.08 185.246C87.1932 184.069 77.0124 180.947 75.7002 180.222C75.2025 179.906 75.655 179.317 77.6911 177.597C79.1391 176.421 81.311 174.429 82.5327 173.253C84.8403 171.035 85.8811 170.718 87.872 171.487ZM181.264 175.515C183.3 177.416 185.518 179.498 186.242 180.087C187.373 181.037 187.463 181.173 186.784 181.671C186.061 182.169 177.69 184.386 169.454 186.242C166.921 186.83 157.328 188.279 156.106 188.279C155.563 188.279 152.034 178.819 152.034 177.416C152.034 177.145 152.667 176.964 153.437 176.964C156.423 176.964 173.301 173.388 175.11 172.393C176.604 171.578 177.735 172.121 181.264 175.515ZM125.79 178.276C129.908 178.412 137.011 178.322 141.627 178.05C146.242 177.778 150.133 177.597 150.269 177.688C150.45 177.778 150.993 179.136 151.581 180.675C152.124 182.259 152.939 184.341 153.437 185.382C154.387 187.419 154.477 188.098 153.934 188.46C152.984 189.048 140.903 189.727 131.672 189.682C121.627 189.682 108.867 188.731 108.098 187.962C107.826 187.69 108.234 186.332 109.003 184.613C109.682 183.029 110.722 180.72 111.265 179.498L112.215 177.281L115.292 177.643C116.967 177.824 121.672 178.095 125.79 178.276ZM76.8314 182.123C81.4467 184.069 91.6276 186.74 101.039 188.55C104.071 189.138 104.976 189.455 104.976 190.044C104.931 190.451 104.161 192.216 103.256 194.026C102.351 195.792 100.858 198.643 99.9985 200.317L98.46 203.35L77.3744 202.988C65.7909 202.807 55.2028 202.58 53.8453 202.535C52.4879 202.49 47.6916 202.399 43.1668 202.354C35.7461 202.218 32.4882 201.811 34.3886 201.268C39.0039 199.91 47.3296 196.516 53.1214 193.664C60.5421 189.998 63.8452 188.052 69.8632 183.662C71.8541 182.214 73.6188 181.037 73.845 181.037C74.0713 181.037 75.3835 181.535 76.8314 182.123ZM192.395 185.201C194.205 186.468 196.83 188.369 198.187 189.365C201.581 191.899 203.164 192.895 204.748 193.71C205.517 194.072 206.377 194.524 206.694 194.796C207.78 195.565 221.037 201.675 224.974 203.214C227.146 204.074 228.775 204.934 228.639 205.16C228.503 205.341 224.702 205.432 220.178 205.296C215.698 205.16 204.477 204.934 195.246 204.753C186.061 204.617 175.653 204.436 172.169 204.346C168.685 204.255 165.156 204.165 164.387 204.165C163.12 204.119 162.758 203.848 161.898 202.218C159.681 197.919 156.513 190.496 156.785 190.089C156.921 189.817 157.599 189.636 158.278 189.636C161.762 189.636 183.572 184.794 185.97 183.481C187.87 182.44 189.002 182.757 192.395 185.201ZM114.93 190.496C121.582 191.311 134.116 191.537 142.984 190.994C147.826 190.677 152.532 190.406 153.391 190.36C154.839 190.315 155.066 190.496 155.97 192.352C158.459 197.511 160.586 202.173 160.857 203.169L161.174 204.21L139.093 203.938C112.668 203.576 100.36 203.259 100.044 202.943C99.908 202.807 100.179 202.037 100.632 201.268C101.084 200.453 102.487 197.783 103.754 195.294C106.786 189.229 106.559 189.501 109.274 189.817C110.496 189.998 113.075 190.315 114.93 190.496Z" fill="#F5F5F5"/>
</g>
</svg>
