<svg width="21" height="266" viewBox="0 0 21 266" fill="none" xmlns="http://www.w3.org/2000/svg">
<path d="M0 35.5572C0 30.2797 6.8516 28.2167 9.76559 32.6168C10.3431 33.4887 10.651 34.5114 10.651 35.5573V149.322C10.651 213.613 10.3048 265.016 9.8788 265.422C9.45276 265.828 7.05628 262.85 4.5533 258.815L1.50309 253.9C0.520599 252.317 0 250.491 0 248.627V35.5572ZM15.9765 145.233C15.9765 144.007 16.97 143.014 18.1955 143.014C19.4209 143.014 20.4144 144.007 20.4144 145.233V249.097C20.4144 250.322 19.4209 251.316 18.1955 251.316C16.97 251.316 15.9765 250.322 15.9765 249.097V145.233ZM5.3255 2.89813C10.3581 10.4928 10.651 11.2915 10.651 17.4106C10.651 20.971 10.3403 23.8816 9.95868 23.8816C9.56814 23.8816 7.17167 20.6597 4.63318 16.7337C0.195267 9.87007 0 9.27441 0 2.22125C0 0.0237122 2.85298 -0.835327 4.06635 0.996857L5.3255 2.89813ZM18.1955 95.6316C20.0683 95.6316 20.4144 96.2679 20.4144 99.6929C20.4144 103.118 20.0683 103.754 18.1955 103.754C16.3227 103.754 15.9765 103.118 15.9765 99.6929C15.9765 96.2679 16.3227 95.6316 18.1955 95.6316ZM18.1955 126.768C20.0683 126.768 20.4144 127.405 20.4144 130.83C20.4144 134.255 20.0683 134.891 18.1955 134.891C16.3227 134.891 15.9765 134.255 15.9765 130.83C15.9765 127.405 16.3227 126.768 18.1955 126.768ZM18.1955 111.877C19.9706 111.877 20.4144 112.554 20.4144 115.261C20.4144 117.969 19.9706 118.646 18.1955 118.646C16.4203 118.646 15.9765 117.969 15.9765 115.261C15.9765 112.554 16.4203 111.877 18.1955 111.877Z" fill="#211E1B"/>
</svg>
