<svg width="212" height="250" viewBox="0 0 212 250" fill="none" xmlns="http://www.w3.org/2000/svg">
<path d="M171.783 171.072C169.388 173.485 163.422 178.374 162.003 179.086C161.58 179.297 160.19 180.199 158.911 181.087C156.423 182.815 149.133 186.301 144.814 187.83C143.364 188.343 140.447 189.185 138.33 189.699C136.209 190.211 133.722 190.827 132.799 191.058C128.349 192.19 111.386 192.823 110.151 191.906C109.967 191.769 109.674 191.728 109.495 191.815C109.083 192.02 103.658 191.376 100.688 190.77C99.4163 190.513 96.5666 189.634 94.3508 188.819C90.9907 187.585 89.7582 186.927 86.887 184.838L86.3552 184.452C84.7373 183.278 84.4308 181.09 85.6649 179.525L87.0358 177.785C87.4905 177.209 87.3191 176.396 86.6676 176.039C85.9943 175.673 85.022 175.214 84.5023 175.014C83.6553 174.695 83.6379 174.558 84.3446 173.722C85.4281 172.441 86.6128 172.084 88.3153 172.527C89.1073 172.733 90.5682 172.982 91.5531 173.079C92.5404 173.172 94.2164 173.338 95.2797 173.44C97.5347 173.663 97.8365 173.056 95.9527 172.092C93.8794 171.03 94.8039 170.685 98.4382 171.169C100.219 171.407 101.661 171.495 101.636 171.367C101.614 171.235 100.332 170.656 98.7842 170.07C97.237 169.489 95.9562 168.915 95.9347 168.789C95.9002 168.587 99.2613 168.954 106.678 169.969C111.233 170.591 117.94 170.659 122.098 170.123C125.564 169.675 135.588 167.35 135.223 167.079C135.134 167.013 136.214 166.511 137.618 165.96C146.436 162.52 155.666 154.426 160.599 145.82C161.814 143.7 162.997 141.466 163.229 140.85C163.46 140.235 164.001 138.827 164.426 137.72C164.854 136.61 165.608 133.398 166.096 130.581C167.461 122.759 166.787 115.135 163.964 106.479C162.129 100.859 162.082 98.7801 163.834 100.721C164.977 101.99 165.29 101.521 164.855 99.1921C164.484 97.1934 164.774 96.8835 166.104 97.8715C166.609 98.2464 166.994 98.3032 167.103 98.0166C167.275 97.557 164.073 90.9205 163.019 89.5461C162.724 89.1652 162.292 88.3236 162.056 87.6761C161.798 86.9605 162.008 86.163 162.595 85.6336L164.917 83.5368C169.302 79.5845 169.59 79.4544 171.255 80.6907C172.753 81.8028 175.637 85.4004 177.374 88.3182C178.003 89.3815 179.116 91.1722 179.838 92.3009C180.561 93.4296 181.257 94.7676 181.373 95.2739C181.496 95.7799 181.832 96.4261 182.123 96.7133C182.842 97.4193 185.115 102.482 184.852 102.793C184.735 102.931 184.938 103.263 185.303 103.534C187.22 104.957 190.253 122.037 189.646 128.003C189.548 128.98 189.504 129.912 189.544 130.075C189.73 130.8 189.179 135.203 188.454 138.813C187.049 145.776 186.625 147.151 184.216 152.615C181.695 158.343 175.935 166.889 171.783 171.072ZM178.081 158.084C179.615 155.548 181.492 152.105 182.254 150.442C183.6 147.517 186.051 140.171 186.278 138.391C186.339 137.912 186.583 136.375 186.818 134.973C187.629 130.138 187.702 123.313 186.99 118.177C186.8 116.819 186.9 116.359 187.375 116.401C187.841 116.441 187.847 116.388 187.393 116.209C186.522 115.867 185.847 112.139 186.58 111.7C186.999 111.453 186.987 111.396 186.536 111.495C186.062 111.602 185.742 111.088 185.211 109.371C184.832 108.125 184.326 107.119 184.091 107.135C183.858 107.148 183.824 107.491 184.02 107.889C184.213 108.291 184.14 108.89 183.86 109.222C183.535 109.606 183.563 109.894 183.938 110.016C184.878 110.317 186.67 121.663 185.918 122.552C185.78 122.716 185.788 123.114 185.938 123.435C186.81 125.314 184.627 140.14 183.085 142.785C182.678 143.49 182.412 144.238 182.496 144.448C183.018 145.762 176.547 157.705 172.456 162.978C167.692 169.118 155.547 179.214 152.282 179.745C151.847 179.819 151.023 180.243 150.447 180.694C148.716 182.058 145.934 183.148 145.334 182.702C144.935 182.406 144.7 182.499 144.5 183.038C144.142 183.994 139.618 185.948 138.597 185.586C138.185 185.443 137.645 185.563 137.4 185.853C136.21 187.261 123.976 189.033 115.579 189.014C111.793 189.005 104.315 188.226 104.249 187.838C104.221 187.688 103.793 187.557 103.296 187.546C102.797 187.533 101.777 187.511 101.026 187.493L100.899 187.49C100.667 187.485 100.601 187.789 100.818 187.864C103.605 188.83 113.233 190.422 114.855 190.185C115.029 190.157 116.046 190.196 117.116 190.27C118.186 190.338 121.238 190.242 123.897 190.053C133.669 189.365 142.56 186.896 151.379 182.417C153.584 181.299 155.741 180.213 156.174 180.01C157.246 179.503 165.024 173.463 168.117 170.737C170.681 168.473 175.52 162.336 178.081 158.084ZM171.308 152.597C172.383 150.76 173.338 148.743 173.431 148.115C173.523 147.487 173.831 146.703 174.108 146.374C174.651 145.732 174.503 144.896 173.879 145.082C173.669 145.146 172.77 146.493 171.881 148.077C168.805 153.56 163.691 160.07 158.003 165.733C156.258 167.469 155.576 168.347 155.825 168.532C156.358 168.927 157.078 168.627 158.237 167.525C158.798 166.987 160.014 165.923 160.926 165.159C163.721 162.832 169.199 156.201 171.308 152.597ZM151.377 150.191C148.684 152.904 147.882 153.544 144.028 156.073C140.788 158.197 135.26 160.709 131.764 161.646C124.955 163.465 120.039 164.011 113.857 163.632C108.449 163.302 102.665 162.182 102.127 161.367C101.749 160.789 101.802 160.739 102.762 160.806C103.338 160.848 105.601 161.206 107.789 161.599C112.998 162.54 119.738 162.594 125.296 161.742C127.75 161.368 130.05 161.018 130.405 160.967C130.761 160.92 132.483 160.328 134.232 159.659C135.976 158.988 137.632 158.389 137.902 158.327C138.175 158.267 140.066 157.198 142.108 155.96C144.146 154.718 146.065 153.565 146.369 153.395C147.545 152.74 149.675 150.556 153.259 146.337C158.573 140.071 160.699 135.573 162.113 127.614C163.48 119.907 162.593 111.142 159.711 103.923C158.836 101.726 157.924 99.4215 157.686 98.7962C157.446 98.1739 156.909 97.2593 156.485 96.7682C155.614 95.7491 155.87 95.0461 156.852 95.7757C157.692 96.3989 159.829 100.512 160.505 102.813C160.796 103.802 161.159 104.707 161.306 104.821C161.46 104.935 161.753 105.745 161.962 106.621C162.173 107.494 162.573 108.913 162.852 109.778C163.573 112.013 164.305 119.89 163.927 121.356C163.753 122.034 163.704 122.933 163.817 123.351C163.931 123.775 163.935 124.618 163.825 125.233C163.715 125.844 163.579 126.74 163.521 127.223C163.221 129.726 161.065 136.565 159.922 138.633C159.767 138.915 159.231 139.91 158.726 140.849C157.36 143.391 154.443 147.097 151.377 150.191ZM161.086 84.3302C160.839 84.2945 159.891 83.4187 158.977 82.3914C157.623 80.8659 157.491 80.5818 158.262 80.8724C159.221 81.2359 160.237 80.6251 159.537 80.1057C159.305 79.9335 159.618 79.7022 160.338 79.5068C160.987 79.33 161.419 79.1156 161.296 79.0244C161.176 78.9357 161.437 78.8047 161.878 78.736C163.672 78.4541 162.852 81.1251 161.018 81.5342C160.624 81.619 160.645 82.0737 161.085 82.9065C161.786 84.2385 161.783 84.4323 161.086 84.3302ZM79.2076 167.259C57.5778 191.509 48.8086 201.277 46.9328 203.207C44.0194 206.2 31.666 219.656 25.8215 226.201C14.5298 238.841 7.31685 245.888 2.71077 248.774C0.198789 250.346 -0.503608 250.159 0.340297 248.136C1.03271 246.483 1.31541 246.253 5.58246 243.913C6.78656 243.25 9.2293 241.412 11.0089 239.826C14.5754 236.645 26.8334 223.171 26.1404 223.196C25.9004 223.204 23.734 225.248 21.3316 227.741C16.123 233.14 15.5691 233.683 13.079 235.768C11.1708 237.368 10.072 237.932 10.9703 236.857C12.4608 235.061 19.2846 225.663 19.7072 224.821C20.0834 224.074 20.0479 223.866 19.5708 224.004C19.2152 224.103 18.6547 224.503 18.3249 224.893C17.3055 226.079 17.5147 224.859 18.561 223.517C26.9192 212.789 28.5278 210.847 28.4698 211.573C28.4364 212.006 28.2348 212.501 28.0227 212.673C27.3742 213.204 26.2908 215.569 26.5944 215.795C27.1471 216.205 50.1696 189.584 50.2262 188.466C50.2546 187.934 50.0918 187.975 49.5029 188.645C49.0835 189.122 48.0043 190.254 47.0973 191.156C46.1938 192.06 43.389 195.2 40.8658 198.139C38.1556 201.292 36.2419 203.28 36.1925 202.99C36.1459 202.717 38.5471 199.167 41.527 195.097C49.6441 184.005 54.9561 174.792 53.7483 173.895C53.5709 173.764 52.9033 174.724 52.2303 176.072C50.6098 179.342 49.5303 179.896 50.1324 177.154C50.9199 173.542 49.4594 169.154 45.0111 161.784C44.4377 160.833 43.3883 159.066 42.6775 157.851C41.9642 156.638 41.3151 155.593 41.2264 155.527C41.1411 155.464 40.1265 153.76 38.9754 151.746C37.8243 149.731 36.5192 147.478 36.074 146.736C35.6287 145.995 35.0985 145 34.8918 144.522C32.9794 140.07 31.7615 136.86 30.6737 133.417C29.255 128.908 27.0904 116.635 27.6086 116.022C27.7896 115.808 27.823 115.375 27.6796 115.058C27.0456 113.647 28.2903 98.8267 29.1309 97.7799C29.3075 97.5578 29.4444 96.9624 29.4352 96.4543C29.4235 95.9492 29.7303 94.6732 30.1166 93.6185C30.5004 92.5668 30.9551 91.1619 31.1186 90.4956C31.6505 88.3556 34.0797 82.7693 35.5161 80.3937C36.2796 79.1227 37.4231 77.179 38.0537 76.0718C39.2396 73.9925 46.6707 64.9401 47.972 63.992C48.3775 63.6964 49.3955 62.7813 50.233 61.9615C52.9337 59.3122 57.4797 55.7416 60.2283 54.1065C64.3294 51.6664 68.3196 49.5019 69.5148 49.067C70.106 48.8472 71.8004 48.1766 73.2817 47.5674C74.763 46.9583 76.3625 46.413 76.8443 46.3554C77.3228 46.2953 77.8229 46.1176 77.9568 45.9592C78.2543 45.6073 85.9804 43.6485 88.6305 43.2531C89.6912 43.0955 91.5296 42.8326 92.7233 42.6687C93.9171 42.5048 95.3815 42.3032 95.9843 42.2208C98.1851 41.9167 107.982 41.8247 108.357 42.1033C108.568 42.2604 108.839 42.2752 108.961 42.1315C109.474 41.5244 133.697 43.7799 138.819 44.9145C139.723 45.113 141.418 45.3741 142.592 45.4963C143.766 45.6185 144.973 45.8988 145.27 46.1192C145.57 46.3421 148.005 46.3788 150.686 46.2025C154.534 45.9471 156.143 45.614 158.34 44.6052C161.969 42.9463 162.623 42.6062 162.778 42.3054C162.846 42.1653 163.822 41.3858 164.943 40.5716C166.064 39.7519 168.546 37.5654 170.46 35.7021C174.618 31.6573 175.624 30.8481 175.854 31.3772C176.184 32.1373 170.438 38.3881 164.813 43.3921C157.438 49.9553 154.648 51.6125 149.283 52.6178C146.24 53.1891 145.868 53.3332 145.972 53.9261C146.083 54.5904 147.336 54.6381 150.117 54.0818C153.542 53.3933 155.952 52.3038 159.76 49.7176C164.046 46.8088 165.79 45.1533 173.736 36.4641C183.316 25.9804 185.364 24.4509 178.382 32.9917C175.51 36.5069 170.976 41.8904 168.302 44.9609C165.628 48.0313 163.532 50.6091 163.638 50.6877C163.952 50.9207 165.865 49.8538 166.948 48.8486C167.496 48.3387 176.701 37.8777 187.403 25.6065C204.176 6.37126 207.376 2.85596 210.598 0.102209C210.957 -0.204868 211.466 0.246305 211.161 0.601423L199.428 14.2464C191.23 23.7793 184.064 31.9401 183.504 32.379C182.887 32.866 182.63 33.2815 182.845 33.4411C183.043 33.588 183.948 33.0235 184.854 32.1879C186.555 30.6294 190.021 27.8563 192.75 25.877C196.146 23.41 194.667 25.9156 187.223 35.2592C183.133 40.3859 180.043 44.3692 168.778 59.0396C153.679 78.706 95.5714 148.908 79.2076 167.259ZM94.9158 138.582C110.33 119.785 128.614 97.7183 136.357 88.5536C142.62 81.1452 143.658 79.7726 143.242 79.4635C142.969 79.2609 142.292 79.2072 141.733 79.3364C140.938 79.5286 140.085 79.2104 137.804 77.8749C132.779 74.9312 129.285 73.631 122.659 72.239C117.433 71.142 116.174 70.9232 115.399 70.9869C115.064 71.0151 113.591 70.9768 112.127 70.9019C108.226 70.702 98.6733 71.5102 95.0345 72.3458C86.0622 74.4058 77.0524 79.7748 71.4561 86.3943C68.432 89.9778 64.857 96.4989 64.1469 99.7431C64.0481 100.195 63.7057 101.612 63.3821 102.894C62.6737 105.729 62.2567 112.404 62.631 115.035C62.779 116.095 62.7673 117.127 62.5962 117.329C62.4285 117.534 62.4432 117.813 62.6308 117.952C62.8185 118.091 63.1466 119.142 63.366 120.288C63.9519 123.392 64.6998 125.732 66.4244 129.887C68.8638 135.751 72.01 140.221 77.236 145.233C81.5368 149.362 82.4475 150.946 81.8334 153.216L81.8203 153.263C81.7307 153.59 82.1186 153.84 82.4134 153.646C82.8852 153.338 83.8359 152.325 84.5267 151.396C85.2209 150.47 89.8951 144.698 94.9158 138.582ZM79.9108 153.631C80.1379 152.272 78.5783 149.137 77.2499 148.285C76.0449 147.509 70.8508 141.671 69.1355 139.161C67.4874 136.749 65.6372 133.518 63.9569 130.112C61.7329 125.616 59.9308 114.945 60.55 109.962C61.3538 103.493 62.3158 99.5769 63.9945 95.8966C64.7281 94.2931 65.5956 92.3211 65.9193 91.5112C66.797 89.3367 76.2041 78.2952 77.3336 78.1218C77.8034 78.0457 78.2058 77.7668 78.2283 77.4971C78.2752 76.9161 85.091 73.3409 86.3012 73.256C86.7607 73.2249 87.2518 73.0644 87.3906 72.9001C87.9386 72.252 93.9975 70.5638 97.0167 70.2181C97.9459 70.1108 98.8069 69.9004 98.9343 69.7562C99.3955 69.2107 110.889 68.846 114.751 69.2504C119.247 69.7196 124.512 70.7697 126.969 71.6869C129.011 72.4442 131.796 72.9271 132.096 72.5722C132.391 72.2232 132.292 72.1636 129.772 71.1761C124.027 68.9199 117.338 67.0512 114.226 66.8364C106.661 66.3127 104.146 66.2787 100.495 66.6424C98.1162 66.8811 94.7815 67.3506 93.0842 67.6896C88.8557 68.5266 77.2747 73.0415 76.2531 74.2499C76.03 74.5138 74.9782 75.3178 73.9114 76.0343C66.0365 81.3485 58.116 91.8994 55.686 100.311C53.3476 108.405 52.922 123.031 54.8633 128.578C57.2845 135.489 61.1995 143.07 65.1463 148.478C66.4918 150.322 67.9109 152.335 68.3052 152.952C68.6996 153.57 69.661 155.067 70.446 156.28C71.997 158.682 72.0975 159.831 70.6578 158.762C69.7161 158.063 69.3174 158.206 69.4843 159.184C69.625 160.01 69.0028 160.135 67.095 159.659C65.853 159.348 64.7058 158.649 62.0771 156.601C57.2958 152.87 57.2082 153.072 60.6687 159.857C63.4127 165.236 63.4396 170.059 60.7376 173.504C59.5946 174.961 59.0503 176.4 59.5143 176.745C60.4014 177.403 66.0253 171.697 73.3206 162.739C78.4826 156.404 79.7366 154.671 79.9108 153.631ZM138.3 53.5617C136.332 53.098 134.358 52.6347 133.908 52.5352C133.463 52.4382 132.818 52.1502 132.477 51.8969C132.139 51.6461 131.621 51.4379 131.332 51.4382C131.043 51.4384 129.407 51.0213 127.699 50.5123C124.898 49.6738 121.035 48.863 117.518 48.3662C109.263 47.2063 99.9085 47.6887 92.0574 49.6836C87.5877 50.8189 83.5951 52.3228 83.5479 52.8844C83.5065 53.3932 84.6804 53.3053 87.5391 52.5778C88.6391 52.3014 89.8223 52.1631 90.157 52.2731C90.4975 52.3827 90.9092 52.3161 91.0679 52.1284C91.4101 51.7237 95.9326 50.9857 100.681 50.5586C104.957 50.1719 111.727 50.2822 116.615 50.8133C121.206 51.3148 129.954 53.2126 130.19 53.7605C130.283 53.9727 130.506 54.0764 130.682 53.9871C130.861 53.9003 132.499 54.1431 134.324 54.5336C137.53 55.2147 142.038 55.3154 141.933 54.7032C141.905 54.5392 140.268 54.0254 138.3 53.5617ZM44.3742 123.492C44.2923 123.431 44.017 123.441 43.7646 123.517C43.5122 123.592 43.4689 123.774 43.6668 123.921C43.8647 124.068 44.14 124.058 44.2764 123.897C44.4128 123.735 44.4561 123.553 44.3742 123.492ZM40.5681 97.7508C41.5481 94.9362 42.617 92.4501 42.9369 92.2294C43.2568 92.0086 43.346 91.798 43.1324 91.7682C42.9246 91.7381 43.0181 91.2203 43.3503 90.6171C43.6824 90.014 44.7381 87.9574 45.6993 86.0454C47.0961 83.2634 48.4687 81.3179 52.5431 76.3278C55.3456 72.8947 58.6735 69.1358 59.9385 67.9745C62.895 65.2526 69.2343 60.3162 69.5072 60.5189C69.6233 60.605 70.3278 60.0015 71.0751 59.1767C71.3945 58.8252 70.9871 58.3187 70.5427 58.5148L70.265 58.6373C69.0705 59.1634 67.9885 59.7206 67.8546 59.879C67.7232 60.0344 67.0471 60.4203 66.352 60.7301C64.174 61.71 59.7288 65.3125 54.6894 70.1828C52.0162 72.7667 50.4532 74.6089 48.4701 77.4998C44.5172 83.2724 42.1942 87.1235 41.9987 88.2482C41.9025 88.8022 41.5858 89.3738 41.3009 89.5203C41.0135 89.6697 40.9314 89.9048 41.119 90.0441C41.3067 90.1834 41.1435 90.8691 40.7556 91.5645C39.4021 94.0062 37.2741 103.421 37.9598 103.93C38.1475 104.069 38.4116 103.888 38.5439 103.528C38.6727 103.165 39.588 100.565 40.5681 97.7508ZM16.2835 226.848C16.363 226.563 16.589 226.315 16.7868 226.305C16.9812 226.292 16.9134 226.523 16.6394 226.821C16.3323 227.151 16.1943 227.163 16.2835 226.848Z" fill="#F27C06"/>
</svg>
