<svg width="307" height="40" viewBox="0 0 307 40" fill="none" xmlns="http://www.w3.org/2000/svg">
<path d="M0.895767 37.4253C0.895767 36.1946 1.97069 34.5487 3.76222 33.0485L6.62868 30.6452L3.31434 27.8851C1.14658 26.079 0 24.4477 0 23.1587C0 21.4109 0.340391 21.1851 2.95603 21.1851C5.16858 21.1851 6.69138 21.8333 8.96663 23.7413L12.0033 26.2902L15.2191 23.7413C21.5701 18.7017 25.7085 22.343 19.5277 27.5283L16.6613 29.9315L19.9756 32.6916C22.1434 34.4977 23.2899 36.129 23.2899 37.418C23.2899 39.1659 22.9496 39.3916 20.3339 39.3916C18.1214 39.3916 16.5986 38.7435 14.3233 36.8354L11.2867 34.2865L8.07086 36.8354C4.06678 40.0107 0.895767 40.2728 0.895767 37.4253ZM21.7313 36.9155C21.5074 35.9542 20.0204 34.1482 18.4349 32.8955L15.5416 30.6161L13.8844 32.109C12.2541 33.5728 12.281 33.6457 15.246 36.129C18.8828 39.1804 22.3673 39.6028 21.7313 36.9155ZM13.1947 31.2133C21.4357 24.5424 22.9316 22.6416 19.9487 22.6416C18.1751 22.6416 1.79153 35.6047 1.79153 37.0102C1.79153 39.3188 5.53584 37.418 13.1947 31.2133ZM8.07086 24.4696C6.39578 23.064 4.29968 21.9134 3.40391 21.9134C0.80619 21.9134 1.4601 24.8483 4.66695 27.5355L7.54236 29.9461L9.33389 28.4896L11.1254 27.033L8.07086 24.4696ZM25.0815 37.418C25.0815 36.129 26.2281 34.4977 28.3958 32.6916L31.7102 29.9315L28.8437 27.5283C25.2875 24.5424 24.8665 21.1851 28.0375 21.1851C29.2199 21.1851 31.4056 22.2775 33.1523 23.7413L36.189 26.2902L39.4048 23.7413C41.7338 21.8915 43.4178 21.1851 45.496 21.1851C48.0221 21.1851 48.3714 21.4254 48.3714 23.1587C48.3714 24.4477 47.2249 26.079 45.0571 27.8851L41.7428 30.6452L44.6092 33.0485C48.1654 36.0343 48.5864 39.3916 45.4154 39.3916C44.233 39.3916 42.0473 38.2992 40.3006 36.8354L37.2639 34.2865L34.0481 36.8354C31.7191 38.6852 30.0351 39.3916 27.9569 39.3916C25.4308 39.3916 25.0815 39.1513 25.0815 37.418ZM33.1255 36.129C36.0905 33.6457 36.1173 33.5728 34.487 32.109L32.8299 30.6161L29.847 32.9611C26.5505 35.561 25.816 38.6634 28.4854 38.6634C29.3812 38.6634 31.4593 37.52 33.1255 36.129ZM45.9708 36.5514C45.72 35.794 44.4121 34.3011 43.0506 33.2451C40.847 31.5264 40.4618 31.4463 39.4138 32.4732C38.4195 33.4417 38.6344 33.9442 40.7843 35.7795C43.7224 38.2701 46.6605 38.7071 45.9708 36.5514ZM34.9349 26.6471C30.3576 22.8747 26.873 21.5274 26.873 23.5301C26.873 24.018 29.1751 26.3121 31.9968 28.6279C36.5473 32.3639 37.2639 32.7135 38.4553 31.7449C39.6467 30.7763 39.2525 30.2083 34.9349 26.6471ZM46.5799 23.5884C46.5799 21.105 43.8747 21.4691 40.3274 24.4477C37.3625 26.9311 37.3356 27.0039 38.9659 28.4677L40.623 29.9607L43.6059 27.6157C45.281 26.2975 46.5799 24.5351 46.5799 23.5884ZM62.9277 38.8527L58.2249 38.5905V34.6215V30.6525H63.1516H68.0783V35.0221C68.0783 37.4253 67.9798 39.3334 67.8544 39.2605C67.729 39.1804 65.5164 38.9984 62.9277 38.8527ZM75.0205 38.809C70.058 38.4667 70.9358 37.2068 76.1402 37.2068C78.6036 37.2068 80.6191 37.4982 80.6191 37.855C80.6191 38.7872 78.8813 39.0785 75.0205 38.809ZM90.4725 38.6779C90.4725 38.4667 101.06 29.6912 113.995 19.1751L137.509 0.0655436H144.451C148.267 0.0655436 151.385 0.313152 151.385 0.619022C151.385 0.917609 140.994 9.61304 128.292 19.9325L105.19 38.6998L97.8357 38.8819C93.7868 38.9838 90.4725 38.8891 90.4725 38.6779ZM115.205 38.8527C115.079 38.758 125.667 29.9971 138.727 19.3717L162.474 0.0655436H169.685H176.905L152.863 19.6193L128.82 39.1731L122.12 39.1003C118.438 39.0639 115.33 38.9474 115.205 38.8527ZM139.74 38.6998C139.74 38.474 150.328 29.6912 163.263 19.1751L186.776 0.0655436H193.719C197.535 0.0655436 200.652 0.313152 200.652 0.619022C200.652 0.917609 190.27 9.57663 177.586 19.8597L154.52 38.5541L147.13 38.8382C143.063 38.9911 139.74 38.9328 139.74 38.6998ZM164.409 38.8163C164.114 38.5687 174.46 29.7495 187.412 19.2188L210.953 0.0655436H218.558H226.172L202.139 19.6121L178.114 39.1586L171.539 39.2096C167.921 39.2387 164.714 39.0639 164.409 38.8163ZM189.007 38.6707C189.007 38.4595 199.595 29.6912 212.53 19.1751L236.044 0.0655436H242.986C246.802 0.0655436 249.919 0.313152 249.91 0.611739C249.901 0.910326 239.322 9.68587 226.396 20.1146L202.891 39.0639L195.949 39.0566C192.133 39.0494 189.007 38.8746 189.007 38.6707ZM224.184 19.4955L245.879 1.8862L241.472 1.66043L237.056 1.43467L215.325 19.0877C203.366 28.8027 193.763 36.9811 193.978 37.2724C194.202 37.5564 196.2 37.6365 198.43 37.4472C202.363 37.1122 203.133 36.5733 224.184 19.4955ZM213.605 38.7508C213.408 38.5978 223.996 29.8296 237.128 19.2698L260.991 0.0655436L268.22 0.0728264H275.448L251.263 19.6922L227.077 39.3115L220.511 39.1731C216.901 39.093 213.793 38.9037 213.605 38.7508ZM248.128 20.0927C259.952 10.487 269.626 2.37413 269.626 2.07554C269.626 1.76967 267.781 1.52207 265.523 1.52207H261.412L239.994 18.8838C228.206 28.4313 218.567 36.5514 218.567 36.9374C218.567 37.3234 220.386 37.6147 222.598 37.5928L226.629 37.5564L248.128 20.0927ZM238.274 38.6561C238.274 37.9205 280.859 3.70685 281.773 3.70685C282.946 3.70685 288.437 8.25848 288.437 9.22707C288.437 9.62033 280.456 16.4077 270.692 24.3021C251.182 40.098 254.022 38.6488 242.081 38.9328C239.985 38.9838 238.274 38.86 238.274 38.6561ZM262.899 38.7726C262.406 38.3793 293.382 13.1742 294.358 13.1742C294.842 13.1742 296.723 14.4123 298.541 15.9271L301.847 18.6799L289.458 28.7299L277.079 38.7799L270.137 38.9037C266.321 38.9692 263.06 38.911 262.899 38.7726ZM287.541 38.6925C287.541 38.4595 291.787 34.84 296.974 30.6379L306.406 23.0058L306.155 30.9292L305.905 38.8527L296.723 38.9838C291.671 39.0566 287.541 38.9255 287.541 38.6925ZM304.373 31.9998L304.633 26.6471L298.326 31.723C294.86 34.5196 292.02 36.9738 292.02 37.185C292.02 37.3962 294.743 37.52 298.067 37.4617L304.113 37.3525L304.373 31.9998ZM79.992 32.83L76.2298 29.9388L94.7184 15.0022L113.207 0.0655436H120.418H127.629L105.701 17.9079C93.6346 27.7176 83.7632 35.743 83.7632 35.7285C83.7542 35.7212 82.0612 34.4176 79.992 32.83ZM121.824 2.07554C121.824 1.76967 120.096 1.52207 117.982 1.52207C114.192 1.52207 113.942 1.68957 97.1549 15.3809C87.8121 23.0058 80.001 29.3999 79.795 29.5892C79.5889 29.7786 80.3772 30.7617 81.5507 31.774L83.6736 33.6165L102.753 18.1191C113.243 9.59848 121.824 2.38141 121.824 2.07554ZM67.1646 23.4136L63.1516 20.5224L75.7371 10.2612L88.3227 0L95.6769 0.218478L103.04 0.429674L87.1044 13.3636L71.1777 26.2975L67.1646 23.4136ZM0.895767 15.7232C0.895767 14.689 2.18567 12.7373 3.9145 11.1715L6.9422 8.44054L3.93242 6.25576C1.9259 4.79196 0.922641 3.40826 0.913683 2.06826C0.88681 -0.815652 4.04887 -0.575326 8.06191 2.61446L11.2777 5.17065L14.3771 2.63631C18.1035 -0.407825 22.3942 -0.924891 22.3942 1.675C22.3942 2.5562 20.8983 4.5225 19.0798 6.04456L15.7565 8.80467L19.0798 11.5648C23.1914 14.9876 23.5318 17.5438 19.886 17.5438C18.1841 17.5438 16.3836 16.7136 14.3233 14.9876L11.2867 12.4387L8.07086 14.9876C4.17428 18.0827 0.895767 18.4177 0.895767 15.7232ZM7.16614 14.2666C8.84122 12.8684 10.6507 11.7177 11.1971 11.7177C11.7435 11.7177 13.7321 12.8684 15.6132 14.2666C21.4805 18.6362 24.0603 16.9321 18.3632 12.446C16.6434 11.0841 15.228 9.44554 15.228 8.80467C15.228 8.1638 16.6434 6.52522 18.3632 5.16337C20.0831 3.80152 21.4984 2.26489 21.4984 1.74054C21.4984 -0.0364128 18.3184 0.786522 15.3535 3.34272C13.7232 4.74098 11.9047 5.89163 11.2956 5.89163C10.6955 5.89163 8.84122 4.74098 7.16614 3.34272C5.49105 1.93717 3.60098 0.793804 2.95603 0.793804C0.761401 0.793804 1.79153 3.35 4.92672 5.695C6.64659 6.97674 8.06191 8.30217 8.06191 8.63717C8.06191 8.97217 6.64659 10.3559 4.92672 11.7177C1.78258 14.1938 0.770359 16.8155 2.95603 16.8155C3.60098 16.8155 5.49105 15.6649 7.16614 14.2666ZM25.9773 15.8033C25.9773 14.842 27.1865 13.0067 28.6646 11.7177C30.1426 10.4287 31.3519 9.14696 31.3519 8.86294C31.3519 8.57891 30.1426 7.40641 28.6646 6.25576C25.2338 3.58304 24.8844 0.0655436 28.0465 0.0655436C29.1931 0.0655436 31.2802 1.0487 32.6955 2.25033C35.9203 4.98859 37.2281 4.98859 40.4439 2.25033C41.9577 0.968587 43.9284 0.0655436 45.2452 0.0655436C48.6043 0.0655436 48.1206 2.74554 44.1703 6.03L40.8739 8.77554L44.1703 11.4628C46.0962 13.0213 47.4757 14.8565 47.4757 15.847C47.4757 18.5342 43.2566 18.0754 39.4585 14.973L36.3592 12.4387L33.1434 14.9949C29.3005 18.039 25.9773 18.4177 25.9773 15.8033ZM58.2249 8.07641V0.0655436H68.2843H78.3528L68.5262 8.07641C63.1247 12.4824 58.5921 16.0873 58.4667 16.0873C58.3324 16.0873 58.2249 12.4824 58.2249 8.07641ZM296.499 4.07098V0.0655436H301.426H306.352V4.07098V8.07641H301.426H296.499V4.07098ZM304.561 4.02728C304.561 1.53663 304.444 1.44196 301.65 1.66043C299.088 1.85707 298.703 2.17022 298.461 4.25304C298.192 6.52522 298.308 6.61989 301.372 6.61989C304.427 6.61989 304.561 6.51065 304.561 4.02728ZM283.062 0.793804C283.062 0.393261 285.078 0.0655436 287.541 0.0655436C290.005 0.0655436 292.02 0.393261 292.02 0.793804C292.02 1.19435 290.005 1.52207 287.541 1.52207C285.078 1.52207 283.062 1.19435 283.062 0.793804Z" fill="#211E1B"/>
</svg>
