<svg width="184" height="445" viewBox="0 0 184 445" fill="none" xmlns="http://www.w3.org/2000/svg">
<g filter="url(#filter0_dd_1_904)">
<path d="M6.84594 17.1464L16.2496 35.8735L25.5664 54.4296L34.8011 72.8144L43.9487 91.0373L42.0651 94.1508" stroke="#F27C06" stroke-width="1.08501" stroke-linecap="round" stroke-linejoin="round"/>
<path d="M20.8052 12.0102L28.9531 31.2046L36.9899 50.1307L44.9157 68.8024L52.7352 87.215L54.7396 91.9476" stroke="#F27C06" stroke-width="1.08501" stroke-linecap="round" stroke-linejoin="round"/>
<path d="M45.3108 6.41666L50.952 26.0459L56.4967 45.3329L61.9496 64.2868L67.3058 82.9168L69.1798 89.4398" stroke="#F27C06" stroke-width="1.08501" stroke-linecap="round" stroke-linejoin="round"/>
<path d="M77.251 0.543145L79.4437 20.5055L81.1824 36.3505L81.593 40.0839L83.1096 53.8841L83.7036 59.283L85.0511 71.5611L85.7708 78.1165L86.6788 86.3929" stroke="#F27C06" stroke-width="1.08501" stroke-linecap="round" stroke-linejoin="round"/>
<path d="M41.7563 94.2015L32.6087 76.3904L23.2919 58.2554L13.9365 40.0417L4.54248 21.7494L6.84632 17.1463L20.8046 12.0111L45.3112 6.41795L77.2509 0.542574" stroke="#F27C06" stroke-width="1.08501" stroke-linecap="round" stroke-linejoin="round"/>
<path d="M161.329 49.0388L155.471 66.9888L153.761 72.2211" stroke="#F27C06" stroke-width="1.08501" stroke-linecap="round" stroke-linejoin="round"/>
<path d="M96.8022 84.6264L97.0727 103.238L97.3383 121.54L97.604 139.536L97.86 157.236L98.0338 169.037" stroke="#F27C06" stroke-width="1.08501" stroke-linecap="round" stroke-linejoin="round"/>
<path d="M165.71 162.097L159.827 179.603L150.191 187.176L145.309 204.45L130.138 211.552L110.466 217.862L89.0312 223.043L68.9778 226.943L53.0924 229.599L43.4569 231.26L41.1047 232.291" stroke="#F27C06" stroke-width="1.08501" stroke-linecap="round" stroke-linejoin="round"/>
<path d="M159.826 179.603L153.987 196.984L148.809 201.439L145.308 204.45L140.483 221.549L127.012 228.484L123.926 245.199L120.105 246.698" stroke="#F27C06" stroke-width="1.08501" stroke-linecap="round" stroke-linejoin="round"/>
<path d="M165.081 130.216L159.798 147.703L158.281 152.737" stroke="#F27C06" stroke-width="1.08501" stroke-linecap="round" stroke-linejoin="round"/>
<path d="M139.913 44.5066L136.073 62.2299L132.799 77.3578" stroke="#F27C06" stroke-width="1.08501" stroke-linecap="round" stroke-linejoin="round"/>
<path d="M139.754 159.446L136.508 177.035L133.301 194.407L130.137 211.552L127.013 228.484L109.538 234.642L90.4652 239.712L72.5561 243.556L58.2743 246.207L49.5226 247.905L47.2671 249.006" stroke="#F27C06" stroke-width="1.08501" stroke-linecap="round" stroke-linejoin="round"/>
<path d="M113.248 40.4529L111.876 58.0096L110.49 75.6959L109.992 82.057" stroke="#F27C06" stroke-width="1.08501" stroke-linecap="round" stroke-linejoin="round"/>
<path d="M84.2402 36.7332L85.5443 54.2159L86.8628 71.8327L87.9351 86.1742" stroke="#F27C06" stroke-width="1.08501" stroke-linecap="round" stroke-linejoin="round"/>
<path d="M113.315 166.093L112.349 183.594L111.403 200.85L110.466 217.861L109.538 234.641L108.727 249.412" stroke="#F27C06" stroke-width="1.08501" stroke-linecap="round" stroke-linejoin="round"/>
<path d="M170.724 219.882L165.947 236.726L160.281 245.47L146.328 253.954L125.743 261.546L101.391 267.718L76.7977 272.136L55.5802 274.773L40.627 275.86L33.73 275.897" stroke="#F27C06" stroke-width="1.08501" stroke-linecap="round" stroke-linejoin="round"/>
<path d="M167.463 211.448L162.947 228.311L162.522 229.893" stroke="#F27C06" stroke-width="1.08501" stroke-linecap="round" stroke-linejoin="round"/>
<path d="M165.946 236.725L161.194 253.482L156.465 270.15L151.655 278.649L147.82 293.402L147.395 295.049L136.682 303.048L120.903 310.191L102.192 316.006L83.1726 320.216L66.5869 322.807L54.6717 323.982L48.9387 324.19" stroke="#F27C06" stroke-width="1.08501" stroke-linecap="round" stroke-linejoin="round"/>
<path d="M155.707 203.848L152.046 220.697L148.381 237.55L148.352 237.694" stroke="#F27C06" stroke-width="1.08501" stroke-linecap="round" stroke-linejoin="round"/>
<path d="M127.395 244.954L125.743 261.549L124.11 277.954L122.497 294.164L120.903 310.194L119.329 326.039L119.14 327.936" stroke="#F27C06" stroke-width="1.08501" stroke-linecap="round" stroke-linejoin="round"/>
<path d="M161.85 283.301L158.561 299.512L163.98 306.553" stroke="#F27C06" stroke-width="1.08501" stroke-linecap="round" stroke-linejoin="round"/>
<path d="M101.12 251.228L101.391 267.716L101.661 284.01L101.927 300.104L102.192 316.005L102.453 331.72L102.709 347.251L102.965 362.596" stroke="#F27C06" stroke-width="1.08501" stroke-linecap="round" stroke-linejoin="round"/>
<path d="M168.216 302.415L164.511 318.486L160.826 334.461L151.915 344.084L148.862 359.785L145.829 375.366L142.825 390.823L139.845 406.154L128.311 414.13L113.165 420.764" stroke="#F27C06" stroke-width="1.08501" stroke-linecap="round" stroke-linejoin="round"/>
<path d="M160.827 334.459L157.161 350.336L153.519 366.125L149.902 381.818L146.304 397.417L139.846 406.152L136.885 421.368L126.434 429.084" stroke="#F27C06" stroke-width="1.08501" stroke-linecap="round" stroke-linejoin="round"/>
<path d="M158.098 312.3L154.992 328.256L137.996 337.194L115.711 344.569" stroke="#F27C06" stroke-width="1.08501" stroke-linecap="round" stroke-linejoin="round"/>
<path d="M68.3933 370.995L63.8532 355.441L59.2794 339.772L54.6717 323.982L50.0254 308.063L45.3453 292.024L40.6265 275.86L35.8691 259.561" stroke="#F27C06" stroke-width="1.08501" stroke-linecap="round" stroke-linejoin="round"/>
<path d="M146.303 397.423L142.724 412.93L136.885 421.373" stroke="#F27C06" stroke-width="1.08501" stroke-linecap="round" stroke-linejoin="round"/>
<path d="M77.2657 369.432L73.74 354.045L70.1804 338.501L66.587 322.808L62.9549 306.954L59.2842 290.943L55.5798 274.774L51.8367 258.438" stroke="#F27C06" stroke-width="1.08501" stroke-linecap="round" stroke-linejoin="round"/>
<path d="M89.3347 366.69L87.3013 351.372L85.2486 335.883L83.1718 320.219L81.0708 304.379L78.9457 288.348L76.7964 272.138L74.6182 255.738" stroke="#F27C06" stroke-width="1.08501" stroke-linecap="round" stroke-linejoin="round"/>
<path d="M158.561 299.511L155.731 313.483" stroke="#F27C06" stroke-width="1.08501" stroke-linecap="round" stroke-linejoin="round"/>
<path d="M151.433 125.187L165.082 130.215L173.201 137.053" stroke="#F27C06" stroke-width="1.08501" stroke-linecap="round" stroke-linejoin="round"/>
<path d="M115.784 342.431L102.709 347.252L87.302 351.369L73.7398 354.043L63.8531 355.44L58.9412 355.963" stroke="#F27C06" stroke-width="1.08501" stroke-linecap="round" stroke-linejoin="round"/>
<path d="M164.513 318.487L154.993 328.253L151.916 344.084L136.021 352.874L115.195 360.123" stroke="#F27C06" stroke-width="1.08501" stroke-linecap="round" stroke-linejoin="round"/>
<path d="M91.6 252.846L90.465 239.707L89.0305 223.039L87.5768 206.139L86.0988 189.003L84.6016 171.623" stroke="#F27C06" stroke-width="1.08501" stroke-linecap="round" stroke-linejoin="round"/>
<path d="M174.872 54.1376L170.032 66.3695" stroke="#F27C06" stroke-width="1.08501" stroke-linecap="round" stroke-linejoin="round"/>
<path d="M115.277 357.579L104.439 361.997L104.26 362.071L104.231 362.085L102.966 362.598L90.046 366.475L89.336 366.688L77.9763 369.269L77.2662 369.431L69.0797 370.874L68.3938 370.995L64.1967 371.675L63.9021 371.721" stroke="#F27C06" stroke-width="1.08501" stroke-linecap="round" stroke-linejoin="round"/>
<path d="M75.1598 255.647L72.5565 243.558L68.9777 226.945L65.3553 210.129L61.6846 193.095L57.9705 175.839" stroke="#F27C06" stroke-width="1.08501" stroke-linecap="round" stroke-linejoin="round"/>
<path d="M157.161 350.341L148.863 359.788L134.069 368.407L114.677 375.522" stroke="#F27C06" stroke-width="1.08501" stroke-linecap="round" stroke-linejoin="round"/>
<path d="M153.519 366.127L145.83 375.365L132.133 383.79L114.171 390.752" stroke="#F27C06" stroke-width="1.08501" stroke-linecap="round" stroke-linejoin="round"/>
<path d="M169.371 292.517L166.733 303.866" stroke="#F27C06" stroke-width="1.08501" stroke-linecap="round" stroke-linejoin="round"/>
<path d="M61.7276 257.26L58.2743 246.203L53.0919 229.595L47.8515 212.816L42.558 195.865L37.2065 178.734" stroke="#F27C06" stroke-width="1.08501" stroke-linecap="round" stroke-linejoin="round"/>
<path d="M149.902 381.823L142.826 390.826L130.215 399.038L113.668 405.838" stroke="#F27C06" stroke-width="1.08501" stroke-linecap="round" stroke-linejoin="round"/>
<path d="M53.2956 258.26L49.5235 247.902L43.4572 231.257L37.3523 214.482L31.1991 197.591L24.9976 180.571" stroke="#F27C06" stroke-width="1.08501" stroke-linecap="round" stroke-linejoin="round"/>
<path d="M115.016 365.377L104.438 362.125L104.231 362.083" stroke="#F27C06" stroke-width="1.08501" stroke-linecap="round" stroke-linejoin="round"/>
<path d="M80.7145 172.241L78.8888 161.97L75.7688 144.4L72.5956 126.547L69.3789 108.407L66.1042 89.9762" stroke="#F27C06" stroke-width="1.08501" stroke-linecap="round" stroke-linejoin="round"/>
<path d="M50.7687 258.51L47.2671 249.003L41.1042 232.288L34.922 215.5L28.706 198.646L22.4707 181.719" stroke="#F27C06" stroke-width="1.08501" stroke-linecap="round" stroke-linejoin="round"/>
<path d="M158.561 299.51L149.583 294.407" stroke="#F27C06" stroke-width="1.08501" stroke-linecap="round" stroke-linejoin="round"/>
<path d="M161.193 253.486L155.953 262.127L151.654 278.652L139.865 286.85L122.497 294.164L101.926 300.109L81.071 304.379L62.9543 306.956L50.0248 308.066L43.8958 308.182" stroke="#F27C06" stroke-width="1.08501" stroke-linecap="round" stroke-linejoin="round"/>
<path d="M114.466 381.885L104.623 378.591L90.9348 375.413L78.7443 373.475L69.4903 372.485L64.3127 372.054L63.9022 371.721L58.942 355.964L53.9527 340.119L48.9394 324.191L43.897 308.179L38.8257 292.08L33.7302 275.897L28.6057 259.627" stroke="#F27C06" stroke-width="1.08501" stroke-linecap="round" stroke-linejoin="round"/>
<path d="M153.47 314.608L145.255 309.658" stroke="#F27C06" stroke-width="1.08501" stroke-linecap="round" stroke-linejoin="round"/>
<path d="M43.9487 91.0375L52.7342 87.2162L67.3058 82.9183L85.7703 78.1163" stroke="#F27C06" stroke-width="1.08501" stroke-linecap="round" stroke-linejoin="round"/>
<path d="M65.2194 174.694L62.4374 165.848L56.9362 148.375L51.3625 130.661L45.7165 112.706L39.9883 94.5111" stroke="#F27C06" stroke-width="1.08501" stroke-linecap="round" stroke-linejoin="round"/>
<path d="M90.9341 375.412L90.0454 366.475" stroke="#F27C06" stroke-width="1.08501" stroke-linecap="round" stroke-linejoin="round"/>
<path d="M153.939 279.053L161.85 283.3L169.371 292.515L168.216 302.416L166.733 303.864L163.98 306.552L158.098 312.297L155.731 313.482L153.471 314.611L142.261 320.218L142.145 320.278L140.638 321.032L139.986 321.356L137.996 337.191L136.021 352.874L134.069 368.405L132.133 383.792L130.215 399.035L128.312 414.131L126.433 429.088L112.673 435.541" stroke="#F27C06" stroke-width="1.08501" stroke-linecap="round" stroke-linejoin="round"/>
<path d="M173.2 137.053L170.389 145.284" stroke="#F27C06" stroke-width="1.08501" stroke-linecap="round" stroke-linejoin="round"/>
<path d="M129.698 161.979L136.875 157.163L143.623 139.282L148.24 132.893L151.433 125.191L155.75 114.782" stroke="#F27C06" stroke-width="1.08501" stroke-linecap="round" stroke-linejoin="round"/>
<path d="M53.7924 176.42L50.7544 168.926L43.6932 151.512L36.5596 133.923L29.3534 116.154L22.0701 98.2039" stroke="#F27C06" stroke-width="1.08501" stroke-linecap="round" stroke-linejoin="round"/>
<path d="M14.3425 101.205L22.0703 98.2076L39.989 94.5112L41.7566 94.2013L42.0658 94.1504L45.239 93.5998L54.7393 91.9483L66.1039 89.9775L69.1805 89.4408L86.679 86.3921L87.9348 86.1747L96.8024 84.6295L109.993 82.0573L126.342 78.8698L127.525 78.6385L132.799 77.357L153.582 72.2866" stroke="#F27C06" stroke-width="1.08501" stroke-linecap="round" stroke-linejoin="round"/>
<path d="M22.147 118.916L29.3531 116.159L45.7166 112.708L69.378 108.41L97.0723 103.243L124.752 97.3579L148.24 91.0107L153.581 72.2882L153.76 72.2234L161.256 69.5263L170.032 66.3712L171.307 65.9132" stroke="#F27C06" stroke-width="1.08501" stroke-linecap="round" stroke-linejoin="round"/>
<path d="M141.324 234.674L148.381 237.547L148.502 237.639" stroke="#F27C06" stroke-width="1.08501" stroke-linecap="round" stroke-linejoin="round"/>
<path d="M29.9043 136.518L36.5598 133.927L51.3632 130.661L72.5953 126.548L97.3385 121.543L122.019 115.774L142.976 109.473L157.325 102.968L163.3 96.5562L169.091 82.5941L170.897 78.2269" stroke="#F27C06" stroke-width="1.08501" stroke-linecap="round" stroke-linejoin="round"/>
<path d="M47.852 177.252L45.2679 171.395L37.6078 154.01L29.9043 136.518L22.1475 118.915L14.3425 101.206" stroke="#F27C06" stroke-width="1.08501" stroke-linecap="round" stroke-linejoin="round"/>
<path d="M47.8228 177.256L45.2678 171.395" stroke="#F27C06" stroke-width="1.08501" stroke-linecap="round" stroke-linejoin="round"/>
<path d="M37.6074 154.01L43.693 151.517L56.9364 148.375L75.768 144.401L97.6037 139.539L119.333 133.9L137.778 127.687L150.437 121.214L157.325 102.968L164.28 84.5327L171.307 65.912L178.542 59.7914" stroke="#F27C06" stroke-width="1.08501" stroke-linecap="round" stroke-linejoin="round"/>
<path d="M45.2678 171.393L50.7545 168.927L62.4379 165.846L78.8883 161.969L97.8599 157.237L116.687 151.736L132.654 145.652L137.779 127.684L142.975 109.47L148.24 91.0068L164.28 84.53L170.897 78.2244L178.542 59.7887L174.872 54.1354L161.329 49.0372L139.913 44.5035L113.248 40.4509L84.2398 36.7313L81.1825 36.3474" stroke="#F27C06" stroke-width="1.08501" stroke-linecap="round" stroke-linejoin="round"/>
<path d="M146.694 218.681L152.046 220.694L162.947 228.313L163.348 229.428" stroke="#F27C06" stroke-width="1.08501" stroke-linecap="round" stroke-linejoin="round"/>
<path d="M13.936 40.0414L16.2495 35.8731L28.952 31.2052L50.9519 26.0469L79.4431 20.5046" stroke="#F27C06" stroke-width="1.08501" stroke-linecap="round" stroke-linejoin="round"/>
<path d="M23.2922 58.2562L25.5671 54.4303L36.9897 50.1325L56.4974 45.335L81.5933 40.0842" stroke="#F27C06" stroke-width="1.08501" stroke-linecap="round" stroke-linejoin="round"/>
<path d="M78.743 373.479L77.9751 369.274" stroke="#F27C06" stroke-width="1.08501" stroke-linecap="round" stroke-linejoin="round"/>
<path d="M32.6091 76.389L34.8019 72.8129L44.9155 68.802L61.9504 64.2867L83.704 59.2811" stroke="#F27C06" stroke-width="1.08501" stroke-linecap="round" stroke-linejoin="round"/>
<path d="M152.105 202.585L155.708 203.844L167.464 211.449L170.724 219.883L164.648 228.687L163.349 229.427L162.523 229.894L149.608 237.255L148.555 237.62L148.502 237.639L148.352 237.69L139.248 240.845L134.572 242.464L127.395 244.953L123.816 245.809L120.107 246.697L108.728 249.412L101.121 251.231L91.6013 252.85L75.1605 255.644L74.6196 255.737L61.7288 257.263L53.2958 258.263L51.8373 258.438L50.7698 258.512L43.5444 259.021L40.8832 259.211L35.8698 259.563L30.6294 259.609L28.6057 259.627" stroke="#F27C06" stroke-width="1.08501" stroke-linecap="round" stroke-linejoin="round"/>
<path d="M137.784 158.117L140.875 158.986L140.938 159.014" stroke="#F27C06" stroke-width="1.08501" stroke-linecap="round" stroke-linejoin="round"/>
<path d="M43.9487 91.037L45.2383 93.6" stroke="#F27C06" stroke-width="1.08501" stroke-linecap="round" stroke-linejoin="round"/>
<path d="M22.4707 181.721L24.9967 180.574L37.2065 178.737L47.8225 177.257L47.8515 177.252L53.7922 176.424L57.97 175.836L65.2196 174.694L80.7137 172.242L84.6017 171.627L98.0335 169.04L113.315 166.094L114.605 165.77L127.867 162.434L129.698 161.976L135.619 160.482L136.943 160.153L139.754 159.446L140.865 159.043L140.951 159.011L158.281 152.737L160.102 152.076L162.662 150.387L170.389 145.285L171.635 144.461L173.2 137.054" stroke="#F27C06" stroke-width="1.08501" stroke-linecap="round" stroke-linejoin="round"/>
<path d="M43.5444 259.021L40.8156 258.952L30.5087 259.211L28.6057 259.627" stroke="#F27C06" stroke-width="1.08501" stroke-linecap="round" stroke-linejoin="round"/>
<path d="M28.7061 198.647L31.1982 197.592L42.558 195.866L61.6841 193.091L86.099 189.006L112.349 183.593L136.508 177.033L155.117 169.714L165.709 162.095L171.635 144.459" stroke="#F27C06" stroke-width="1.08501" stroke-linecap="round" stroke-linejoin="round"/>
<path d="M34.9224 215.502L37.3517 214.485L47.8518 212.819L65.3552 210.127L87.5773 206.143L111.403 200.851L133.301 194.407L150.191 187.176L155.118 169.716L160.102 152.076" stroke="#F27C06" stroke-width="1.08501" stroke-linecap="round" stroke-linejoin="round"/>
<path d="M83.1096 53.8804L85.5438 54.2135L111.876 58.007L136.074 62.2262L155.47 66.9866L161.256 69.5218" stroke="#F27C06" stroke-width="1.08501" stroke-linecap="round" stroke-linejoin="round"/>
<path d="M85.0513 71.5639L86.8625 71.8369L110.49 75.6998L126.342 78.8734" stroke="#F27C06" stroke-width="1.08501" stroke-linecap="round" stroke-linejoin="round"/>
<path d="M69.4896 372.487L69.0791 370.877" stroke="#F27C06" stroke-width="1.08501" stroke-linecap="round" stroke-linejoin="round"/>
<path d="M144.97 140.781L144.796 141.563L140.875 158.986L140.865 159.041" stroke="#F27C06" stroke-width="1.08501" stroke-linecap="round" stroke-linejoin="round"/>
<path d="M142.424 319.648L142.26 320.217" stroke="#F27C06" stroke-width="1.08501" stroke-linecap="round" stroke-linejoin="round"/>
<path d="M144.66 141.526L144.795 141.563L159.797 147.702L162.661 150.385" stroke="#F27C06" stroke-width="1.08501" stroke-linecap="round" stroke-linejoin="round"/>
<path d="M104.438 361.994L104.438 362.123L104.622 378.588" stroke="#F27C06" stroke-width="1.08501" stroke-linecap="round" stroke-linejoin="round"/>
<path d="M153.987 196.981L152.104 202.584L148.187 214.237L144.414 217.818L140.483 221.547L135.701 238.47L127.578 243.11L123.926 245.196L123.815 245.807" stroke="#F27C06" stroke-width="1.08501" stroke-linecap="round" stroke-linejoin="round"/>
<path d="M156.465 270.152L153.939 279.053L151.761 286.737L148.158 293.593L147.394 295.051L143.82 308.795L143.164 311.317L133.533 319.093L132.63 323.678" stroke="#F27C06" stroke-width="1.08501" stroke-linecap="round" stroke-linejoin="round"/>
<path d="M163.299 96.5539L161.41 101.111L155.75 114.777L150.437 121.212L143.622 139.278L132.653 145.653L127.867 162.432" stroke="#F27C06" stroke-width="1.08501" stroke-linecap="round" stroke-linejoin="round"/>
<path d="M148.24 132.892L144.97 140.784L144.661 141.529L140.778 150.897L136.876 157.161L135.62 160.483" stroke="#F27C06" stroke-width="1.08501" stroke-linecap="round" stroke-linejoin="round"/>
<path d="M127.525 78.6367L127.462 79.0947L124.752 97.3546L122.019 115.772L119.333 133.898L116.687 151.736L114.605 165.768" stroke="#F27C06" stroke-width="1.08501" stroke-linecap="round" stroke-linejoin="round"/>
<path d="M148.187 214.238L146.694 218.68L142.43 231.369L139.865 234.08L135.702 238.471L134.572 242.463" stroke="#F27C06" stroke-width="1.08501" stroke-linecap="round" stroke-linejoin="round"/>
<path d="M164.647 228.687L163.985 231.226L160.28 245.471L155.953 262.125L143.077 270.485L124.11 277.952L101.661 284.012L78.9459 288.347L59.2837 290.942L45.3447 292.025L38.8245 292.08" stroke="#F27C06" stroke-width="1.08501" stroke-linecap="round" stroke-linejoin="round"/>
<path d="M151.762 286.739L149.941 293.146L149.583 294.409L147.082 303.236L144.261 309.061L143.165 311.318L140.639 321.034" stroke="#F27C06" stroke-width="1.08501" stroke-linecap="round" stroke-linejoin="round"/>
<path d="M147.081 303.236L145.269 309.621L145.255 309.662L142.425 319.65L142.145 320.28" stroke="#F27C06" stroke-width="1.08501" stroke-linecap="round" stroke-linejoin="round"/>
<path d="M149.606 237.254L149.461 237.99L146.326 253.955L143.076 270.485L139.864 286.848L136.681 303.049L133.532 319.093L119.328 326.037L116.295 327.06L102.452 331.723L85.2483 335.882L70.1792 338.5L59.2783 339.773L53.9509 340.12" stroke="#F27C06" stroke-width="1.08501" stroke-linecap="round" stroke-linejoin="round"/>
<path d="M116.238 328.85L115.783 342.433L115.711 344.566L115.276 357.579L115.194 360.124L115.016 365.379L114.677 375.52L114.465 381.886L114.17 390.754L113.668 405.836L113.166 420.765L112.673 435.541" stroke="#F27C06" stroke-width="1.08501" stroke-linecap="round" stroke-linejoin="round"/>
<path d="M140.778 150.897L137.784 158.119L136.943 160.155" stroke="#F27C06" stroke-width="1.08501" stroke-linecap="round" stroke-linejoin="round"/>
<path d="M142.43 231.371L141.324 234.675L139.247 240.846" stroke="#F27C06" stroke-width="1.08501" stroke-linecap="round" stroke-linejoin="round"/>
<path d="M139.985 321.355L132.629 323.678L119.14 327.934L116.237 328.85" stroke="#F27C06" stroke-width="1.08501" stroke-linecap="round" stroke-linejoin="round"/>
</g>
<defs>
<filter id="filter0_dd_1_904" x="0" y="0" width="183.085" height="444.084" filterUnits="userSpaceOnUse" color-interpolation-filters="sRGB">
<feFlood flood-opacity="0" result="BackgroundImageFix"/>
<feColorMatrix in="SourceAlpha" type="matrix" values="0 0 0 0 0 0 0 0 0 0 0 0 0 0 0 0 0 0 127 0" result="hardAlpha"/>
<feOffset dy="4"/>
<feGaussianBlur stdDeviation="2"/>
<feComposite in2="hardAlpha" operator="out"/>
<feColorMatrix type="matrix" values="0 0 0 0 0 0 0 0 0 0 0 0 0 0 0 0 0 0 0.25 0"/>
<feBlend mode="normal" in2="BackgroundImageFix" result="effect1_dropShadow_1_904"/>
<feColorMatrix in="SourceAlpha" type="matrix" values="0 0 0 0 0 0 0 0 0 0 0 0 0 0 0 0 0 0 127 0" result="hardAlpha"/>
<feOffset dy="4"/>
<feGaussianBlur stdDeviation="2"/>
<feComposite in2="hardAlpha" operator="out"/>
<feColorMatrix type="matrix" values="0 0 0 0 0 0 0 0 0 0 0 0 0 0 0 0 0 0 0.25 0"/>
<feBlend mode="normal" in2="effect1_dropShadow_1_904" result="effect2_dropShadow_1_904"/>
<feBlend mode="normal" in="SourceGraphic" in2="effect2_dropShadow_1_904" result="shape"/>
</filter>
</defs>
</svg>
