<svg width="150" height="149" viewBox="0 0 150 149" fill="none" xmlns="http://www.w3.org/2000/svg">
<mask id="mask0_1_562" style="mask-type:luminance" maskUnits="userSpaceOnUse" x="0" y="0" width="149" height="148">
<path d="M145.705 53.227C146.703 56.6817 147.477 60.1965 148.022 63.7497C148.523 67.59 148.771 71.4588 148.764 75.3312C148.487 90.1683 143.689 104.574 135.002 116.653C132.986 119.503 130.757 122.199 128.334 124.718C126.04 127.126 123.578 129.371 120.966 131.436C115.952 135.395 110.448 138.701 104.588 141.272C99.1949 143.439 98.0696 143.886 95.5775 144.531C94.2022 144.895 92.3851 145.449 90.9848 145.722C88.2426 146.243 84.5668 146.905 81.8162 147.186C75.2495 147.815 68.6272 147.562 62.1287 146.434C58.6273 145.831 55.1735 144.982 51.7932 143.894C48.1451 142.709 44.5925 141.251 41.1659 139.534C39.7656 138.798 37.8986 137.822 36.5483 136.995C34.7063 135.861 32.2641 134.298 30.5387 132.999C26.9078 130.307 23.527 127.297 20.4366 124.007C19.2697 122.749 17.7444 121.045 16.7108 119.689C15.1105 117.587 13.0767 114.725 11.6597 112.5C9.63547 109.077 7.82879 105.532 6.25028 101.886C5.9002 101.059 5.59176 100.149 5.3167 99.2554C-1.85148 75.265 23.4789 44.516 61.7703 30.643C23.4789 44.516 -1.85148 75.3147 5.3167 99.2554C5.59176 100.149 5.9002 101.026 6.25028 101.886C5.20006 99.2554 3.61638 94.5979 3.27464 93.1337C2.87456 91.3882 2.24107 89.0884 1.94934 87.3429C1.51592 84.7371 1.11584 81.2378 0.865789 78.6154C0.644822 75.8849 0.628108 73.142 0.815781 70.409C1.08472 66.6509 1.55212 62.9093 2.21607 59.1998C2.67366 56.8011 3.2918 54.4355 4.06644 52.1185C4.60822 50.5881 5.27503 48.5282 5.89182 47.0309C6.64198 45.1944 7.69222 42.7705 8.61742 41.025C10.3 37.6894 12.2512 34.4941 14.452 31.4702C16.4788 28.6278 18.7071 25.9324 21.1201 23.4045C23.409 20.9908 25.8745 18.7483 28.4966 16.6955C31.014 14.6995 33.6589 12.8674 36.4149 11.2108C39.1284 9.5648 41.9555 8.11074 44.8751 6.85941C46.2087 6.32169 47.9674 5.52753 49.3343 5.08082C55.1689 3.16986 55.644 3.01269 58.5029 2.40879C61.3619 1.8049 64.9209 1.29199 67.6715 0.944548C69.0885 0.762552 71.0056 0.729466 72.4392 0.638468C75.6689 0.543921 78.9013 0.657207 82.1163 0.977632C85.4866 1.30702 88.829 1.87374 92.1184 2.67351C95.6411 3.51215 99.0937 4.61842 102.446 5.98252C112.56 10.0189 121.645 16.2352 129.043 24.1821C130.193 25.4395 131.727 27.1354 132.769 28.5004C134.593 30.7961 136.28 33.1966 137.82 35.6892C139.595 38.7914 141.762 43.0435 143.221 46.3029C144.169 48.5665 144.998 50.8777 145.705 53.227Z" fill="white"/>
</mask>
<g mask="url(#mask0_1_562)">
<path d="M65.3043 133.597C38.0319 133.597 13.8934 120.924 5.01655 99.3655C-2.20164 75.2428 23.1954 44.3117 61.6535 30.3808L61.9119 30.2898L62.0119 30.538C74.1811 60.1123 89.9178 103.659 97.086 127.624L97.161 127.881L96.9109 127.964C86.7885 131.662 76.0907 133.569 65.3043 133.597ZM61.5702 31.0178C23.5538 44.8908 -1.55983 75.433 5.55001 99.1918C17.6192 128.534 58.3612 141.233 96.4025 127.55C89.2677 103.601 73.6727 60.4515 61.5702 31.0012V31.0178Z" stroke="#A0A0A0" stroke-width="0.18893" stroke-miterlimit="10"/>
<path d="M58.7529 66.7288C44.95 66.7288 32.714 60.3093 28.2214 49.3565L28.7382 49.1414C34.8228 63.9161 55.3605 70.2777 74.5312 63.337L74.7312 63.8582C69.6153 65.7353 64.2072 66.7068 58.7529 66.7288Z" stroke="#A0A0A0" stroke-width="0.18893" stroke-miterlimit="10"/>
<path d="M60.0364 103.583C36.4814 103.583 15.6187 92.6383 7.95874 74.0085L8.47551 73.7935C18.9277 99.1819 54.2018 110.126 87.1171 98.1974L87.3088 98.7269C78.5729 101.912 69.3429 103.555 60.0364 103.583Z" stroke="#A0A0A0" stroke-width="0.18893" stroke-miterlimit="10"/>
<path d="M25.6209 122.966C18.4277 98.9261 34.5394 57.4228 61.5284 30.446L61.9286 30.8431C35.0646 57.6875 19.0195 98.9096 26.1627 122.801L25.6209 122.966Z" stroke="#A0A0A0" stroke-width="0.18893" stroke-miterlimit="10"/>
<path d="M58.4528 133.166C51.2763 109.176 52.6182 63.1474 61.4534 30.5867L61.9952 30.7356C53.185 63.2301 51.8431 109.118 58.9946 133.026L58.4528 133.166Z" stroke="#A0A0A0" stroke-width="0.18893" stroke-miterlimit="10"/>
<path d="M96.6026 128.068L96.5193 127.778C89.3511 103.829 73.6311 60.2993 61.4702 30.7498L61.3535 30.4768L61.6285 30.3775C85.942 21.559 110.447 21.2777 127.176 29.633C136.036 34.0588 142.012 40.6934 144.446 48.8253C149.447 61.0521 149.039 74.4701 143.187 87.6152C135.227 105.484 118.349 120.184 96.886 127.96L96.6026 128.068ZM62.0954 30.8077C74.1979 60.2496 89.7845 103.391 96.9777 127.34C118.157 119.58 134.811 105.004 142.671 87.3918C148.464 74.3957 148.897 61.1183 143.913 49.0155C141.512 41.0077 135.644 34.489 126.917 30.1376C110.397 21.8899 86.1838 22.1381 62.0954 30.8077Z" stroke="#A0A0A0" stroke-width="0.18893" stroke-miterlimit="10"/>
<path d="M74.7313 63.8834L74.5312 63.3622C85.2502 59.4741 93.7019 52.1446 97.6444 43.2351C100.545 36.7163 100.762 30.0652 98.2612 23.9932L98.7863 23.7781C101.345 29.9908 101.129 36.7991 98.1529 43.4667C94.1604 52.5086 85.5919 59.9456 74.7313 63.8834Z" stroke="#A0A0A0" stroke-width="0.18893" stroke-miterlimit="10"/>
<path d="M87.3089 98.7287L87.1172 98.1993C105.513 91.5316 119.974 78.9408 126.784 63.6532C131.785 52.4356 132.16 40.9947 127.859 30.563L128.376 30.3562C132.735 40.9451 132.36 52.5432 127.301 63.8931C120.424 79.3048 105.83 92.0032 87.3089 98.7287Z" stroke="#A0A0A0" stroke-width="0.18893" stroke-miterlimit="10"/>
<path d="M128.559 107.76C121.408 83.8602 91.3597 49.372 61.5784 30.8746L61.8785 30.4031C91.7598 48.9584 121.891 83.5872 129.101 107.594L128.559 107.76Z" stroke="#A0A0A0" stroke-width="0.18893" stroke-miterlimit="10"/>
<path d="M145.555 79.4946C138.42 55.6449 100.804 33.855 61.7036 30.9183L61.7453 30.364C101.062 33.309 138.903 55.2809 146.096 79.3292L145.555 79.4946Z" stroke="#A0A0A0" stroke-width="0.18893" stroke-miterlimit="10"/>
<path d="M143.913 49.0186C142.156 44.7611 139.777 40.7834 136.853 37.2137C133.96 34.3249 130.602 31.9345 126.917 30.1406C110.331 21.8681 85.9921 22.1411 61.8203 30.91L61.5703 31.001L61.4703 30.7528C59.5949 26.2029 58.0112 22.4803 56.6609 19.4029C55.3606 19.8165 54.0604 20.2577 52.7601 20.7265L52.4767 20.8258L52.3934 20.5445C47.8424 5.33958 48.7926 5.00868 49.251 4.82668C49.7094 4.64469 50.668 4.35514 56.9777 18.6997C88.426 8.99603 120.916 16.8219 137.261 36.8C140.605 40.1608 143.072 44.2814 144.446 48.8035L143.913 49.0186ZM98.2447 23.5722C109.08 23.5722 119.082 25.5907 127.176 29.636C129.448 30.7629 131.608 32.1008 133.627 33.6317C116.64 16.4827 86.4922 10.2286 57.2027 19.2374C58.528 22.2486 60.0783 25.8968 61.887 30.2896C73.526 25.9888 85.8261 23.7163 98.2447 23.5722ZM49.451 5.37266C49.2843 5.7532 49.226 7.92888 52.8434 20.073C54.0437 19.6428 55.2439 19.2457 56.4442 18.8652C51.2514 7.08509 49.7928 5.57948 49.451 5.43057V5.37266Z" stroke="#A0A0A0" stroke-width="0.18893" stroke-miterlimit="10"/>
<path d="M98.2612 23.9916C92.1849 9.21684 71.6556 2.84698 52.4849 9.80418L52.2932 9.27474C71.7473 2.21827 92.61 8.72875 98.803 23.7765L98.2612 23.9916Z" stroke="#A0A0A0" stroke-width="0.18893" stroke-miterlimit="10"/>
<path d="M127.859 30.5443C117.407 5.1642 82.1412 -5.78865 49.2176 6.14863L49.0259 5.61919C82.2329 -6.41736 117.824 4.67612 128.384 30.3375L127.859 30.5443Z" stroke="#A0A0A0" stroke-width="0.18893" stroke-miterlimit="10"/>
<path d="M61.9287 30.8443L61.5286 30.4472C78.0571 13.9021 95.6191 5.98531 108.463 9.19506C115.965 11.0646 121.25 16.599 123.825 25.2024L123.283 25.3679C120.783 16.9547 115.598 11.5527 108.33 9.74105C95.6441 6.56439 78.3238 14.4647 61.9287 30.8443Z" stroke="#A0A0A0" stroke-width="0.18893" stroke-miterlimit="10"/>
<path d="M61.9951 30.7171L61.4534 30.5682C66.6045 11.5827 73.3059 0.638145 79.8489 0.55542H79.9239C84.3415 0.55542 88.1673 5.51895 90.9929 14.9993L90.4511 15.1564C87.7006 5.96566 84.0665 1.09313 79.9239 1.09313H79.8573C73.681 1.1924 67.0045 12.2611 61.9951 30.7171Z" stroke="#A0A0A0" stroke-width="0.18893" stroke-miterlimit="10"/>
<path d="M5.01653 99.3651C0.0154797 87.1135 0.407229 73.7203 6.2668 60.5421C14.1935 42.7562 30.972 28.0972 52.3182 20.288C47.8506 5.33949 48.7924 5.00858 49.2509 4.85141C49.7093 4.69423 51.1596 4.22269 61.9869 30.4963L62.0953 30.7693L61.8202 30.8685C23.6705 44.6919 -1.57651 75.3169 5.54999 99.1335L5.01653 99.3651ZM49.4509 5.43048C49.2759 5.81929 49.2259 8.01978 52.935 20.4203L53.01 20.6685L52.76 20.7595C31.4388 28.486 14.6769 43.0953 6.78357 60.8069C1.63248 72.3884 0.715623 84.1271 4.07467 95.1048C0.807309 71.8011 25.3042 43.6744 61.3534 30.5128C52.1015 8.01152 49.8843 5.62075 49.4509 5.43048Z" stroke="#A0A0A0" stroke-width="0.18893" stroke-miterlimit="10"/>
<path d="M28.2214 49.3794C25.6625 43.1668 25.8792 36.3585 28.8549 29.6908C32.8807 20.6572 41.4158 13.2119 52.2764 9.27417L52.4681 9.80361C41.7575 13.6834 33.2974 21.0212 29.3633 29.9224C26.4627 36.4412 26.246 43.1006 28.7382 49.1644L28.2214 49.3794Z" stroke="#A0A0A0" stroke-width="0.18893" stroke-miterlimit="10"/>
<path d="M7.95893 74.007C3.59967 63.4182 3.97473 51.8201 9.03414 40.4701C15.9106 25.0418 30.4887 12.3435 49.0426 5.61792L49.2343 6.14736C30.8387 12.815 16.3774 25.4058 9.56759 40.6935C4.56654 51.9028 4.19976 63.352 8.49233 73.7837L7.95893 74.007Z" stroke="#A0A0A0" stroke-width="0.18893" stroke-miterlimit="10"/>
<path d="M20.3532 40.5713C17.5943 31.3392 18.5028 24.6798 22.9787 21.3046C29.8219 16.126 44.3666 19.5342 61.8787 30.4044L61.5786 30.8759C44.2749 20.1216 29.9719 16.7216 23.3205 21.7761C19.0446 25.0024 18.2027 31.455 20.895 40.439L20.3532 40.5713Z" stroke="#A0A0A0" stroke-width="0.18893" stroke-miterlimit="10"/>
<path d="M3.34958 68.8363C0.84905 60.4314 2.30771 52.556 7.59216 46.0538C17.0692 34.3978 37.2984 28.5243 61.7703 30.3359L61.7286 30.8902C37.4901 29.0785 17.4109 34.861 8.05892 46.3764C2.89117 52.7297 1.45753 60.4397 3.89138 68.6461L3.34958 68.8363Z" stroke="#A0A0A0" stroke-width="0.18893" stroke-miterlimit="10"/>
<path d="M100.045 143.349C99.5199 143.349 98.0863 142.216 92.4684 129.443C61.0118 139.147 28.5133 131.313 12.1765 111.326C8.83484 107.97 6.37353 103.851 5.0083 99.3309L5.54176 99.1489C7.29474 103.4 9.66784 107.372 12.5849 110.937C15.4765 113.834 18.8379 116.228 22.5287 118.019C39.1238 126.291 63.454 126.018 87.6257 117.257L87.8841 117.167L87.9842 117.415C89.8596 121.965 91.4432 125.687 92.7852 128.765C94.091 128.351 95.394 127.91 96.6943 127.441L96.9777 127.342L97.0611 127.623C101.604 142.82 100.654 143.151 100.203 143.341C100.152 143.353 100.098 143.356 100.045 143.349ZM93.0102 129.286C98.1946 141.066 99.6783 142.596 100.003 142.77C100.17 142.389 100.228 140.214 96.6026 128.078C95.4107 128.5 94.2105 128.897 93.0102 129.277V129.286ZM15.8106 114.519C32.7975 131.677 62.9622 137.939 92.2517 128.93C90.9348 125.919 89.3844 122.271 87.5757 117.878C63.3456 126.605 38.9572 126.845 22.287 118.523C20.0062 117.394 17.8378 116.053 15.8106 114.519Z" stroke="#A0A0A0" stroke-width="0.18893" stroke-miterlimit="10"/>
<path d="M73.1475 147.395C49.5925 147.395 28.7298 136.451 21.0698 117.821L21.5866 117.614C32.0388 143.002 67.3129 153.947 100.228 142.018L100.42 142.539C91.685 145.728 82.4544 147.371 73.1475 147.395Z" stroke="#A0A0A0" stroke-width="0.18893" stroke-miterlimit="10"/>
<path d="M46.9253 139.669C44.9228 139.678 42.9267 139.442 40.9824 138.966C33.4808 137.096 28.2047 131.562 25.6208 122.967L26.1626 122.801C28.6631 131.206 33.8559 136.608 41.1658 138.428C53.8184 141.588 71.1721 133.705 87.5673 117.325L87.9673 117.722C73.8227 131.818 58.9695 139.669 46.9253 139.669Z" stroke="#A0A0A0" stroke-width="0.18893" stroke-miterlimit="10"/>
<path d="M69.5219 147.601C65.1043 147.601 61.2868 142.638 58.4529 133.166L58.9947 133.009C61.7453 142.191 65.3877 147.072 69.5219 147.072H69.5886C75.7732 146.998 82.4496 135.937 87.4507 117.481L88.0008 117.63C82.8497 136.657 76.14 147.552 69.5969 147.635L69.5219 147.601Z" stroke="#A0A0A0" stroke-width="0.18893" stroke-miterlimit="10"/>
<path d="M100.045 143.348C99.3948 143.348 97.3194 141.578 87.4589 117.629L87.3506 117.356L87.6256 117.257C125.784 103.433 151.031 72.8002 143.904 48.9918L144.429 48.8015C149.472 61.0531 149.039 74.4464 143.187 87.6163C135.252 105.411 118.482 120.069 97.136 127.879C101.595 142.827 100.653 143.15 100.203 143.315C100.153 143.336 100.099 143.347 100.045 143.348ZM88.0924 117.704C97.3527 140.172 99.5615 142.521 100.003 142.778C100.17 142.397 100.228 140.188 96.5192 127.796L96.4441 127.548L96.6942 127.457C118.015 119.73 134.769 105.121 142.671 87.4095C147.822 75.8279 148.73 64.0892 145.371 53.1115C148.647 76.3987 124.167 104.525 88.0924 117.687V117.704Z" stroke="#A0A0A0" stroke-width="0.18893" stroke-miterlimit="10"/>
<path d="M100.42 142.538L100.228 142.017C118.624 135.349 133.085 122.758 139.895 107.462C144.896 96.2529 145.271 84.8037 140.97 74.3721L141.487 74.157C145.846 84.7458 145.471 96.3439 140.412 107.702C133.535 123.122 118.966 135.82 100.42 142.538Z" stroke="#A0A0A0" stroke-width="0.18893" stroke-miterlimit="10"/>
<path d="M118.099 129.229C110.389 129.229 99.6949 125.283 87.5757 117.763L87.8758 117.283C105.171 128.038 119.474 131.446 126.134 126.383C130.401 123.157 131.243 116.704 128.559 107.729L129.101 107.563C131.86 116.787 130.952 123.447 126.467 126.83C124.358 128.451 121.525 129.229 118.099 129.229Z" stroke="#A0A0A0" stroke-width="0.18893" stroke-miterlimit="10"/>
<path d="M96.3525 118.135C93.5436 118.135 90.6513 118.028 87.7007 117.804V117.242C111.956 119.062 132.018 113.271 141.379 101.756C146.538 95.4024 147.972 87.6924 145.546 79.4943L146.088 79.3289C148.589 87.7255 147.138 95.6009 141.845 102.103C133.527 112.361 116.865 118.135 96.3525 118.135Z" stroke="#A0A0A0" stroke-width="0.18893" stroke-miterlimit="10"/>
<path d="M87.5673 117.879L87.4589 117.631C75.2897 88.0482 59.5613 44.4933 52.3932 20.5443L52.3181 20.2878L52.5682 20.1968C90.9929 6.26587 132.21 19.1048 144.429 48.8033C151.672 72.926 126.25 103.874 87.8173 117.788L87.5673 117.879ZM53.0099 20.6353C60.1781 44.5594 75.7731 87.709 87.8839 117.168C125.892 103.294 151.006 72.7605 143.904 49.0018C131.818 19.6426 91.0846 6.95248 53.0099 20.6353Z" stroke="#A0A0A0" stroke-width="0.18893" stroke-miterlimit="10"/>
<path d="M140.97 74.3648C130.518 48.9764 95.2523 38.0318 62.3287 49.9608L62.137 49.4397C95.344 37.4031 130.935 48.4966 141.495 74.1498L140.97 74.3648Z" stroke="#A0A0A0" stroke-width="0.18893" stroke-miterlimit="10"/>
<path d="M87.9258 117.72L87.5256 117.323C114.381 90.4786 130.426 49.2234 123.283 25.3654L123.825 25.2C131.018 49.273 114.915 90.7433 87.9258 117.72Z" stroke="#A0A0A0" stroke-width="0.18893" stroke-miterlimit="10"/>
<path d="M88.0008 117.597L87.4507 117.448C96.2609 84.9533 97.6111 39.0655 90.4513 15.1579L90.9931 15.0007C98.1779 38.9911 96.8276 85.0195 88.0008 117.597Z" stroke="#A0A0A0" stroke-width="0.18893" stroke-miterlimit="10"/>
<path d="M51.2096 124.593C40.374 124.593 30.3719 122.575 22.2785 118.521C13.41 114.095 7.44205 107.461 5.0082 99.3289C0.00714394 87.1103 0.407236 73.684 6.26681 60.5389C14.2268 42.6868 31.097 27.9782 52.5682 20.1938L52.8433 20.0945L52.935 20.384C60.0948 44.3082 75.8232 87.8466 87.9841 117.413L88.0924 117.686L87.8174 117.785C76.1044 122.142 63.7174 124.446 51.2096 124.593ZM52.4849 20.8225C31.2971 28.5821 14.6519 43.1583 6.79192 60.7706C0.999032 73.7667 0.565615 87.0442 5.55 99.1469C7.94217 107.146 13.8184 113.665 22.5369 118.017C39.0654 126.289 63.2789 126.024 87.359 117.355C75.2481 87.8962 59.6614 44.7632 52.4849 20.8225Z" stroke="#A0A0A0" stroke-width="0.18893" stroke-miterlimit="10"/>
<path d="M21.07 117.819C16.7108 107.238 17.0858 95.6404 22.1452 84.2822C29.0217 68.8539 43.5998 56.1555 62.1537 49.4382L62.3454 49.9594C43.9499 56.6271 29.4884 69.2179 22.6787 84.5055C17.6776 95.7231 17.3109 107.172 21.6035 117.596L21.07 117.819Z" stroke="#A0A0A0" stroke-width="0.18893" stroke-miterlimit="10"/>
<path d="M87.5758 117.764C57.6945 99.2082 27.5631 64.5793 20.3533 40.5724L20.895 40.407C28.0465 64.3063 58.0862 98.7946 87.8759 117.284L87.5758 117.764Z" stroke="#A0A0A0" stroke-width="0.18893" stroke-miterlimit="10"/>
<path d="M87.7008 117.803C48.3925 114.858 10.5511 92.8863 3.34961 68.838L3.89141 68.6726C11.0346 92.5306 48.6425 114.312 87.7424 117.241L87.7008 117.803Z" stroke="#A0A0A0" stroke-width="0.18893" stroke-miterlimit="10"/>
<path d="M74.8481 147.808C70.5537 147.82 66.2666 147.454 62.037 146.716C58.5198 146.104 55.0496 145.25 51.6515 144.16C47.9903 142.975 44.4263 141.511 40.9909 139.784C39.4323 138.957 37.6569 138.038 36.3483 137.236C35.2147 136.533 32.3558 134.754 30.3137 133.224C26.6674 130.522 23.2751 127.499 20.1782 124.19C19.0613 122.991 17.511 121.27 16.4357 119.855C14.7687 117.68 12.7433 114.784 11.368 112.65C9.39886 109.326 7.63954 105.883 6.10021 102.342L5.94184 102.003C5.80848 101.689 5.68348 101.358 5.55846 101.027C4.53324 98.3467 3.24963 94.5165 2.94957 93.2178C2.82454 92.68 2.68285 92.0927 2.53281 91.4888C2.18274 90.0742 1.8243 88.6182 1.61592 87.3525C1.16583 84.6391 0.782425 81.0571 0.532372 78.6084C0.313919 75.8558 0.297207 73.091 0.482364 70.3359C0.771623 66.6019 1.2557 62.8853 1.93266 59.2011C2.39128 56.7867 3.01791 54.4068 3.80806 52.0784C3.94975 51.6731 4.09981 51.2512 4.24984 50.7796C4.68327 49.5139 5.17501 48.0828 5.63344 46.9743C6.20857 45.5597 7.30049 42.8959 8.36738 40.9436C10.0502 37.6002 12.0014 34.3967 14.2019 31.364C16.2446 28.5071 18.4926 25.8004 20.9284 23.2652C23.2328 20.8449 25.7091 18.5917 28.3383 16.523C30.8636 14.5171 33.5199 12.6793 36.2899 11.0218C39.0158 9.37004 41.8538 7.90782 44.7834 6.64564C45.2085 6.48019 45.6836 6.28164 46.167 6.07483C47.2256 5.62811 48.3175 5.17313 49.2593 4.86705C55.0939 2.94782 55.5857 2.79064 58.4279 2.17847C61.4286 1.54148 65.4961 0.987221 67.6465 0.714227C68.6384 0.590139 69.8387 0.532232 70.9806 0.482597C71.4807 0.482597 71.9724 0.441225 72.4142 0.408134C75.6577 0.313328 78.9041 0.426625 82.1329 0.747311C85.5224 1.0815 88.8841 1.65094 92.1934 2.45145C95.7246 3.28916 99.1855 4.39543 102.546 5.76047C112.682 9.79626 121.791 16.0119 129.218 23.9601C130.501 25.3664 131.952 26.9795 132.96 28.2949L133.01 28.3693C134.818 30.6516 136.488 33.0383 138.011 35.5168C139.795 38.6355 141.979 42.9124 143.429 46.1553C144.383 48.4386 145.217 50.769 145.93 53.1373C146.932 56.6061 147.711 60.1346 148.264 63.7013C148.76 67.5587 149.005 71.4438 148.997 75.3325C148.902 82.3764 147.758 89.3677 145.605 96.08C144.407 99.9136 142.881 103.639 141.045 107.215C136.243 116.686 129.437 125.016 121.091 131.635C116.053 135.617 110.52 138.939 104.629 141.521C99.2365 143.689 98.1113 144.144 95.5858 144.83L94.2105 145.211C93.1019 145.517 91.9517 145.831 90.9765 146.038C87.084 146.782 83.9833 147.279 81.7579 147.502C79.4613 147.72 77.1551 147.822 74.8481 147.808ZM6.50033 101.78L6.6587 102.111C8.18239 105.63 9.92785 109.051 11.8848 112.352C13.2517 114.478 15.2771 117.357 16.8858 119.516C17.9527 120.914 19.4947 122.627 20.5949 123.818C23.6763 127.095 27.0459 130.094 30.6638 132.777C32.6892 134.291 35.5231 136.086 36.6567 136.756C37.9486 137.583 39.7073 138.477 41.2577 139.288C47.8197 142.597 54.8432 144.914 62.0954 146.162C68.5699 147.28 75.1662 147.53 81.7078 146.907C83.9166 146.683 87.0006 146.195 90.8764 145.451C91.8266 145.269 92.9602 144.946 94.0521 144.623C94.5439 144.483 95.019 144.35 95.4441 144.243C97.9446 143.598 99.0532 143.143 104.421 140.983C110.256 138.428 115.735 135.139 120.724 131.197C126.065 126.957 130.786 122.002 134.752 116.472C139.25 110.189 142.732 103.247 145.071 95.8981C147.191 89.2334 148.315 82.2961 148.405 75.3077C148.414 71.4355 148.169 67.5668 147.672 63.7262C147.129 60.1897 146.358 56.6915 145.363 53.2531C144.746 51.3091 143.821 48.3723 142.912 46.3373C141.462 43.1027 139.295 38.8506 137.511 35.7402C135.985 33.2846 134.316 30.9201 132.51 28.6589L132.46 28.5844C131.468 27.2856 130.026 25.6807 128.751 24.2827C121.396 16.4186 112.383 10.2634 102.354 6.25683C99.0214 4.8944 95.5883 3.78814 92.085 2.94781C88.7947 2.16206 85.4522 1.60917 82.0829 1.2933C78.8847 0.972979 75.6689 0.859679 72.4559 0.954125L71.0056 1.02857C69.8553 1.07821 68.6634 1.12785 67.6715 1.25194C65.5211 1.52493 61.4786 2.0792 58.5029 2.70791C55.6857 3.32008 55.2106 3.46898 49.3844 5.37994C48.4675 5.67775 47.3839 6.13274 46.3337 6.57119L44.9501 7.15026C42.0493 8.39203 39.2415 9.83788 36.5483 11.4768C33.7915 13.1221 31.149 14.9489 28.6383 16.9449C26.0266 18.9948 23.5696 21.2316 21.2868 23.6374C18.8707 26.1509 16.6421 28.8355 14.6187 31.6701C12.442 34.6798 10.5078 37.8553 8.83414 41.1669C7.80893 43.1193 6.69202 45.7665 6.11689 47.1645C5.6668 48.2648 5.18335 49.6877 4.74993 50.9368C4.5999 51.4001 4.44155 51.8385 4.29985 52.2439C3.52497 54.5489 2.9095 56.9038 2.45778 59.2921C1.78468 62.9708 1.30617 66.682 1.02417 70.4104C0.837219 73.1294 0.851138 75.8584 1.06583 78.5754C1.29921 81.0158 1.69929 84.5812 2.14938 87.2781C2.34942 88.4941 2.70785 89.9336 3.04959 91.3316C3.20795 91.9438 3.34966 92.5394 3.47468 93.0771C3.59971 93.6149 3.77474 94.1857 4.04146 95.0129C3.84807 93.6259 3.75062 92.2273 3.74976 90.827C3.74976 68.3836 27.5631 42.7139 61.5953 30.3796L61.787 30.909C27.9798 43.1606 4.27482 68.5987 4.27482 90.8022C4.26541 93.6363 4.67257 96.4566 5.48342 99.174C5.65012 99.7283 5.83352 100.283 6.03356 100.829L6.40031 101.78H6.50033Z" stroke="#A0A0A0" stroke-width="0.18893" stroke-miterlimit="10"/>
</g>
<path d="M6.25028 101.886C7.82879 105.532 9.63547 109.077 11.6597 112.5C13.0767 114.725 15.1105 117.587 16.7108 119.689C17.7444 121.045 19.2697 122.749 20.4366 124.007C23.527 127.297 26.9078 130.307 30.5387 132.999C32.2641 134.298 34.7063 135.861 36.5483 136.995C37.8986 137.822 39.7656 138.798 41.1659 139.534C44.5925 141.251 48.1451 142.709 51.7932 143.894C55.1735 144.982 58.6273 145.831 62.1287 146.434C68.6272 147.562 75.2495 147.815 81.8162 147.186C84.5668 146.905 88.2426 146.243 90.9848 145.722C92.3851 145.449 94.2022 144.895 95.5775 144.531C98.0696 143.886 99.1949 143.439 104.588 141.272C110.448 138.701 115.952 135.395 120.966 131.436C123.578 129.371 126.04 127.126 128.334 124.718C130.757 122.199 132.986 119.503 135.002 116.653C143.689 104.574 148.487 90.1683 148.764 75.3312C148.771 71.4588 148.523 67.59 148.022 63.7497C147.477 60.1965 146.703 56.6817 145.705 53.227C144.998 50.8777 144.169 48.5665 143.221 46.3029C141.762 43.0435 139.595 38.7914 137.82 35.6892C136.28 33.1966 134.593 30.7961 132.769 28.5004C131.727 27.1354 130.193 25.4395 129.043 24.1821C121.645 16.2352 112.56 10.0189 102.446 5.98252C99.0937 4.61842 95.6411 3.51215 92.1184 2.67351C88.829 1.87374 85.4866 1.30702 82.1163 0.977632C78.9013 0.657207 75.6689 0.543921 72.4392 0.638468C71.0056 0.729466 69.0885 0.762552 67.6715 0.944548C64.9209 1.29199 61.3619 1.8049 58.5029 2.40879C55.644 3.01269 55.1689 3.16986 49.3343 5.08082C47.9674 5.52753 46.2087 6.32169 44.8751 6.85941C41.9555 8.11074 39.1284 9.5648 36.4149 11.2108C33.6589 12.8674 31.014 14.6995 28.4966 16.6955C25.8745 18.7483 23.409 20.9908 21.1201 23.4045C18.7071 25.9324 16.4788 28.6278 14.452 31.4702C12.2512 34.4941 10.3 37.6894 8.61742 41.025C7.69222 42.7705 6.64198 45.1944 5.89182 47.0309C5.27503 48.5282 4.60822 50.5881 4.06644 52.1185C3.2918 54.4355 2.67366 56.8011 2.21607 59.1998C1.55212 62.9093 1.08472 66.6509 0.815781 70.409C0.628108 73.142 0.644822 75.8849 0.865789 78.6154C1.11584 81.2378 1.51592 84.7371 1.94934 87.3429C2.24107 89.0884 2.87456 91.3882 3.27464 93.1337C3.61638 94.5979 5.20006 99.2554 6.25028 101.886ZM6.25028 101.886C5.9002 101.059 5.59176 100.149 5.3167 99.2554M6.25028 101.886C5.9002 101.026 5.59176 100.149 5.3167 99.2554M5.3167 99.2554C-1.85148 75.265 23.4789 44.516 61.7703 30.643C23.4789 44.516 -1.85148 75.3147 5.3167 99.2554Z" stroke="#A0A0A0" stroke-width="0.18893" stroke-miterlimit="10"/>
<mask id="mask1_1_562" style="mask-type:luminance" maskUnits="userSpaceOnUse" x="0" y="0" width="149" height="148">
<path d="M143.237 46.2784C145.213 51.2419 145.213 51.2419 147.18 59.0181C147.762 61.535 148.165 64.0892 148.388 66.6619C148.701 69.5408 148.826 72.4367 148.763 75.3316C148.672 77.044 148.63 79.3189 148.438 81.0231C148.172 83.4056 147.755 86.5822 147.238 88.9234C145.658 96.5323 142.861 103.841 138.953 110.573C135.259 116.955 130.627 122.754 125.209 127.779C120.321 132.316 114.83 136.166 108.888 139.22C106.044 140.674 103.113 141.953 100.112 143.051C98.7446 143.497 96.9526 144.176 95.5606 144.531C89.9677 145.987 89.3843 146.136 86.392 146.591C85 146.806 83.1496 147.096 81.7493 147.187C78.9571 147.361 75.223 147.485 72.4224 147.485C69.2115 147.371 66.0105 147.065 62.837 146.566C59.3447 146.012 55.8985 145.202 52.5265 144.143C49.3001 143.1 46.136 141.877 43.0495 140.478C39.1842 138.669 35.4835 136.532 31.9888 134.091C28.4497 131.631 25.1387 128.863 22.0951 125.819C20.9198 124.586 19.3278 122.965 18.2443 121.683C16.6606 119.755 14.5935 117.141 13.2432 115.065C12.268 113.6 10.9844 111.623 10.1592 110.101C8.87562 107.71 7.29196 104.451 6.2084 101.969C15.2186 123.867 50.8679 130.923 87.7256 117.604C50.8679 130.964 15.2103 123.867 6.2084 101.969C5.5916 100.265 4.67476 98.0231 4.14131 96.2942C3.49117 94.2012 2.80769 91.3307 2.26591 89.2212C1.69098 86.7061 1.28995 84.155 1.06566 81.5856C0.753565 78.7039 0.62827 75.8053 0.690569 72.9077C0.782255 71.2036 0.823935 68.9204 1.00731 67.2245C1.27403 64.842 1.69079 61.6571 2.21591 59.3159C3.79424 51.7103 6.58846 44.4043 10.4926 37.675C12.4091 34.3786 14.5711 31.229 16.9607 28.2526C19.1985 25.4883 21.63 22.8843 24.2372 20.4598C29.1265 15.9244 34.6208 12.0775 40.5657 9.02718C43.409 7.57225 46.3402 6.29308 49.3425 5.19699C50.7094 4.75027 52.5015 4.06365 53.8851 3.70793C60.0698 2.10306 60.0698 2.10305 63.0537 1.64806C64.4374 1.43298 66.2961 1.14344 67.6964 1.06072C70.4886 0.878723 74.2144 0.754639 77.015 0.754639C80.226 0.867268 83.427 1.17392 86.6004 1.67289C90.0929 2.22657 93.5392 3.03674 96.9109 4.09674C100.139 5.14051 103.306 6.36404 106.396 7.76148C110.257 9.57289 113.955 11.7095 117.449 14.1479C120.989 16.6094 124.303 19.3777 127.351 22.4204C128.518 23.653 130.11 25.2744 131.193 26.5567C132.777 28.4842 134.844 31.0983 136.194 33.1747C138.988 37.2914 141.348 41.6824 143.237 46.2784Z" fill="white"/>
</mask>
<g mask="url(#mask1_1_562)">
<path d="M65.3043 133.597C38.0319 133.597 13.8934 120.924 5.01655 99.3655C-2.20164 75.2428 23.1954 44.3117 61.6535 30.3808L61.9119 30.2898L62.0119 30.538C74.1811 60.1123 89.9178 103.659 97.086 127.624L97.161 127.881L96.9109 127.964C86.7885 131.662 76.0907 133.569 65.3043 133.597ZM61.5702 31.0178C23.5538 44.8908 -1.55983 75.433 5.55001 99.1918C17.6192 128.534 58.3612 141.233 96.4025 127.55C89.2677 103.601 73.6727 60.4515 61.5702 31.0012V31.0178Z" stroke="#A0A0A0" stroke-width="0.18893" stroke-miterlimit="10"/>
<path d="M60.0364 103.583C36.4814 103.583 15.6187 92.6383 7.95874 74.0085L8.47551 73.7935C18.9277 99.1819 54.2018 110.126 87.1171 98.1974L87.3088 98.7269C78.5729 101.912 69.3429 103.555 60.0364 103.583Z" stroke="#A0A0A0" stroke-width="0.18893" stroke-miterlimit="10"/>
<path d="M25.6209 122.966C18.4277 98.9261 34.5394 57.4228 61.5284 30.446L61.9286 30.8431C35.0646 57.6875 19.0195 98.9096 26.1627 122.801L25.6209 122.966Z" stroke="#A0A0A0" stroke-width="0.18893" stroke-miterlimit="10"/>
<path d="M58.4528 133.166C51.2763 109.176 52.6182 63.1474 61.4534 30.5867L61.9952 30.7356C53.185 63.2301 51.8431 109.118 58.9946 133.026L58.4528 133.166Z" stroke="#A0A0A0" stroke-width="0.18893" stroke-miterlimit="10"/>
<path d="M96.6026 128.068L96.5193 127.778C89.3511 103.829 73.6311 60.2993 61.4702 30.7498L61.3535 30.4768L61.6285 30.3775C85.942 21.559 110.447 21.2777 127.176 29.633C136.036 34.0588 142.012 40.6934 144.446 48.8253C149.447 61.0521 149.039 74.4701 143.187 87.6152C135.227 105.484 118.349 120.184 96.886 127.96L96.6026 128.068ZM62.0954 30.8077C74.1979 60.2496 89.7845 103.391 96.9777 127.34C118.157 119.58 134.811 105.004 142.671 87.3918C148.464 74.3957 148.897 61.1183 143.913 49.0155C141.512 41.0077 135.644 34.489 126.917 30.1376C110.397 21.8899 86.1838 22.1381 62.0954 30.8077Z" stroke="#A0A0A0" stroke-width="0.18893" stroke-miterlimit="10"/>
<path d="M87.3089 98.7287L87.1172 98.1993C105.513 91.5316 119.974 78.9408 126.784 63.6532C131.785 52.4356 132.16 40.9947 127.859 30.563L128.376 30.3562C132.735 40.9451 132.36 52.5432 127.301 63.8931C120.424 79.3048 105.83 92.0032 87.3089 98.7287Z" stroke="#A0A0A0" stroke-width="0.18893" stroke-miterlimit="10"/>
<path d="M128.559 107.76C121.408 83.8602 91.3597 49.372 61.5784 30.8746L61.8785 30.4031C91.7598 48.9584 121.891 83.5872 129.101 107.594L128.559 107.76Z" stroke="#A0A0A0" stroke-width="0.18893" stroke-miterlimit="10"/>
<path d="M145.555 79.4946C138.42 55.6449 100.804 33.855 61.7036 30.9183L61.7453 30.364C101.062 33.309 138.903 55.2809 146.096 79.3292L145.555 79.4946Z" stroke="#A0A0A0" stroke-width="0.18893" stroke-miterlimit="10"/>
<path d="M143.913 49.0186C142.156 44.7611 139.777 40.7834 136.853 37.2137C133.96 34.3249 130.602 31.9345 126.917 30.1406C110.331 21.8681 85.9921 22.1411 61.8203 30.91L61.5703 31.001L61.4703 30.7528C59.5949 26.2029 58.0112 22.4803 56.6609 19.4029C55.3606 19.8165 54.0604 20.2577 52.7601 20.7265L52.4767 20.8258L52.3934 20.5445C47.8424 5.33958 48.7926 5.00868 49.251 4.82668C49.7094 4.64469 50.668 4.35514 56.9777 18.6997C88.426 8.99603 120.916 16.8219 137.261 36.8C140.605 40.1608 143.072 44.2814 144.446 48.8035L143.913 49.0186ZM98.2447 23.5722C109.08 23.5722 119.082 25.5907 127.176 29.636C129.448 30.7629 131.608 32.1008 133.627 33.6317C116.64 16.4827 86.4922 10.2286 57.2027 19.2374C58.528 22.2486 60.0783 25.8968 61.887 30.2896C73.526 25.9888 85.8261 23.7163 98.2447 23.5722ZM49.451 5.37266C49.2843 5.7532 49.226 7.92888 52.8434 20.073C54.0437 19.6428 55.2439 19.2457 56.4442 18.8652C51.2514 7.08509 49.7928 5.57948 49.451 5.43057V5.37266Z" stroke="#A0A0A0" stroke-width="0.18893" stroke-miterlimit="10"/>
<path d="M127.859 30.5443C117.407 5.1642 82.1412 -5.78865 49.2176 6.14863L49.0259 5.61919C82.2329 -6.41736 117.824 4.67612 128.384 30.3375L127.859 30.5443Z" stroke="#A0A0A0" stroke-width="0.18893" stroke-miterlimit="10"/>
<path d="M61.9287 30.8443L61.5286 30.4472C78.0571 13.9021 95.6191 5.98531 108.463 9.19506C115.965 11.0646 121.25 16.599 123.825 25.2024L123.283 25.3679C120.783 16.9547 115.598 11.5527 108.33 9.74105C95.6441 6.56439 78.3238 14.4647 61.9287 30.8443Z" stroke="#A0A0A0" stroke-width="0.18893" stroke-miterlimit="10"/>
<path d="M61.9951 30.7171L61.4534 30.5682C66.6045 11.5827 73.3059 0.638145 79.8489 0.55542H79.9239C84.3415 0.55542 88.1673 5.51895 90.9929 14.9993L90.4511 15.1564C87.7006 5.96566 84.0665 1.09313 79.9239 1.09313H79.8573C73.681 1.1924 67.0045 12.2611 61.9951 30.7171Z" stroke="#A0A0A0" stroke-width="0.18893" stroke-miterlimit="10"/>
<path d="M5.01653 99.3651C0.0154797 87.1135 0.407229 73.7203 6.2668 60.5421C14.1935 42.7562 30.972 28.0972 52.3182 20.288C47.8506 5.33949 48.7924 5.00858 49.2509 4.85141C49.7093 4.69423 51.1596 4.22269 61.9869 30.4963L62.0953 30.7693L61.8202 30.8685C23.6705 44.6919 -1.57651 75.3169 5.54999 99.1335L5.01653 99.3651ZM49.4509 5.43048C49.2759 5.81929 49.2259 8.01978 52.935 20.4203L53.01 20.6685L52.76 20.7595C31.4388 28.486 14.6769 43.0953 6.78357 60.8069C1.63248 72.3884 0.715623 84.1271 4.07467 95.1048C0.807309 71.8011 25.3042 43.6744 61.3534 30.5128C52.1015 8.01152 49.8843 5.62075 49.4509 5.43048Z" stroke="#A0A0A0" stroke-width="0.18893" stroke-miterlimit="10"/>
<path d="M7.95893 74.007C3.59967 63.4182 3.97473 51.8201 9.03414 40.4701C15.9106 25.0418 30.4887 12.3435 49.0426 5.61792L49.2343 6.14736C30.8387 12.815 16.3774 25.4058 9.56759 40.6935C4.56654 51.9028 4.19976 63.352 8.49233 73.7837L7.95893 74.007Z" stroke="#A0A0A0" stroke-width="0.18893" stroke-miterlimit="10"/>
<path d="M20.3532 40.5713C17.5943 31.3392 18.5028 24.6798 22.9787 21.3046C29.8219 16.126 44.3666 19.5342 61.8787 30.4044L61.5786 30.8759C44.2749 20.1216 29.9719 16.7216 23.3205 21.7761C19.0446 25.0024 18.2027 31.455 20.895 40.439L20.3532 40.5713Z" stroke="#A0A0A0" stroke-width="0.18893" stroke-miterlimit="10"/>
<path d="M3.34958 68.8363C0.84905 60.4314 2.30771 52.556 7.59216 46.0538C17.0692 34.3978 37.2984 28.5243 61.7703 30.3359L61.7286 30.8902C37.4901 29.0785 17.4109 34.861 8.05892 46.3764C2.89117 52.7297 1.45753 60.4397 3.89138 68.6461L3.34958 68.8363Z" stroke="#A0A0A0" stroke-width="0.18893" stroke-miterlimit="10"/>
<path d="M100.045 143.349C99.5199 143.349 98.0863 142.216 92.4684 129.443C61.0118 139.147 28.5133 131.313 12.1765 111.326C8.83484 107.97 6.37353 103.851 5.0083 99.3309L5.54176 99.1489C7.29474 103.4 9.66784 107.372 12.5849 110.937C15.4765 113.834 18.8379 116.228 22.5287 118.019C39.1238 126.291 63.454 126.018 87.6257 117.257L87.8841 117.167L87.9842 117.415C89.8596 121.965 91.4432 125.687 92.7852 128.765C94.091 128.351 95.394 127.91 96.6943 127.441L96.9777 127.342L97.0611 127.623C101.604 142.82 100.654 143.151 100.203 143.341C100.152 143.353 100.098 143.356 100.045 143.349ZM93.0102 129.286C98.1946 141.066 99.6783 142.596 100.003 142.77C100.17 142.389 100.228 140.214 96.6026 128.078C95.4107 128.5 94.2105 128.897 93.0102 129.277V129.286ZM15.8106 114.519C32.7975 131.677 62.9622 137.939 92.2517 128.93C90.9348 125.919 89.3844 122.271 87.5757 117.878C63.3456 126.605 38.9572 126.845 22.287 118.523C20.0062 117.394 17.8378 116.053 15.8106 114.519Z" stroke="#A0A0A0" stroke-width="0.18893" stroke-miterlimit="10"/>
<path d="M73.1475 147.395C49.5925 147.395 28.7298 136.451 21.0698 117.821L21.5866 117.614C32.0388 143.002 67.3129 153.947 100.228 142.018L100.42 142.539C91.685 145.728 82.4544 147.371 73.1475 147.395Z" stroke="#A0A0A0" stroke-width="0.18893" stroke-miterlimit="10"/>
<path d="M81.1992 141.728C67.388 141.728 55.1604 135.309 50.6594 124.356L51.1845 124.149C57.2692 138.924 77.7985 145.286 96.9775 138.337L97.1692 138.858C92.0564 140.735 86.6509 141.707 81.1992 141.728Z" stroke="#A0A0A0" stroke-width="0.18893" stroke-miterlimit="10"/>
<path d="M46.9253 139.669C44.9228 139.678 42.9267 139.442 40.9824 138.966C33.4808 137.096 28.2047 131.562 25.6208 122.967L26.1626 122.801C28.6631 131.206 33.8559 136.608 41.1658 138.428C53.8184 141.588 71.1721 133.705 87.5673 117.325L87.9673 117.722C73.8227 131.818 58.9695 139.669 46.9253 139.669Z" stroke="#A0A0A0" stroke-width="0.18893" stroke-miterlimit="10"/>
<path d="M69.5219 147.601C65.1043 147.601 61.2868 142.638 58.4529 133.166L58.9947 133.009C61.7453 142.191 65.3877 147.072 69.5219 147.072H69.5886C75.7732 146.998 82.4496 135.937 87.4507 117.481L88.0008 117.63C82.8497 136.657 76.14 147.552 69.5969 147.635L69.5219 147.601Z" stroke="#A0A0A0" stroke-width="0.18893" stroke-miterlimit="10"/>
<path d="M100.045 143.348C99.3948 143.348 97.3194 141.578 87.4589 117.629L87.3506 117.356L87.6256 117.257C125.784 103.433 151.031 72.8002 143.904 48.9918L144.429 48.8015C149.472 61.0531 149.039 74.4464 143.187 87.6163C135.252 105.411 118.482 120.069 97.136 127.879C101.595 142.827 100.653 143.15 100.203 143.315C100.153 143.336 100.099 143.347 100.045 143.348ZM88.0924 117.704C97.3527 140.172 99.5615 142.521 100.003 142.778C100.17 142.397 100.228 140.188 96.5192 127.796L96.4441 127.548L96.6942 127.457C118.015 119.73 134.769 105.121 142.671 87.4095C147.822 75.8279 148.73 64.0892 145.371 53.1115C148.647 76.3987 124.167 104.525 88.0924 117.687V117.704Z" stroke="#A0A0A0" stroke-width="0.18893" stroke-miterlimit="10"/>
<path d="M100.42 142.538L100.228 142.017C118.624 135.349 133.085 122.758 139.895 107.462C144.896 96.2529 145.271 84.8037 140.97 74.3721L141.487 74.157C145.846 84.7458 145.471 96.3439 140.412 107.702C133.535 123.122 118.966 135.82 100.42 142.538Z" stroke="#A0A0A0" stroke-width="0.18893" stroke-miterlimit="10"/>
<path d="M97.1692 138.883L96.9775 138.362C107.696 134.482 116.148 127.144 120.082 118.243C122.991 111.724 123.208 105.065 120.708 98.9927L121.233 98.7859C123.792 104.999 123.566 111.807 120.599 118.466C116.565 127.508 108.03 134.953 97.1692 138.883Z" stroke="#A0A0A0" stroke-width="0.18893" stroke-miterlimit="10"/>
<path d="M118.099 129.229C110.389 129.229 99.6949 125.283 87.5757 117.763L87.8758 117.283C105.171 128.038 119.474 131.446 126.134 126.383C130.401 123.157 131.243 116.704 128.559 107.729L129.101 107.563C131.86 116.787 130.952 123.447 126.467 126.83C124.358 128.451 121.525 129.229 118.099 129.229Z" stroke="#A0A0A0" stroke-width="0.18893" stroke-miterlimit="10"/>
<path d="M96.3525 118.135C93.5436 118.135 90.6513 118.028 87.7007 117.804V117.242C111.956 119.062 132.018 113.271 141.379 101.756C146.538 95.4024 147.972 87.6924 145.546 79.4943L146.088 79.3289C148.589 87.7255 147.138 95.6009 141.845 102.103C133.527 112.361 116.865 118.135 96.3525 118.135Z" stroke="#A0A0A0" stroke-width="0.18893" stroke-miterlimit="10"/>
<path d="M87.5673 117.879L87.4589 117.631C75.2897 88.0482 59.5613 44.4933 52.3932 20.5443L52.3181 20.2878L52.5682 20.1968C90.9929 6.26587 132.21 19.1048 144.429 48.8033C151.672 72.926 126.25 103.874 87.8173 117.788L87.5673 117.879ZM53.0099 20.6353C60.1781 44.5594 75.7731 87.709 87.8839 117.168C125.892 103.294 151.006 72.7605 143.904 49.0018C131.818 19.6426 91.0846 6.95248 53.0099 20.6353Z" stroke="#A0A0A0" stroke-width="0.18893" stroke-miterlimit="10"/>
<path d="M140.97 74.3648C130.518 48.9764 95.2523 38.0318 62.3287 49.9608L62.137 49.4397C95.344 37.4031 130.935 48.4966 141.495 74.1498L140.97 74.3648Z" stroke="#A0A0A0" stroke-width="0.18893" stroke-miterlimit="10"/>
<path d="M120.708 98.9904C114.623 84.2156 94.0853 77.8541 74.9146 84.803L74.7229 84.2735C94.177 77.2253 115.04 83.7358 121.233 98.7836L120.708 98.9904Z" stroke="#A0A0A0" stroke-width="0.18893" stroke-miterlimit="10"/>
<path d="M87.9258 117.72L87.5256 117.323C114.381 90.4786 130.426 49.2234 123.283 25.3654L123.825 25.2C131.018 49.273 114.915 90.7433 87.9258 117.72Z" stroke="#A0A0A0" stroke-width="0.18893" stroke-miterlimit="10"/>
<path d="M88.0008 117.597L87.4507 117.448C96.2609 84.9533 97.6111 39.0655 90.4513 15.1579L90.9931 15.0007C98.1779 38.9911 96.8276 85.0195 88.0008 117.597Z" stroke="#A0A0A0" stroke-width="0.18893" stroke-miterlimit="10"/>
<path d="M51.2096 124.593C40.374 124.593 30.3719 122.575 22.2785 118.521C13.41 114.095 7.44205 107.461 5.0082 99.3289C0.00714394 87.1103 0.407236 73.684 6.26681 60.5389C14.2268 42.6868 31.097 27.9782 52.5682 20.1938L52.8433 20.0945L52.935 20.384C60.0948 44.3082 75.8232 87.8466 87.9841 117.413L88.0924 117.686L87.8174 117.785C76.1044 122.142 63.7174 124.446 51.2096 124.593ZM52.4849 20.8225C31.2971 28.5821 14.6519 43.1583 6.79192 60.7706C0.999032 73.7667 0.565615 87.0442 5.55 99.1469C7.94217 107.146 13.8184 113.665 22.5369 118.017C39.0654 126.289 63.2789 126.024 87.359 117.355C75.2481 87.8962 59.6614 44.7632 52.4849 20.8225Z" stroke="#A0A0A0" stroke-width="0.18893" stroke-miterlimit="10"/>
<path d="M21.07 117.819C16.7108 107.238 17.0858 95.6404 22.1452 84.2822C29.0217 68.8539 43.5998 56.1555 62.1537 49.4382L62.3454 49.9594C43.9499 56.6271 29.4884 69.2179 22.6787 84.5055C17.6776 95.7231 17.3109 107.172 21.6035 117.596L21.07 117.819Z" stroke="#A0A0A0" stroke-width="0.18893" stroke-miterlimit="10"/>
<path d="M50.6595 124.379C48.109 118.167 48.3257 111.358 51.293 104.699C55.3272 95.6572 63.8623 88.2119 74.7229 84.2742L74.9146 84.8036C64.1957 88.6834 55.7439 96.0212 51.8098 104.922C48.9008 111.441 48.6841 118.101 51.1846 124.173L50.6595 124.379Z" stroke="#A0A0A0" stroke-width="0.18893" stroke-miterlimit="10"/>
<path d="M87.5758 117.764C57.6945 99.2082 27.5631 64.5793 20.3533 40.5724L20.895 40.407C28.0465 64.3063 58.0862 98.7946 87.8759 117.284L87.5758 117.764Z" stroke="#A0A0A0" stroke-width="0.18893" stroke-miterlimit="10"/>
<path d="M87.7008 117.803C48.3925 114.858 10.5511 92.8863 3.34961 68.838L3.89141 68.6726C11.0346 92.5306 48.6425 114.312 87.7424 117.241L87.7008 117.803Z" stroke="#A0A0A0" stroke-width="0.18893" stroke-miterlimit="10"/>
<path d="M72.4891 147.766C69.2571 147.664 66.034 147.371 62.8371 146.889C59.3291 146.317 55.8688 145.488 52.4849 144.407C49.2489 143.355 46.074 142.126 42.9746 140.726C39.0944 138.906 35.3774 136.761 31.8639 134.315C28.3097 131.833 24.9848 129.042 21.9285 125.976L21.3366 125.355C20.2281 124.206 18.9862 122.874 18.0693 121.798C16.844 120.309 14.5602 117.472 13.0265 115.18C11.6262 113.087 10.5844 111.391 9.9259 110.159C8.89235 108.231 7.67541 105.758 6.6752 103.582C6.42514 103.061 6.18345 102.531 5.96673 101.994C5.75002 101.456 5.53331 100.836 5.29159 100.207C4.78315 98.8668 4.24971 97.4852 3.8913 96.3023C3.34119 94.5319 2.7744 92.2735 2.2743 90.2799L2.00757 89.2127C1.43577 86.6831 1.03479 84.1184 0.80731 81.5358C0.482498 78.6412 0.35717 75.728 0.432221 72.8165C0.432221 72.3367 0.482246 71.799 0.498916 71.253C0.557262 69.888 0.62394 68.3411 0.757302 67.1167C1.01569 64.8335 1.42412 61.6072 1.9659 59.1834C3.55493 51.5461 6.36911 44.2115 10.301 37.4597C14.0057 31.0516 18.6553 25.2295 24.0956 20.1866C29.0033 15.6277 34.5201 11.7612 40.4907 8.69607C43.345 7.23786 46.2874 5.95594 49.3009 4.85761L50.7012 4.3778C51.7847 3.99727 52.91 3.60846 53.8685 3.36028C60.0615 1.75541 60.0615 1.75541 63.0371 1.30042C64.4374 1.07706 66.2961 0.795792 67.7048 0.704794C70.522 0.522798 74.2228 0.406982 76.9401 0.406982H77.0401C80.2617 0.504578 83.474 0.800204 86.6588 1.29215C90.154 1.87236 93.6025 2.70176 96.9776 3.77391C100.217 4.8235 103.395 6.05252 106.496 7.45519C110.379 9.2649 114.094 11.4102 117.599 13.8664C121.143 16.3351 124.457 19.1148 127.501 22.172L128.109 22.8008C129.201 23.9506 130.451 25.2411 131.36 26.3497C132.593 27.847 134.886 30.701 136.411 32.9677C139.208 37.1174 141.574 41.5383 143.471 46.1624C145.446 51.1259 145.446 51.1259 147.422 58.9352C147.998 61.467 148.402 64.0346 148.63 66.6204C148.954 69.5122 149.08 72.4226 149.005 75.3314C149.005 75.836 148.964 76.3903 148.939 76.9859C148.88 78.326 148.822 79.8565 148.689 81.056C148.43 83.3557 148.005 86.5986 147.48 88.9893C145.884 96.6247 143.07 103.958 139.145 110.713C137.223 114.022 135.052 117.183 132.652 120.169C130.408 122.946 127.965 125.558 125.342 127.986C120.451 132.53 114.954 136.385 109.005 139.444C106.149 140.9 103.207 142.185 100.195 143.29L98.803 143.762C97.7194 144.142 96.5942 144.531 95.6273 144.779H95.5523C92.5701 145.677 89.5326 146.381 86.4587 146.889H86.3837C85.0334 147.096 83.183 147.385 81.791 147.476C78.9488 147.642 75.2397 147.766 72.4891 147.766ZM9.58419 108.38C9.85091 108.91 10.1176 109.414 10.3676 109.886C11.0261 111.11 12.0347 112.781 13.4433 114.849C14.9603 117.133 17.2358 119.953 18.4443 121.467C19.3445 122.559 20.5865 123.858 21.6867 125L22.2785 125.62C28.3143 131.659 35.3661 136.606 43.1162 140.238C46.191 141.635 49.3441 142.856 52.5599 143.894C55.9192 144.946 59.3512 145.753 62.8287 146.31C65.9886 146.803 69.1756 147.107 72.3724 147.22H72.4891C75.1897 147.22 78.8905 147.104 81.7244 146.922C83.083 146.839 84.9251 146.55 86.267 146.343H86.3337C89.39 145.863 92.4111 145.183 95.3773 144.308H95.4523C96.3941 144.06 97.5111 143.671 98.5863 143.299L99.9949 142.753C102.986 141.659 105.906 140.383 108.738 138.931C114.657 135.901 120.129 132.079 125 127.572C127.602 125.162 130.025 122.568 132.252 119.813C134.634 116.851 136.787 113.715 138.695 110.432C142.584 103.724 145.37 96.444 146.947 88.8652C147.472 86.4993 147.888 83.273 148.147 80.9898C148.272 79.8068 148.338 78.2929 148.388 76.9528C148.388 76.382 148.438 75.8277 148.463 75.2983C148.533 72.4143 148.408 69.529 148.088 66.6617C147.86 64.107 147.462 61.5701 146.896 59.0676C144.921 51.2583 144.921 51.2583 142.962 46.3527C141.074 41.7678 138.726 37.3833 135.953 33.2655C134.452 31.0071 132.168 28.1696 130.951 26.6475C130.051 25.5555 128.818 24.265 127.726 23.1316L127.117 22.5029C124.093 19.4545 120.795 16.6855 117.265 14.2304C113.789 11.8116 110.108 9.69693 106.263 7.91018C103.184 6.51716 100.028 5.29643 96.8109 4.25372C93.4519 3.20101 90.0198 2.39366 86.5421 1.83814C83.3823 1.34333 80.1952 1.03943 76.9984 0.928156C74.2895 0.928156 70.547 1.04397 67.6964 1.22597C66.3211 1.31697 64.4708 1.59824 63.1205 1.81332C60.1282 2.27659 60.1282 2.27658 53.9519 3.86491C53.01 4.11309 51.9014 4.5019 50.8262 4.87416L49.4176 5.35397C46.436 6.44486 43.5244 7.71568 40.6991 9.15933C34.7715 12.1997 29.2939 16.0355 24.4206 20.5589C19.0287 25.5632 14.4186 31.3375 10.7427 37.6913C6.83977 44.4027 4.0481 51.6926 2.47433 59.2827C1.94088 61.6982 1.52413 64.8997 1.27407 67.1664C1.14071 68.3742 1.07404 69.9128 1.02403 71.2613C1.02403 71.8155 1.02402 72.3533 0.957336 72.8413C0.88317 75.7251 1.0057 78.6105 1.32408 81.4779C1.555 84.0328 1.95597 86.5697 2.52434 89.072L2.79107 90.1392C3.28284 92.1246 3.84961 94.3748 4.39139 96.1285C4.7498 97.295 5.28324 98.6682 5.79168 100L6.45018 101.779C6.6669 102.275 6.90025 102.796 7.1503 103.334C17.1524 123.949 51.8348 130.137 87.3506 117.356H87.4006L87.5339 117.306L87.7257 117.836C54.8437 129.74 22.5286 125.38 9.61751 108.38H9.58419Z" stroke="#A0A0A0" stroke-width="0.18893" stroke-miterlimit="10"/>
</g>
<path d="M6.2084 101.969C7.29196 104.451 8.87562 107.71 10.1592 110.101C10.9844 111.623 12.268 113.6 13.2432 115.065C14.5935 117.141 16.6606 119.755 18.2443 121.683C19.3278 122.965 20.9198 124.586 22.0951 125.819C25.1387 128.863 28.4497 131.631 31.9888 134.091C35.4835 136.532 39.1842 138.669 43.0495 140.478C46.136 141.877 49.3001 143.1 52.5265 144.143C55.8985 145.202 59.3447 146.012 62.837 146.566C66.0105 147.065 69.2115 147.371 72.4224 147.485C75.223 147.485 78.9571 147.361 81.7493 147.187C83.1496 147.096 85 146.806 86.392 146.591C89.3843 146.136 89.9677 145.987 95.5606 144.531C96.9525 144.176 98.7446 143.497 100.112 143.051C103.113 141.953 106.044 140.674 108.888 139.22C114.83 136.166 120.321 132.316 125.209 127.779C130.627 122.754 135.259 116.955 138.953 110.573C142.861 103.841 145.658 96.5323 147.238 88.9234C147.755 86.5822 148.172 83.4056 148.438 81.0231C148.63 79.3189 148.672 77.044 148.763 75.3316C148.826 72.4367 148.701 69.5408 148.388 66.6619C148.165 64.0892 147.762 61.535 147.18 59.0181C145.213 51.2419 145.213 51.2419 143.237 46.2784C141.348 41.6824 138.988 37.2914 136.194 33.1747C134.844 31.0983 132.777 28.4842 131.193 26.5567C130.11 25.2744 128.518 23.653 127.351 22.4204C124.303 19.3777 120.989 16.6094 117.449 14.1479C113.955 11.7095 110.257 9.57289 106.396 7.76148C103.306 6.36404 100.139 5.14051 96.9109 4.09674C93.5392 3.03674 90.0929 2.22657 86.6004 1.67289C83.427 1.17392 80.226 0.867268 77.015 0.754639C74.2144 0.754639 70.4886 0.878723 67.6964 1.06072C66.2961 1.14344 64.4374 1.43298 63.0537 1.64806C60.0698 2.10305 60.0698 2.10306 53.8851 3.70793C52.5015 4.06365 50.7094 4.75027 49.3425 5.19699C46.3402 6.29308 43.409 7.57225 40.5657 9.02718C34.6208 12.0775 29.1265 15.9244 24.2372 20.4598C21.63 22.8843 19.1985 25.4883 16.9607 28.2526C14.5711 31.229 12.4091 34.3786 10.4926 37.675C6.58846 44.4043 3.79424 51.7103 2.21591 59.3159C1.69079 61.6571 1.27403 64.842 1.00731 67.2245C0.823935 68.9204 0.782255 71.2036 0.690569 72.9077C0.62827 75.8053 0.753565 78.7039 1.06566 81.5856C1.28995 84.155 1.69098 86.7061 2.26591 89.2212C2.80769 91.3307 3.49117 94.2012 4.14131 96.2942C4.67476 98.0231 5.5916 100.265 6.2084 101.969ZM6.2084 101.969C15.2186 123.867 50.8679 130.923 87.7256 117.604C50.8679 130.964 15.2103 123.867 6.2084 101.969Z" stroke="#A0A0A0" stroke-width="0.18893" stroke-miterlimit="10"/>
<mask id="mask2_1_562" style="mask-type:luminance" maskUnits="userSpaceOnUse" x="0" y="0" width="150" height="149">
<path d="M5.70009 102.094C14.7853 124.165 50.7096 131.313 87.8258 117.812C50.6929 131.271 14.7853 124.124 5.70009 102.094C4.64153 99.4468 3.04956 94.748 2.70782 93.2755C2.2994 91.5217 1.65756 89.1971 1.36583 87.4185C0.932406 84.7961 0.532324 81.272 0.273936 78.6248C0.0527161 75.8723 0.0360028 73.1073 0.223927 70.3523C0.499908 66.5885 0.972878 62.8415 1.6409 59.1264C2.10587 56.7081 2.73238 54.3231 3.5163 51.9872C4.05808 50.4403 4.73323 48.3721 5.35003 46.8583C6.10852 45.0135 7.15873 42.5648 8.09226 40.8028C9.77317 37.4478 11.7244 34.2332 13.9268 31.1901C15.9782 28.3202 18.2374 25.6023 20.6866 23.0582C22.9944 20.6277 25.4765 18.3662 28.1132 16.2912C30.6509 14.2852 33.3152 12.4421 36.0899 10.7735C38.823 9.11685 41.6694 7.65179 44.6083 6.38901C45.9586 5.8513 47.7256 5.04886 49.1009 4.59388C54.9355 2.67465 55.4606 2.51747 58.2695 1.9053C61.0785 1.29313 64.7375 0.780228 67.5298 0.424509C68.9634 0.250785 70.8639 0.217695 72.3392 0.126697C75.591 0.0322463 78.8457 0.145541 82.0829 0.465874C89.116 1.17054 96.0134 2.85828 102.571 5.47903C106.226 6.93289 109.757 8.67572 113.131 10.6907C114.998 11.8241 117.415 13.4455 119.191 14.7195C120.533 15.6873 122.216 17.1268 123.508 18.1608C134.257 27.4126 142.11 39.5273 146.138 53.0709C147.139 56.5545 147.922 60.0965 148.48 63.6763C148.937 67.5512 149.182 71.4477 149.214 75.3489C149.234 78.0735 149.036 80.7955 148.622 83.4891C148.347 85.1436 148.047 87.3937 147.68 89.04C147.205 91.2074 146.513 94.0779 145.813 96.1792C144.608 100.029 143.078 103.77 141.237 107.364C139.462 110.888 139.078 111.5 135.402 116.976C133.363 119.855 131.103 122.574 128.643 125.108C126.332 127.533 123.85 129.791 121.216 131.867C116.17 135.869 110.622 139.205 104.713 141.794C100.307 143.699 95.7342 145.198 91.0515 146.269C87.9508 146.973 87.8341 146.981 81.7578 147.75C80.3242 147.932 78.4238 148.031 76.9484 148.056C66.6055 148.384 56.3078 146.561 46.7171 142.704C44.7009 141.921 42.7282 141.032 40.8075 140.04C37.9902 138.518 34.3061 136.326 31.6389 134.564C28.0519 132.088 24.7036 129.288 21.6368 126.2C18.3182 122.87 15.3238 119.236 12.6932 115.347C11.2013 113.105 9.35918 109.978 8.13392 107.604C7.37543 105.99 6.45858 103.74 5.70009 102.094Z" fill="white"/>
</mask>
<g mask="url(#mask2_1_562)">
<path d="M100.228 143.862C99.7115 143.862 98.2695 142.729 92.6017 129.857C60.9283 139.618 28.2131 131.751 11.7513 111.657C8.37023 108.274 5.87982 104.118 4.49976 99.5543L5.03321 99.364C6.80297 103.658 9.20152 107.669 12.1514 111.268C15.064 114.177 18.4443 116.584 22.1535 118.391C38.8737 126.738 63.3955 126.448 87.734 117.63L87.9924 117.531L88.0924 117.787C89.9761 122.362 91.5681 126.117 92.9268 129.203C94.2437 128.789 95.5551 128.345 96.8609 127.871L97.1443 127.772L97.2276 128.053C101.812 143.374 100.862 143.705 100.403 143.862C100.345 143.872 100.286 143.872 100.228 143.862ZM93.1435 129.683C98.3779 141.579 99.8115 143.109 100.195 143.283C100.362 142.902 100.428 140.727 96.7692 128.467C95.5856 128.897 94.3771 129.302 93.1435 129.683ZM15.377 114.792C32.489 132.082 62.8871 138.386 92.3766 129.302C91.043 126.266 89.4844 122.602 87.6673 118.176C63.2622 126.961 38.6903 127.209 21.8951 118.829C19.5987 117.704 17.4161 116.363 15.377 114.825V114.792Z" stroke="#A0A0A0" stroke-width="0.18893" stroke-miterlimit="10"/>
<path d="M81.2494 142.242C67.3382 142.242 55.0189 135.773 50.4929 124.771L51.0097 124.555C57.136 139.446 77.8321 145.849 97.1445 138.85L97.3362 139.38C92.1834 141.259 86.7389 142.227 81.2494 142.242Z" stroke="#A0A0A0" stroke-width="0.18893" stroke-miterlimit="10"/>
<path d="M73.1393 147.95C49.4093 147.95 28.3965 136.923 20.6782 118.169L21.195 117.954C31.7222 143.524 67.263 154.56 100.378 142.54L100.578 143.061C91.7894 146.267 82.503 147.922 73.1393 147.95Z" stroke="#A0A0A0" stroke-width="0.18893" stroke-miterlimit="10"/>
<path d="M46.7253 140.164C44.7084 140.175 42.6979 139.936 40.7407 139.453C33.2391 137.575 27.863 132.007 25.2625 123.321L25.8042 123.164C28.3047 131.635 33.5559 137.078 40.8824 138.882C53.6518 142.067 71.1221 134.125 87.6256 117.63L88.0257 118.018C73.8144 132.255 58.8612 140.164 46.7253 140.164Z" stroke="#A0A0A0" stroke-width="0.18893" stroke-miterlimit="10"/>
<path d="M69.4885 148.157C65.0376 148.157 61.1534 143.127 58.3362 133.606L58.8779 133.448C61.6535 142.705 65.3127 147.594 69.4885 147.594H69.5552C75.7898 147.52 82.5163 136.369 87.5507 117.813L88.0924 117.962C82.908 137.088 76.1566 148.107 69.5635 148.19L69.4885 148.157Z" stroke="#A0A0A0" stroke-width="0.18893" stroke-miterlimit="10"/>
<path d="M100.228 143.864C99.5783 143.864 97.4945 142.093 87.5674 117.962L87.4507 117.698L87.7258 117.598C126.167 103.659 151.598 72.8024 144.404 48.8038L144.938 48.6218C150.014 60.9645 149.58 74.4818 143.679 87.7261C135.694 105.644 118.791 120.411 97.2861 128.262C101.787 143.334 100.837 143.665 100.387 143.822C100.337 143.845 100.283 143.859 100.228 143.864ZM88.1925 118.02C97.5362 140.695 99.7533 143.069 100.195 143.285C100.362 142.904 100.428 140.695 96.686 128.179L96.6109 127.931L96.8526 127.84C118.332 120.055 135.194 105.347 143.171 87.4945C148.364 75.8468 149.28 63.9839 145.888 52.9153C149.214 76.401 124.525 104.759 88.1925 118.02Z" stroke="#A0A0A0" stroke-width="0.18893" stroke-miterlimit="10"/>
<path d="M97.3362 139.38L97.1445 138.851C107.98 134.938 116.432 127.551 120.424 118.583C123.358 112.007 123.575 105.347 121.058 99.1924L121.575 98.9773C124.15 105.24 123.934 112.098 120.941 118.831C116.882 127.915 108.28 135.41 97.3362 139.38Z" stroke="#A0A0A0" stroke-width="0.18893" stroke-miterlimit="10"/>
<path d="M100.62 143.054L100.42 142.533C118.957 135.816 133.519 123.126 140.429 107.722C145.43 96.4301 145.838 84.8982 141.512 74.3755L142.029 74.1687C146.413 84.832 146.038 96.5046 140.945 107.954C133.977 123.49 119.291 136.287 100.62 143.054Z" stroke="#A0A0A0" stroke-width="0.18893" stroke-miterlimit="10"/>
<path d="M118.424 129.651C110.664 129.651 99.8864 125.672 87.6755 118.069L87.9756 117.598C105.404 128.418 119.807 131.859 126.509 126.788C130.835 123.562 131.668 117.06 128.959 108.01L129.501 107.844C132.277 117.143 131.368 123.852 126.85 127.26C124.733 128.865 121.874 129.651 118.424 129.651Z" stroke="#A0A0A0" stroke-width="0.18893" stroke-miterlimit="10"/>
<path d="M96.5276 118.468C93.6826 118.468 90.7736 118.358 87.8008 118.137V117.583C112.223 119.411 132.444 113.579 141.871 101.981C147.08 95.5694 148.539 87.8098 146.038 79.529L146.58 79.3718C149.08 87.8346 147.638 95.7763 142.312 102.328C133.961 112.652 117.182 118.468 96.5276 118.468Z" stroke="#A0A0A0" stroke-width="0.18893" stroke-miterlimit="10"/>
<path d="M87.6675 118.209L87.5675 117.961C75.3065 88.1798 59.4532 44.2857 52.2266 20.1465L52.1516 19.89L52.4017 19.8073C91.1182 5.74399 132.635 18.6988 144.921 48.6206C152.198 72.917 126.584 104.047 87.8925 118.11L87.6675 118.209ZM52.8434 20.2375C60.0783 44.3519 75.79 87.8324 87.9842 117.498C126.276 103.525 151.581 72.7516 144.413 48.8356C132.252 19.2448 91.2099 6.45542 52.8434 20.2375Z" stroke="#A0A0A0" stroke-width="0.18893" stroke-miterlimit="10"/>
<path d="M121.058 99.189C114.931 84.2985 94.2353 77.8873 74.9229 84.8858L74.7229 84.3647C94.3187 77.2668 115.34 83.8187 121.574 98.974L121.058 99.189Z" stroke="#A0A0A0" stroke-width="0.18893" stroke-miterlimit="10"/>
<path d="M141.471 74.3727C130.943 48.8023 95.3941 37.775 62.2372 49.7868L62.0454 49.2656C95.4941 37.1381 131.352 48.3142 141.987 74.1659L141.471 74.3727Z" stroke="#A0A0A0" stroke-width="0.18893" stroke-miterlimit="10"/>
<path d="M88.0259 118.055L87.6257 117.666C114.681 90.6229 130.843 49.0534 123.642 25.0134L124.183 24.8562C131.435 49.0699 115.215 90.8876 88.0259 118.055Z" stroke="#A0A0A0" stroke-width="0.18893" stroke-miterlimit="10"/>
<path d="M88.0925 117.936L87.5508 117.788C96.4277 85.0614 97.7863 38.8261 90.5764 14.7282L91.1182 14.571C98.328 38.7434 96.9944 85.111 88.0925 117.936Z" stroke="#A0A0A0" stroke-width="0.18893" stroke-miterlimit="10"/>
<path d="M51.043 124.976C40.0991 124.976 30.0719 122.941 21.8702 118.863C12.935 114.404 6.92539 107.711 4.46654 99.5217C-0.601197 87.2039 -0.167807 73.6865 5.73344 60.4422C13.7518 42.4494 30.7387 27.6416 52.41 19.8075L52.6934 19.7L52.7767 19.9895C59.9866 44.1122 75.8233 87.9732 88.0842 117.754L88.1926 118.019L87.9175 118.118C76.1189 122.507 63.6419 124.827 51.043 124.976ZM52.3099 20.4279C30.9721 28.2455 14.2019 42.8962 6.27524 60.6656C0.440676 73.7693 0.00725073 87.1377 5.02498 99.3314C7.44215 107.405 13.36 113.974 22.1452 118.358C38.8154 126.672 63.1956 126.416 87.4507 117.696C75.2565 88.0228 59.5531 44.5589 52.3099 20.4279Z" stroke="#A0A0A0" stroke-width="0.18893" stroke-miterlimit="10"/>
<path d="M50.4928 124.768C47.9173 118.506 48.134 111.648 51.1263 104.914C55.1855 95.8146 63.7873 88.3031 74.723 84.3406L74.923 84.8617C64.0874 88.7829 55.6356 96.1703 51.6431 105.138C48.7091 111.706 48.4924 118.415 51.0096 124.529L50.4928 124.768Z" stroke="#A0A0A0" stroke-width="0.18893" stroke-miterlimit="10"/>
<path d="M20.6783 118.16C16.2857 107.489 16.6607 95.8245 21.7618 84.367C28.6883 68.8312 43.3747 56.0335 62.0453 49.2666L62.237 49.7878C43.7081 56.5051 29.1384 69.1952 22.2786 84.5986C17.2775 95.8906 16.8691 107.423 21.195 117.945L20.6783 118.16Z" stroke="#A0A0A0" stroke-width="0.18893" stroke-miterlimit="10"/>
<path d="M87.6757 118.096C57.5694 99.3996 27.188 64.5143 19.9531 40.3337L20.4949 40.1765C27.6964 64.2579 58.0028 99.0108 88.0092 117.641L87.6757 118.096Z" stroke="#A0A0A0" stroke-width="0.18893" stroke-miterlimit="10"/>
<path d="M87.8007 118.136C48.2006 115.167 10.0843 93.0375 2.78271 68.799L3.32452 68.6335C10.5177 92.6735 48.4173 114.629 87.8007 117.582V118.136Z" stroke="#A0A0A0" stroke-width="0.18893" stroke-miterlimit="10"/>
<path d="M65.2377 134.034C37.7319 134.034 13.4434 121.27 4.50823 99.5459C-2.75163 75.266 22.8454 44.1199 61.5453 30.0566L61.8036 29.9656L61.9037 30.2138C74.1562 60.028 89.9929 103.872 97.2194 128.02L97.2945 128.268L97.0527 128.359C86.8626 132.079 76.0951 133.999 65.2377 134.034ZM5.03334 99.3474C17.2109 128.922 58.2446 141.711 96.611 127.929C89.3761 103.815 73.6645 60.3341 61.4703 30.6605C23.1789 44.6411 -2.11816 75.4066 5.03334 99.3474Z" stroke="#A0A0A0" stroke-width="0.18893" stroke-miterlimit="10"/>
<path d="M59.9281 103.797C36.1981 103.797 15.1853 92.77 7.46704 74.0161L7.98381 73.8093C18.511 99.388 54.0602 110.407 87.1672 98.3953L87.3672 98.9165C78.5777 102.12 69.2913 103.771 59.9281 103.797Z" stroke="#A0A0A0" stroke-width="0.18893" stroke-miterlimit="10"/>
<path d="M25.2627 123.321C18.0195 99.0987 34.2395 57.281 61.4286 30.114L61.8287 30.5028C34.7647 57.5458 18.6112 99.1153 25.8044 123.155L25.2627 123.321Z" stroke="#A0A0A0" stroke-width="0.18893" stroke-miterlimit="10"/>
<path d="M58.3196 133.604C51.0847 109.424 52.485 63.0559 61.3369 30.2388L61.887 30.3794C53.0102 63.1138 51.6515 109.349 58.8614 133.447L58.3196 133.604Z" stroke="#A0A0A0" stroke-width="0.18893" stroke-miterlimit="10"/>
<path d="M96.7692 128.468L96.6859 128.178C89.4677 104.056 73.6227 60.1948 61.3618 30.4136L61.2534 30.1489L61.5284 30.0496C86.0253 21.1649 110.706 20.9002 127.551 29.3051C136.486 33.764 142.504 40.4565 144.954 48.6463C150.022 60.9641 149.589 74.4814 143.687 87.7258C135.669 105.71 118.682 120.526 97.0526 128.36L96.7692 128.468ZM61.9952 30.4715C74.1978 60.1451 89.8928 103.609 97.136 127.74C118.482 119.922 135.252 105.272 143.171 87.4941C149.005 74.3987 149.447 61.022 144.421 48.8283C142.012 40.7626 136.086 34.1942 127.301 29.8015C110.647 21.4958 86.2587 21.744 61.9952 30.4715Z" stroke="#A0A0A0" stroke-width="0.18893" stroke-miterlimit="10"/>
<path d="M87.4091 98.9101L87.209 98.3889C105.746 91.6633 120.308 78.9815 127.217 63.5781C132.218 52.286 132.627 40.7458 128.301 30.2314L128.818 30.0164C133.202 40.6797 132.827 52.3522 127.734 63.8097C120.766 79.3372 106.08 92.1349 87.4091 98.9101Z" stroke="#A0A0A0" stroke-width="0.18893" stroke-miterlimit="10"/>
<path d="M128.96 108.011C121.75 83.9292 91.4516 49.1762 61.4453 30.5465L61.7454 30.075C91.8434 48.7626 122.225 83.6562 129.468 107.837L128.96 108.011Z" stroke="#A0A0A0" stroke-width="0.18893" stroke-miterlimit="10"/>
<path d="M146.08 79.5266C138.895 55.5362 100.995 33.5395 61.6035 30.5862L61.6535 30.032C101.254 32.9936 139.37 55.1309 146.621 79.3694L146.08 79.5266Z" stroke="#A0A0A0" stroke-width="0.18893" stroke-miterlimit="10"/>
<path d="M144.429 48.8257C142.65 44.5346 140.249 40.5243 137.303 36.9215C134.387 34.0161 131.008 31.6093 127.301 29.7988C110.631 21.4601 86.0754 21.7414 61.7203 30.5682L61.4702 30.6592L61.3702 30.411C59.4865 25.8363 57.8861 22.0805 56.5358 18.9949C55.2189 19.4085 53.9103 19.8221 52.5934 20.3268L52.3099 20.426L52.2266 20.1448C47.6423 4.82403 48.6009 4.49313 49.0593 4.32768C49.5177 4.16223 50.4679 3.80652 56.8526 18.3083C88.5259 8.53841 121.249 16.4139 137.703 36.5079C141.08 39.8918 143.568 44.048 144.946 48.6106L144.429 48.8257ZM98.403 23.1808C109.355 23.1808 119.374 25.2159 127.576 29.2942C129.876 30.4299 132.062 31.7818 134.102 33.3312C116.99 16.0499 86.5922 9.7462 57.1026 18.8212C58.4279 21.8572 59.9866 25.5219 61.812 29.9477C73.526 25.6209 85.9049 23.3345 98.403 23.1891V23.1808ZM49.226 4.87367C49.0593 5.25421 48.9926 7.42989 52.6517 19.6898C53.852 19.2596 55.0689 18.8625 56.2775 18.4737C51.068 6.58609 49.6094 5.05566 49.2593 4.88194L49.226 4.87367Z" stroke="#A0A0A0" stroke-width="0.18893" stroke-miterlimit="10"/>
<path d="M128.259 30.2479C117.732 4.66923 82.1913 -6.35806 49.0259 5.66194L48.8342 5.14076C82.2746 -6.98678 118.141 4.18943 128.776 30.0328L128.259 30.2479Z" stroke="#A0A0A0" stroke-width="0.18893" stroke-miterlimit="10"/>
<path d="M61.8286 30.5038L61.4285 30.115C78.0987 13.4706 95.7691 5.47109 108.705 8.71393C116.207 10.5918 121.591 16.1592 124.183 24.8454L123.642 25.0026C121.141 16.5315 115.898 11.0799 108.572 9.28474C95.8274 6.05845 78.3237 14.0084 61.8286 30.5038Z" stroke="#A0A0A0" stroke-width="0.18893" stroke-miterlimit="10"/>
<path d="M61.9036 30.381L61.3535 30.2403C66.5379 11.1142 73.2894 0.0951766 79.8824 0.0124512H79.9908C84.4417 0.0124512 88.3259 5.04215 91.1515 14.5638L90.6097 14.721C87.8007 5.43096 84.1583 0.57499 79.9908 0.57499H79.9241C73.6644 0.649443 66.938 11.7926 61.9036 30.381Z" stroke="#A0A0A0" stroke-width="0.18893" stroke-miterlimit="10"/>
<path d="M4.50818 99.5473C-0.576228 87.2047 -0.142803 73.6874 5.75844 60.443C13.7518 42.5247 30.647 27.7582 52.1515 19.9076C47.6506 4.84329 48.6008 4.51239 49.0593 4.34694C49.5177 4.18149 50.9513 3.64378 61.887 30.2234L61.9953 30.4882L61.7203 30.5874C23.2872 44.5184 -2.15155 75.3832 5.04164 99.3819L4.50818 99.5473ZM49.2593 4.88465C49.0926 5.26519 49.0259 7.47397 52.7684 19.9903L52.8434 20.2385L52.5933 20.3295C31.1138 28.1139 14.2519 42.8142 6.27521 60.6664C1.08245 72.3224 0.165583 84.1852 3.55797 95.2539C0.223929 71.7598 24.9292 43.4099 61.2535 30.149C51.9182 7.47397 49.6927 5.09974 49.2593 4.88465Z" stroke="#A0A0A0" stroke-width="0.18893" stroke-miterlimit="10"/>
<path d="M7.47539 73.9995C3.0828 63.3362 3.45787 51.6636 8.55894 40.2144C15.4854 24.6786 30.1635 11.881 48.8425 5.11401L49.0342 5.63519C30.5052 12.3525 15.9355 25.0426 9.07572 40.446C4.07466 51.7381 3.66625 63.27 7.99216 73.7927L7.47539 73.9995Z" stroke="#A0A0A0" stroke-width="0.18893" stroke-miterlimit="10"/>
<path d="M19.9781 40.3161C17.1942 31.0261 18.111 24.3088 22.6203 20.9088C29.5301 15.6971 44.1665 19.1301 61.7952 30.0747L61.4952 30.5463C44.0665 19.7258 29.6635 16.2927 22.9537 21.3472C18.6445 24.6066 17.8026 31.1088 20.5115 40.1589L19.9781 40.3161Z" stroke="#A0A0A0" stroke-width="0.18893" stroke-miterlimit="10"/>
<path d="M2.82436 68.7976C0.323829 60.3348 1.77414 52.3932 7.10026 45.8414C16.6439 34.0943 37.0233 28.1878 61.6535 30.0325L61.6034 30.5868C37.165 28.7586 16.9607 34.5907 7.5337 46.1888C2.33261 52.6 0.86563 60.3596 3.36616 68.6322L2.82436 68.7976Z" stroke="#A0A0A0" stroke-width="0.18893" stroke-miterlimit="10"/>
<path d="M74.748 148.339C65.1181 148.378 55.5732 146.549 46.6504 142.954C45.2418 142.383 42.5912 141.3 40.7158 140.274C37.8652 138.735 34.1644 136.526 31.5472 134.781C27.9604 132.293 24.6122 129.482 21.5451 126.384C18.2076 123.033 15.1989 119.373 12.5599 115.456C10.9762 113.082 9.15914 109.889 7.98389 107.688C7.40044 106.596 6.80032 105.206 6.2252 103.916L6.11684 103.676C5.87512 103.18 5.65008 102.683 5.4417 102.17C4.38314 99.5149 2.77448 94.7913 2.43274 93.3022C2.30772 92.7811 2.16602 92.202 2.01599 91.6064C1.66591 90.1752 1.29918 88.6862 1.09081 87.4701C0.632376 84.7071 0.257299 81.1085 -0.0010893 78.6598C-0.223737 75.9074 -0.243243 73.1425 -0.059441 70.3873C0.230888 66.6064 0.71775 62.8429 1.3992 59.1118C1.8648 56.6792 2.49408 54.2803 3.28289 51.9313C3.43292 51.5011 3.59964 51.0296 3.76634 50.5415C4.19143 49.3006 4.67486 47.8943 5.11662 46.794C5.70841 45.3546 6.85032 42.6578 7.87553 40.722C9.56253 37.3572 11.5134 34.1293 13.7101 31.0679C15.775 28.1861 18.0452 25.4546 20.5032 22.8947C22.8195 20.4612 25.3099 18.1969 27.9548 16.1194C30.4978 14.1013 33.1707 12.2498 35.9565 10.5768C38.7091 8.91691 41.5718 7.44379 44.525 6.16758C44.9584 6.00213 45.4335 5.80359 45.9169 5.59677C46.9838 5.15006 48.084 4.6868 49.0342 4.37244C54.9271 2.44494 55.4022 2.28776 58.2695 1.6756C61.2785 1.03034 65.3794 0.467799 67.5548 0.194806C68.555 0.0707175 69.772 0.0128108 70.9472 -0.0368245L72.3808 -0.111274C75.6466 -0.206312 78.9151 -0.0930179 82.1662 0.227903C93.185 1.3234 103.825 4.8144 113.331 10.4528C115.09 11.5199 117.499 13.1413 119.407 14.4898C120.391 15.2012 121.558 16.1443 122.591 16.9715L123.75 17.9146C134.537 27.2002 142.419 39.3575 146.463 52.9488C147.47 56.4483 148.255 60.0069 148.814 63.6038C149.267 67.4929 149.515 71.4029 149.555 75.3177C149.577 78.0565 149.377 80.7925 148.955 83.4993C148.88 83.9625 148.805 84.4672 148.722 84.9883C148.522 86.3368 148.28 87.8672 148.013 89.075C147.563 91.1348 146.863 94.0385 146.138 96.239C144.932 100.101 143.396 103.854 141.545 107.457C139.77 110.997 139.387 111.593 135.711 117.078C133.655 119.976 131.379 122.714 128.901 125.267C126.584 127.699 124.097 129.966 121.458 132.051C116.388 136.055 110.819 139.391 104.888 141.978C100.464 143.892 95.871 145.396 91.1681 146.47C88.0758 147.165 87.9591 147.181 81.9495 147.942H81.8495C80.3242 148.133 78.3487 148.224 77.0068 148.248L74.748 148.339ZM9.07579 108.557C10.2094 110.625 11.7097 113.198 13.0266 115.175C15.644 119.049 18.6246 122.669 21.9285 125.987C24.9771 129.056 28.2997 131.844 31.8556 134.317C34.4978 136.055 38.1819 138.255 41.0242 139.786C42.8829 140.787 45.5085 141.87 46.9088 142.433C56.4615 146.278 66.7204 148.093 77.0235 147.76C78.6223 147.742 80.2192 147.643 81.8078 147.463H81.8995C87.8841 146.71 88.0008 146.693 91.0681 145.998C95.7376 144.935 100.297 143.442 104.688 141.539C110.572 138.97 116.094 135.653 121.116 131.67C123.739 129.6 126.212 127.35 128.518 124.936C130.963 122.413 133.212 119.708 135.244 116.846C138.937 111.336 139.32 110.766 141.079 107.258C142.92 103.68 144.448 99.9521 145.646 96.1149C146.363 93.9558 147.055 91.0521 147.505 89.0005C147.772 87.8175 148.005 86.2954 148.213 84.9552C148.288 84.4258 148.372 83.9212 148.447 83.4579C148.857 80.7834 149.055 78.0809 149.039 75.3756C148.999 71.4855 148.751 67.6003 148.297 63.7362C147.742 60.1733 146.965 56.648 145.971 53.1804C141.964 39.7049 134.155 27.6488 123.467 18.4358L122.308 17.4844C121.283 16.6572 120.116 15.6893 119.157 15.0027C117.282 13.6625 114.856 12.0494 113.114 10.9905C100.873 3.67479 86.7724 0.00235338 72.4892 0.409887L71.0389 0.476069C69.8803 0.533977 68.6801 0.583611 67.7048 0.707699C65.5377 0.980693 61.4535 1.53496 58.4695 2.18022C55.6356 2.78412 55.1355 2.94129 49.3009 4.86052C48.3591 5.1666 47.2672 5.6216 46.217 6.06831L44.8083 6.64739C41.8787 7.90957 39.0407 9.37179 36.3149 11.0236C33.529 12.6781 30.856 14.5131 28.3132 16.5165C25.6848 18.5801 23.2111 20.8306 20.9116 23.2504C18.4777 25.7873 16.2298 28.4938 14.1852 31.3492C11.9852 34.3823 10.0341 37.5858 8.35064 40.9288C7.33376 42.848 6.19187 45.5366 5.60841 46.9677C5.16665 48.0432 4.68322 49.4495 4.25813 50.6821C4.09143 51.1702 3.93306 51.65 3.78302 52.0802C2.99772 54.4009 2.37391 56.7724 1.91597 59.178C1.23957 62.8871 0.758228 66.6285 0.473966 70.3873C0.289611 73.1231 0.306324 75.8686 0.523975 78.6019C0.749022 81.0837 1.15748 84.6326 1.60758 87.3791C1.81595 88.6117 2.18269 90.0842 2.53276 91.5154C2.68279 92.111 2.82449 92.6901 2.94951 93.2195C3.79428 96.1933 4.79022 99.1228 5.93349 101.997C6.14187 102.452 6.36691 102.965 6.60029 103.494C14.3686 119.617 37.0817 127.013 63.5623 123.555C71.7357 122.453 79.7647 120.475 87.509 117.657L87.6591 117.607L87.8507 118.128C54.6521 130.181 22.0452 125.772 9.07579 108.557Z" stroke="#A0A0A0" stroke-width="0.18893" stroke-miterlimit="10"/>
</g>
<path d="M5.70009 102.094C14.7853 124.165 50.7096 131.313 87.8258 117.812C50.6929 131.271 14.7853 124.124 5.70009 102.094ZM5.70009 102.094C4.64153 99.4468 3.04956 94.748 2.70782 93.2755C2.2994 91.5217 1.65756 89.1971 1.36583 87.4185C0.932406 84.7961 0.532324 81.272 0.273936 78.6248C0.0527161 75.8723 0.0360028 73.1073 0.223927 70.3523C0.499908 66.5885 0.972878 62.8415 1.6409 59.1264C2.10587 56.7081 2.73238 54.3231 3.5163 51.9872C4.05808 50.4403 4.73323 48.3721 5.35003 46.8583C6.10852 45.0135 7.15873 42.5648 8.09226 40.8028C9.77317 37.4479 11.7244 34.2332 13.9268 31.1901C15.9782 28.3202 18.2374 25.6023 20.6866 23.0582C22.9944 20.6277 25.4765 18.3662 28.1132 16.2912C30.6509 14.2852 33.3152 12.4421 36.0899 10.7735C38.823 9.11684 41.6694 7.65179 44.6083 6.38901C45.9586 5.8513 47.7256 5.04886 49.1009 4.59388C54.9355 2.67465 55.4606 2.51747 58.2695 1.9053C61.0785 1.29313 64.7375 0.780228 67.5298 0.424509C68.9634 0.250785 70.8639 0.217695 72.3392 0.126697C75.591 0.0322463 78.8457 0.145541 82.0829 0.465874C89.116 1.17054 96.0134 2.85828 102.571 5.47903C106.226 6.93289 109.757 8.67572 113.131 10.6907C114.998 11.8241 117.415 13.4455 119.191 14.7195C120.533 15.6873 122.216 17.1268 123.508 18.1608C134.257 27.4126 142.11 39.5273 146.138 53.0709C147.139 56.5545 147.922 60.0965 148.48 63.6763C148.937 67.5512 149.182 71.4477 149.214 75.3489C149.234 78.0735 149.036 80.7955 148.622 83.4891C148.347 85.1436 148.047 87.3937 147.68 89.04C147.205 91.2074 146.513 94.0779 145.813 96.1792C144.608 100.029 143.078 103.77 141.237 107.364C139.462 110.888 139.078 111.5 135.402 116.976C133.363 119.855 131.103 122.574 128.643 125.108C126.332 127.533 123.85 129.791 121.216 131.867C116.17 135.869 110.622 139.205 104.713 141.794C100.307 143.699 95.7342 145.198 91.0515 146.269C87.9508 146.973 87.8341 146.981 81.7578 147.75C80.3242 147.932 78.4238 148.031 76.9484 148.056C66.6055 148.384 56.3078 146.561 46.7171 142.704C44.7009 141.921 42.7282 141.032 40.8075 140.04C37.9902 138.518 34.3061 136.326 31.6389 134.564C28.0519 132.088 24.7036 129.288 21.6368 126.2C18.3182 122.87 15.3238 119.236 12.6932 115.347C11.2013 113.105 9.35918 109.978 8.13392 107.604C7.37543 105.99 6.45858 103.74 5.70009 102.094Z" stroke="#A0A0A0" stroke-width="0.18893" stroke-miterlimit="10"/>
</svg>
