<svg width="1172" height="387" viewBox="0 0 1172 387" fill="none" xmlns="http://www.w3.org/2000/svg">
<g clip-path="url(#clip0_1_709)">
<path d="M869.977 117.317L901.857 177.184L934.533 220.042L968.393 242.446" stroke="#F5F5F5" stroke-width="1.08501" stroke-linecap="round" stroke-linejoin="round"/>
<path d="M752.526 108.726L785.216 160.49L817.827 218.721L851.234 255.566L885.518 276.052" stroke="#F5F5F5" stroke-width="1.08501" stroke-linecap="round" stroke-linejoin="round"/>
<path d="M723.103 133.829L755.979 183.577L788.949 235.178L822.582 268.816L857.026 287.613" stroke="#F5F5F5" stroke-width="1.08501" stroke-linecap="round" stroke-linejoin="round"/>
<path d="M781.338 95.8254L813.922 144.144L846.32 202.613L879.449 242.557L913.574 264.679" stroke="#F5F5F5" stroke-width="1.08501" stroke-linecap="round" stroke-linejoin="round"/>
<path d="M630.067 163.622L662.983 211.138L696.218 245.286L729.878 272.446L763.962 295.651L798.672 311.273L828.081 299.346L857.025 287.613L885.518 276.053L913.572 264.678L941.188 253.476L968.393 242.447L995.185 231.581L1021.58 220.877" stroke="#F5F5F5" stroke-width="1.08501" stroke-linecap="round" stroke-linejoin="round"/>
<path d="M846.944 36.196L789.188 30.3132L762.329 40.7894L750.946 47.7771L734.966 57.5925L707.084 87.6342L675.842 87.7425L644.878 118.25L614.672 138.379L586.936 147.869L558.802 157.49L530.257 167.251L501.312 177.164L471.93 187.206L442.175 177.846L412.779 166.547L383.263 137.317L354.332 119.821L325.8 104.524L295.833 114.772L265.759 132.54L235.526 155.269L204.669 172.418L173.228 186.351L145.293 174.867L113.479 189.514L86.1025 180.533L59.071 171.454L32.4778 163.492L0 173.339" stroke="#F5F5F5" stroke-width="1.08501" stroke-linecap="round" stroke-linejoin="round"/>
<path d="M630.067 163.622L599.569 199.99L568.804 236.001L537.708 267.495L506.24 294.633L474.267 313.798L441.71 327.578L409.192 316.225" stroke="#F5F5F5" stroke-width="1.08501" stroke-linecap="round" stroke-linejoin="round"/>
<path d="M878.704 48.9347L890.885 60.7867" stroke="#F5F5F5" stroke-width="1.08501" stroke-linecap="round" stroke-linejoin="round"/>
<path d="M660.072 153.46L693.094 177.803L726.157 219.924L759.657 251.613L793.503 281.719L828.079 299.346" stroke="#F5F5F5" stroke-width="1.08501" stroke-linecap="round" stroke-linejoin="round"/>
<path d="M752.526 108.726L723.104 133.828L693.097 177.802L662.983 211.137L632.605 237.387L601.88 261.849L570.784 290.104L539.276 311.457L507.277 326.57L474.268 313.797L441.71 300.147L409.604 286.615L378.003 275.142L346.947 266.714L314.483 283.148" stroke="#F5F5F5" stroke-width="1.08501" stroke-linecap="round" stroke-linejoin="round"/>
<path d="M995.185 231.582L961.325 211.638L928.582 174.749L896.596 124.773L864.384 84.4288L848.218 76.8668L831.601 69.0883L798.95 63.3789L766.871 53.4878L734.965 57.5938L703.563 63.7689L702.155 64.9606L700.335 66.5207L676.651 86.7364L675.11 87.7438L672.493 89.9431L642.101 114.568L612.413 120.429L585.036 129.659L557.26 139.02L529.113 148.521L499.797 138.684L471.224 149.181L442.24 158.823L412.778 166.548L382.997 178.53L352.724 188.594L322 198.811L290.744 207.066L261.826 198.659L233.108 186.341L204.668 172.42L176.574 158.499L149.33 153.45L117.915 166.613L86.1014 180.534L53.6635 192.072" stroke="#F5F5F5" stroke-width="1.08501" stroke-linecap="round" stroke-linejoin="round"/>
<path d="M612.412 120.427L639.497 95.0005L669.384 77.7643" stroke="#F5F5F5" stroke-width="1.08501" stroke-linecap="round" stroke-linejoin="round"/>
<path d="M624.488 146.286L644.878 118.249L672.494 89.9403L675.243 87.741L676.651 86.7336L700.335 66.5179L703.563 63.7661L721.828 53.9725L730.834 49.1407L739.482 44.7314L757.759 35.3928" stroke="#F5F5F5" stroke-width="1.08501" stroke-linecap="round" stroke-linejoin="round"/>
<path d="M345.591 294.015L378.003 275.143L409.843 251.58L431.269 239.229L441.391 233.401L452.482 230.248L467.851 225.893L472.673 224.517L498.057 215.265L504.008 212.622L526.483 204.388L535.994 200.9" stroke="#F5F5F5" stroke-width="1.08501" stroke-linecap="round" stroke-linejoin="round"/>
<path d="M377.168 305.033L409.606 286.616L441.3 254.277" stroke="#F5F5F5" stroke-width="1.08501" stroke-linecap="round" stroke-linejoin="round"/>
<path d="M1073.2 199.957L1039.36 185.7L1013.73 194.334L987.723 203.066L961.329 211.636L934.537 220.043L907.266 229.674L879.451 242.555L851.237 255.566L822.585 268.816L793.508 281.719L763.965 295.651L733.985 309.81L703.54 322.995L672.616 336.31L638.186 324.154L604.26 308.586L570.786 290.104L537.711 267.494L504.967 241.678L472.782 228.991L441.394 233.401L410.523 236.152L379.998 231.613L350.004 228.926L320.21 218.981L290.747 207.064L259.186 219.707L230.229 209.902L201.55 198.343L169.497 209.772L136.967 221.159" stroke="#F5F5F5" stroke-width="1.08501" stroke-linecap="round" stroke-linejoin="round"/>
<path d="M676.214 360.925L641.199 349.073L609.266 361.802L576.815 374.749L542.265 362.691" stroke="#F5F5F5" stroke-width="1.08501" stroke-linecap="round" stroke-linejoin="round"/>
<path d="M776.504 75.7168L809.539 89.7572L842.203 128.975L874.415 186.437L907.265 229.674L941.19 253.475" stroke="#F5F5F5" stroke-width="1.08501" stroke-linecap="round" stroke-linejoin="round"/>
<path d="M283.837 272.445L316.342 258.275L348.328 242.674L379.995 231.613L411.37 228.19L437.114 231.18" stroke="#F5F5F5" stroke-width="1.08501" stroke-linecap="round" stroke-linejoin="round"/>
<path d="M644.32 373.859L611.908 387L576.814 374.747" stroke="#F5F5F5" stroke-width="1.08501" stroke-linecap="round" stroke-linejoin="round"/>
<path d="M253.619 261.892L286.176 249.379L318.202 235.609L348.329 242.673L378.88 248.458L410.521 236.151L441.857 231.72L457.358 228.102" stroke="#F5F5F5" stroke-width="1.08501" stroke-linecap="round" stroke-linejoin="round"/>
<path d="M441.711 327.577L474.72 339.104L508.234 350.804L540.765 338.248L572.765 325.107L606.73 337.316L638.185 324.154L669.175 308.921L699.726 291.598L729.88 272.444L759.661 251.611L788.951 235.177L817.828 218.72L846.321 202.611L874.415 186.436L901.859 177.184L928.585 174.747L954.859 172.645L980.748 169.384L1006.27 165.105L1031.44 160.024L1064.58 177.141L1098.45 189.719" stroke="#F5F5F5" stroke-width="1.08501" stroke-linecap="round" stroke-linejoin="round"/>
<path d="M81.0537 201.637L113.478 189.514L141.294 199.481L173.227 186.351L201.547 198.344L233.108 186.34L263.978 169.158L294.198 145.399L324.391 130.308L354.331 119.821L384.086 117.633L413.203 108.955L441.882 98.3922L470.295 96.6372L481.692 105.954L499.066 120.157L527.984 130.297L555.773 121.056L583.176 111.934L610.208 102.942L639.498 95.0013L666.303 72.879L689.429 67.3863L699.02 62.5437L699.844 61.9803L702.965 60.5937L720.194 53.5518L730.834 49.1424L743.466 45.7949L762.328 40.7897L794.115 42.3389L820.815 36.7488L852.801 45.7515L878.703 48.9366L892.239 60.6478L902.693 70.1055L903.41 70.7448L934.786 96.4531L935.516 96.9297L938.943 98.869L953.821 107.503L959.054 110.537L975.738 119.139L990.961 126.982L1015.2 129.03L1047.71 139.04L1071.9 133.244L1104.81 142.009" stroke="#F5F5F5" stroke-width="1.08501" stroke-linecap="round" stroke-linejoin="round"/>
<path d="M1172 159.894L1138.18 150.891L1114.04 159.038L1089.48 168.203L1064.58 177.141L1039.35 185.7L1006.26 165.105L973.719 140.978L948.361 138.465L916.481 101.814L908.577 91.685L886.328 63.1924L884.96 61.4482L852.801 45.7503L826.128 52.4779L794.115 42.3376L766.871 53.4855L739.069 74.8278L711.041 90.2008L682.496 117.642L653.631 149.125L621.95 162.71L612.705 169.59" stroke="#F5F5F5" stroke-width="1.08501" stroke-linecap="round" stroke-linejoin="round"/>
<path d="M223.823 251.493L256.446 240.497L288.565 229.652L318.201 235.611L350.001 228.926L381.163 218.255L411.37 228.19L442.054 217.54L472.287 207.042L496.715 214.843" stroke="#F5F5F5" stroke-width="1.08501" stroke-linecap="round" stroke-linejoin="round"/>
<path d="M26.6584 182.646L59.0698 171.455L91.0692 160.978L117.915 166.612L145.292 174.867L176.574 158.497L207.484 142.691L237.916 125.498L264.191 111.49L268.029 109.443L287.476 100.83L291.939 98.8581L297.864 96.2363L309.978 91.7296L321.163 87.5694L327.379 85.251L355.447 97.2005L384.086 117.633L413.043 139.268L442.24 158.822L471.57 167.923L500.541 158.151L529.113 148.52L558.801 157.49L588.888 166.579L616.995 156.602L635.898 142.106" stroke="#F5F5F5" stroke-width="1.08501" stroke-linecap="round" stroke-linejoin="round"/>
<path d="M165.509 231.126L198.106 220.433L230.225 209.903L261.826 198.658L292.67 180.132" stroke="#F5F5F5" stroke-width="1.08501" stroke-linecap="round" stroke-linejoin="round"/>
<path d="M707.575 348.204L676.213 360.923L644.32 373.858L609.265 361.801L574.755 349.938L542.264 362.689L508.232 350.804" stroke="#F5F5F5" stroke-width="1.08501" stroke-linecap="round" stroke-linejoin="round"/>
<path d="M738.431 335.702L707.574 348.204L672.612 336.309L641.197 349.071L606.727 337.316L574.754 349.938L540.762 338.248L507.275 326.569L474.718 339.104" stroke="#F5F5F5" stroke-width="1.08501" stroke-linecap="round" stroke-linejoin="round"/>
<path d="M689.657 140.557L723.104 133.829" stroke="#F5F5F5" stroke-width="1.08501" stroke-linecap="round" stroke-linejoin="round"/>
<path d="M679.108 103.864L707.083 87.6349L739.069 74.8294L771.454 71.6769L800.106 69.8568L804.356 69.5859L837.405 80.463L869.976 117.319L896.596 124.773L922.658 133.266L948.361 138.466L951.097 141.077L980.746 169.386L1013.73 194.336L1047.57 210.337" stroke="#F5F5F5" stroke-width="1.08501" stroke-linecap="round" stroke-linejoin="round"/>
<path d="M32.4788 163.492L64.4915 153.774L91.0714 160.979L122.619 150.73L149.332 153.449L170.413 143.926L180.282 139.463L196.926 132.031L210.834 125.813L221.885 121.447L241.053 113.863L258.654 110.981L268.032 109.443L295.834 114.773L324.393 130.309L353.722 159.549L382.999 178.529L412.355 187.9L442.123 197.412L472.289 207.043L502.084 196.708L531.44 186.514L560.371 176.482L588.89 166.58L610.409 166.872" stroke="#F5F5F5" stroke-width="1.08501" stroke-linecap="round" stroke-linejoin="round"/>
<path d="M650.698 127.717L651.203 127.392L679.111 103.861L711.044 90.1998L743.562 78.5645L776.504 75.7152L804.359 69.5834L831.604 69.0851L858.529 64.3833L884.963 61.4473L910.121 79.5287L934.788 96.4509L935.519 96.9275L941.31 101.391L947.58 106.136L949.068 107.263L949.347 107.479L964.025 118.606L966.522 120.502L998.774 140.869L1023.4 140.652L1047.71 139.038L1080.65 149.113L1104.81 142.006L1138.18 150.89" stroke="#F5F5F5" stroke-width="1.08501" stroke-linecap="round" stroke-linejoin="round"/>
<path d="M768.799 323.385L738.433 335.703L703.538 322.995L669.174 308.922L635.301 290.397L601.881 261.85L568.805 236.001L535.995 200.9" stroke="#F5F5F5" stroke-width="1.08501" stroke-linecap="round" stroke-linejoin="round"/>
<path d="M64.4912 153.775L96.0524 144.209L122.619 150.731L153.715 140.384L162.575 137.362L184.373 129.919L196.209 125.986L214.606 119.865L241.053 113.864L251.414 110.321L259.012 107.721L270.941 103.637L282.311 100.517L297.866 96.2371L325.8 104.525L355.449 97.2014L384.739 92.6621L413.205 108.956L442.083 129.67L471.226 149.181L500.543 158.152L530.257 167.252L560.37 176.482L576.257 181.346" stroke="#F5F5F5" stroke-width="1.08501" stroke-linecap="round" stroke-linejoin="round"/>
<path d="M669.704 149.257L689.656 140.558L718.906 122.184L752.526 108.728L781.337 95.8254" stroke="#F5F5F5" stroke-width="1.08501" stroke-linecap="round" stroke-linejoin="round"/>
<path d="M798.673 311.274L768.799 323.386L733.983 309.811L699.726 291.6L665.973 266.314L632.605 237.388L599.569 199.99L566.866 185.343L562.801 187.142L562.682 187.196L562.496 187.272L560.37 188.214L534.813 199.514L524.691 203.826L504.009 212.622L498.058 215.266L472.78 228.992L470.535 230.812L441.299 254.278L409.844 251.58L378.88 248.46L346.947 266.715L316.343 258.276L286.176 249.381L256.448 240.497L227.079 230.39L198.108 220.434L169.496 209.773L141.295 199.481L108.818 211.333" stroke="#F5F5F5" stroke-width="1.08501" stroke-linecap="round" stroke-linejoin="round"/>
<path d="M96.0518 144.206L127.161 134.77L157.846 125.464L188.105 116.288L217.939 107.231L247.375 98.3039L276.399 89.507L305.038 80.8184L333.292 72.2489L361.16 63.7988L387.899 70.6456L414.984 78.2183L442.401 84.5344L470.03 82.3243L498.363 101.922L525.846 95.2813L552.918 86.5169L579.617 77.8717L605.985 67.7531L631.98 60.3644L657.644 51.5784L682.962 43.9948L707.948 36.3354L736.241 43.8648L737.742 44.2656" stroke="#F5F5F5" stroke-width="1.08501" stroke-linecap="round" stroke-linejoin="round"/>
<path d="M356.697 80.8513L359.978 82.2272L384.738 92.66L413.629 90.2008L427.152 88.5866L442.056 86.8207L470.296 96.6359L498.364 101.923L526.896 112.551L555.774 121.055L585.037 129.657L608.854 136.666" stroke="#F5F5F5" stroke-width="1.08501" stroke-linecap="round" stroke-linejoin="round"/>
<path d="M869.977 117.317L842.202 128.974L813.922 144.142L785.216 160.49L755.98 183.576L726.159 219.923L696.218 245.285L665.972 266.313L635.301 290.396L604.258 308.586L572.763 325.107L539.276 311.457L506.24 294.632L473.577 274.806L441.298 254.276" stroke="#F5F5F5" stroke-width="1.08501" stroke-linecap="round" stroke-linejoin="round"/>
<path d="M499.798 138.681L527.985 130.296L557.262 139.017L586.937 147.868L609.983 154.564" stroke="#F5F5F5" stroke-width="1.08501" stroke-linecap="round" stroke-linejoin="round"/>
<path d="M361.159 63.799L388.669 55.4463L415.421 63.1274L442.559 54.883L469.644 62.6398L496.41 54.3196L523.8 62.0765L551.536 69.2159L579.616 77.872L608.069 85.9214L636.907 86.7014L666.303 72.8777L672.002 70.8409L686.68 65.5975L692.671 63.4523L698.675 62.5857" stroke="#F5F5F5" stroke-width="1.08501" stroke-linecap="round" stroke-linejoin="round"/>
<path d="M368.731 82.1289L385.787 83.938L414.386 87.1556L442.055 86.8198L448.072 85.8448L470.029 82.3238L497.646 81.6088L524.81 78.4563L552.917 86.5165L581.384 94.6742L610.208 102.94L636.908 86.7007L663.275 72.6494L685.976 65.5425L692.671 63.4515" stroke="#F5F5F5" stroke-width="1.08501" stroke-linecap="round" stroke-linejoin="round"/>
<path d="M388.668 55.4474L415.819 47.2137L442.559 54.884L469.338 46.6612L496.409 54.3206L522.817 46.0979L548.892 37.9835L576.242 45.5454L603.938 53.183L631.979 60.3658L660.405 63.8109L685.975 65.5443" stroke="#F5F5F5" stroke-width="1.08501" stroke-linecap="round" stroke-linejoin="round"/>
<path d="M415.82 47.2138L442.612 39.0886L469.338 46.6613L495.772 38.536L521.86 30.5301L548.892 37.9836L574.622 29.9776L601.959 37.4311L627.33 29.4359L652.382 21.5381L679.998 28.8942L707.946 36.3369" stroke="#F5F5F5" stroke-width="1.08501" stroke-linecap="round" stroke-linejoin="round"/>
<path d="M442.612 39.0892L469.059 31.0724L495.771 38.5367L522.816 46.0987L550.193 53.758L577.915 61.5041L605.983 67.7552L634.409 72.121L663.274 72.652" stroke="#F5F5F5" stroke-width="1.08501" stroke-linecap="round" stroke-linejoin="round"/>
<path d="M818.956 36.3684L846.944 36.1952" stroke="#F5F5F5" stroke-width="1.08501" stroke-linecap="round" stroke-linejoin="round"/>
<path d="M469.061 31.0712L495.163 23.1517L521.862 30.5295L547.619 22.6101L574.624 29.977L600.021 22.0792L627.332 29.4353L654.975 36.8238L680 28.8936" stroke="#F5F5F5" stroke-width="1.08501" stroke-linecap="round" stroke-linejoin="round"/>
<path d="M495.161 23.1524L520.931 15.3413L547.617 22.6107L573.042 14.8105L598.134 7.09692L625.099 14.2796L652.383 21.5381" stroke="#F5F5F5" stroke-width="1.08501" stroke-linecap="round" stroke-linejoin="round"/>
<path d="M333.291 72.2487L359.977 77.5355L386.982 81.9232L401.846 84.7616" stroke="#F5F5F5" stroke-width="1.08501" stroke-linecap="round" stroke-linejoin="round"/>
<path d="M127.162 134.77L153.716 140.382L180.282 139.461L207.487 142.689L235.528 155.267L263.98 169.156L292.673 180.131L323.556 173.565L353.723 159.547L383.265 137.316L413.046 139.266L442.083 129.667L470.656 115.93L499.069 120.155L526.897 112.55L554.327 103.558L581.385 94.6746L608.071 85.921L634.412 72.1188L660.408 63.8095L686.018 58.0568L711.296 51.264L718.682 52.9867" stroke="#F5F5F5" stroke-width="1.08501" stroke-linecap="round" stroke-linejoin="round"/>
<path d="M520.931 15.3411L546.368 7.6167L573.041 14.8103L600.02 22.0796L625.098 14.2794" stroke="#F5F5F5" stroke-width="1.08501" stroke-linecap="round" stroke-linejoin="round"/>
<path d="M1172 159.894L1147.82 169.688L1123.32 179.633L1098.45 189.719L1073.2 199.957L1047.58 210.336L1021.58 220.877L987.721 203.066L954.858 172.645L925.023 136.158L922.659 133.265L921.583 131.759L890.859 88.7712L890.088 88.1862L858.527 64.3847L826.129 52.4784L798.952 63.3771L771.455 71.6757L743.56 78.5659L714.948 103.873L685.924 137.436L669.705 149.256L660.074 153.459L643.364 159.114L630.067 163.621L614.659 170.23L597.297 177.672L579.192 182.244L566.865 185.342L563.359 187.119L563.173 187.206L562.894 187.347L557.673 189.979L535.995 200.9L532.01 206.132L504.965 241.678L473.577 274.807L441.71 300.147L409.193 316.224L377.166 305.033L345.592 294.015L314.482 283.149L283.838 272.445L253.618 261.893L223.824 251.493L194.468 241.244L165.51 231.126L136.964 221.159L108.817 211.332L81.0548 201.636L53.6646 192.07L26.6597 182.645L0 173.339" stroke="#F5F5F5" stroke-width="1.08501" stroke-linecap="round" stroke-linejoin="round"/>
<path d="M188.104 116.289L214.605 119.864L224.009 116.647L244.426 109.67L273.861 99.9738L292.059 94.5136L302.925 91.2635L326.052 84.6875L331.604 83.1057L352.366 79.0323L359.977 77.5372L387.899 70.647L415.422 63.1285L442.52 71.0912L469.936 79.0539L497.048 70.5062L524.81 78.4582L551.536 69.217L577.916 61.5035L603.938 53.1831L629.628 44.9821L654.973 36.8243L682.961 43.9962L711.294 51.2656L736.24 43.8662" stroke="#F5F5F5" stroke-width="1.08501" stroke-linecap="round" stroke-linejoin="round"/>
<path d="M546.37 7.6161L571.489 0L598.135 7.0961" stroke="#F5F5F5" stroke-width="1.08501" stroke-linecap="round" stroke-linejoin="round"/>
<path d="M305.036 80.819L331.603 83.1049L344.395 82.704" stroke="#F5F5F5" stroke-width="1.08501" stroke-linecap="round" stroke-linejoin="round"/>
<path d="M217.938 107.232L244.425 109.67L270.939 103.635" stroke="#F5F5F5" stroke-width="1.08501" stroke-linecap="round" stroke-linejoin="round"/>
<path d="M276.4 89.5082L302.926 91.2632L318.826 88.0348" stroke="#F5F5F5" stroke-width="1.08501" stroke-linecap="round" stroke-linejoin="round"/>
<path d="M247.375 98.3039L273.862 99.9723L290.877 97.1448" stroke="#F5F5F5" stroke-width="1.08501" stroke-linecap="round" stroke-linejoin="round"/>
<path d="M465.91 225.265L442.054 217.541L411.861 207.758L382.093 198.105L351.382 208.473L321.999 198.81L292.669 180.132" stroke="#F5F5F5" stroke-width="1.08501" stroke-linecap="round" stroke-linejoin="round"/>
<path d="M524.357 203.716L502.081 196.707L471.928 187.206L442.121 197.411L411.861 207.757L381.163 218.255L351.382 208.472L320.206 218.981L288.565 229.652L259.183 219.707L227.077 230.389L194.466 241.244" stroke="#F5F5F5" stroke-width="1.08501" stroke-linecap="round" stroke-linejoin="round"/>
<path d="M961.392 110.915L983.136 118.412L1015.2 129.029L1039.39 124.587" stroke="#F5F5F5" stroke-width="1.08501" stroke-linecap="round" stroke-linejoin="round"/>
<path d="M963.211 111.899L983.136 118.41L1007.31 116.049" stroke="#F5F5F5" stroke-width="1.08501" stroke-linecap="round" stroke-linejoin="round"/>
<path d="M627.795 126.982L642.101 114.566L669.385 77.7645L689.43 67.3857" stroke="#F5F5F5" stroke-width="1.08501" stroke-linecap="round" stroke-linejoin="round"/>
<path d="M958.111 107.523L975.645 107.61" stroke="#F5F5F5" stroke-width="1.08501" stroke-linecap="round" stroke-linejoin="round"/>
<path d="M643.365 159.114L653.632 149.126L685.924 137.436L718.907 122.182L748.024 91.2739L776.503 75.7168" stroke="#F5F5F5" stroke-width="1.08501" stroke-linecap="round" stroke-linejoin="round"/>
<path d="M426.528 86.0194L442.401 84.5352L469.938 79.0533L497.647 81.6101L525.847 95.2822L554.327 103.559L583.178 111.933L612.415 120.427" stroke="#F5F5F5" stroke-width="1.08501" stroke-linecap="round" stroke-linejoin="round"/>
<path d="M616.559 168.258L621.952 162.711L643.963 135.92L650.697 127.719L651.335 127.199L675.245 87.7425L677.915 84.4058L696.113 65.7935L699.022 62.5434L699.846 61.98L702.967 60.5934L718.442 53.1073L718.681 52.9882L726.691 49.1638L737.743 44.267L757.761 35.3943L789.189 30.3132L818.957 36.3692L820.817 36.7485L846.945 36.196L863.828 42.967L878.705 48.9364L891.444 60.7342L898.192 67.9061L910.121 79.5306L916.563 85.8683L941.775 110.742L946.464 115.184L973.721 140.979L998.773 140.871L1031.44 160.025L1056.3 153.47L1080.65 149.115L1114.05 159.039L1147.83 169.688" stroke="#F5F5F5" stroke-width="1.08501" stroke-linecap="round" stroke-linejoin="round"/>
<path d="M942.703 98.8362L944.39 99.2912L975.646 107.611L1007.31 116.051L1039.39 124.588L1071.9 133.244" stroke="#F5F5F5" stroke-width="1.08501" stroke-linecap="round" stroke-linejoin="round"/>
<path d="M560.61 188.061L561.951 187.184L562.443 187.27" stroke="#F5F5F5" stroke-width="1.08501" stroke-linecap="round" stroke-linejoin="round"/>
<path d="M562.72 187.142L561.949 187.185L531.438 186.513L501.311 177.164L471.57 167.923L442.174 177.846L412.353 187.9L382.093 198.105L352.724 188.593L323.554 173.567L294.197 145.399L265.758 132.54L237.916 125.498L210.832 125.812L184.371 129.918L157.844 125.466" stroke="#F5F5F5" stroke-width="1.08501" stroke-linecap="round" stroke-linejoin="round"/>
<path d="M651.082 127.599L682.497 117.643L714.948 103.873L748.024 91.2734L781.339 95.8235L809.539 89.7567L837.407 80.4614L864.386 84.4266L890.859 88.7708L916.483 101.815L941.774 110.741L966.521 120.503L990.962 126.981L1001.7 131.499L1023.4 140.653L1056.3 153.47L1089.48 168.203L1123.32 179.633" stroke="#F5F5F5" stroke-width="1.08501" stroke-linecap="round" stroke-linejoin="round"/>
<path d="M892.492 60.6147L905.045 71.2535L910.012 75.4678L942.703 98.8359" stroke="#F5F5F5" stroke-width="1.08501" stroke-linecap="round" stroke-linejoin="round"/>
<path d="M499.797 138.684L482.024 124.806L470.654 115.933L441.882 98.3934L413.629 90.2032L385.787 83.9413" stroke="#F5F5F5" stroke-width="1.08501" stroke-linecap="round" stroke-linejoin="round"/>
<path d="M327.38 85.2512L337.993 83.6587L344.395 82.7053L356.696 80.8528L368.731 82.1312L386.982 81.9253L414.983 78.2202L442.519 71.0917L469.644 62.6413L497.047 70.5066L523.8 62.0781L550.194 53.7578L576.242 45.5459L601.959 37.4315L629.628 44.9825L657.643 51.5802L686.016 58.0587L702.793 60.5722" stroke="#F5F5F5" stroke-width="1.08501" stroke-linecap="round" stroke-linejoin="round"/>
</g>
<defs>
<clipPath id="clip0_1_709">
<rect width="1172" height="387" fill="white"/>
</clipPath>
</defs>
</svg>
