<svg width="44" height="69" viewBox="0 0 44 69" fill="none" xmlns="http://www.w3.org/2000/svg">
<path d="M9.6 16.6666C4.26667 25.8666 0 34.1333 0 34.9333C0 36.1333 16 65.3333 18 67.7333C18.5333 68.4 40.5333 68.9333 42.4 68.2666C43.4667 67.8666 41.3333 62.5333 35.4667 51.4666L26.8 35.3333L35.3333 18.6666C40 9.46663 43.8667 1.59997 44 0.933304C44 0.399971 38.4 -3.05176e-05 31.6 -3.05176e-05H19.2L9.6 16.6666ZM30.9333 19.6L23.0667 35.2L30.9333 50.2666L38.9333 65.3333H29.7333H20.6667L11.8667 50.1333L3.06667 34.9333L11.8667 19.4666L20.6667 3.99997H29.7333H38.6667L30.9333 19.6Z" fill="#F27C06"/>
</svg>
