<svg width="211" height="223" viewBox="0 0 211 223" fill="none" xmlns="http://www.w3.org/2000/svg">
<path d="M61.6779 172.014L43.9233 180.895L32.8489 173.527" stroke="#F5F5F5" stroke-width="1.08501" stroke-linecap="round" stroke-linejoin="round"/>
<path d="M18.386 141.198L36.2778 133.441L54.1626 125.367L71.9839 116.965L89.6956 108.241L107.258 99.1956L124.616 89.8401L134.506 96.1314L151.316 86.1033L167.801 75.777L176.665 80.8014L185.108 85.2348L193.07 89.0579" stroke="#F5F5F5" stroke-width="1.08501" stroke-linecap="round" stroke-linejoin="round"/>
<path d="M124.616 89.8396L141.736 80.1681L158.582 70.1926L175.115 59.9225L183.935 65.1541L192.352 69.821L200.304 73.8973" stroke="#F5F5F5" stroke-width="1.08501" stroke-linecap="round" stroke-linejoin="round"/>
<path d="M183.935 65.1542L167.8 75.7766" stroke="#F5F5F5" stroke-width="1.08501" stroke-linecap="round" stroke-linejoin="round"/>
<path d="M192.352 69.8208L176.665 80.8006L160.592 91.4895" stroke="#F5F5F5" stroke-width="1.08501" stroke-linecap="round" stroke-linejoin="round"/>
<path d="M200.304 73.8973L185.108 85.2343L169.496 96.2908L153.49 107.062L137.114 117.535L120.392 127.695L103.358 137.536L92.9947 131.199L82.506 124.325L71.9832 116.965L72.1308 113.392L72.273 109.925L72.4124 106.547L72.5459 103.262L72.6766 100.066L72.8076 96.9551L72.929 93.9275L73.0535 90.9739L73.1715 88.0997L73.2859 85.2944L83.2092 73.7804L93.0097 62.0958L102.684 50.2514L112.23 38.2512L121.654 26.094L130.946 13.7851" stroke="#F5F5F5" stroke-width="1.08501" stroke-linecap="round" stroke-linejoin="round"/>
<path d="M207.736 77.3658L193.07 89.0573L177.963 100.481L162.431 111.631L146.501 122.485L130.181 133.04L113.512 143.279L96.5112 153.196L79.2191 162.777L61.6778 172.013L50.746 165.046L39.821 157.545L29.0012 149.57L18.3857 141.197L1.63572 148.172L0.54264 148.627" stroke="#F5F5F5" stroke-width="1.08501" stroke-linecap="round" stroke-linejoin="round"/>
<path d="M79.2188 162.777L68.496 156.221L57.6997 149.102L46.9253 141.493L36.2771 133.441" stroke="#F5F5F5" stroke-width="1.08501" stroke-linecap="round" stroke-linejoin="round"/>
<path d="M96.511 153.196L86.0499 147.045L75.4388 140.32L64.7757 133.074L54.1621 125.366" stroke="#F5F5F5" stroke-width="1.08501" stroke-linecap="round" stroke-linejoin="round"/>
<path d="M113.512 143.279L103.359 137.536L86.0504 147.046L68.4966 156.221L50.7463 165.046L32.8491 173.527L21.8584 165.644" stroke="#F5F5F5" stroke-width="1.08501" stroke-linecap="round" stroke-linejoin="round"/>
<path d="M130.181 133.041L120.392 127.695L110.326 121.752L92.995 131.199L75.439 140.32L57.7 149.102L39.821 157.545L21.8581 165.645L11.0564 157.32" stroke="#F5F5F5" stroke-width="1.08501" stroke-linecap="round" stroke-linejoin="round"/>
<path d="M44.3728 117.175L53.1006 107.813" stroke="#F5F5F5" stroke-width="1.08501" stroke-linecap="round" stroke-linejoin="round"/>
<path d="M162.431 111.631L153.49 107.062L144.157 101.886L134.505 96.1308L117.41 105.847L100.065 115.251L82.5065 124.325L64.776 133.075L46.9258 141.493L29.0013 149.57L11.0565 157.319L0.542748 148.627" stroke="#F5F5F5" stroke-width="1.08501" stroke-linecap="round" stroke-linejoin="round"/>
<path d="M177.962 100.481L169.497 96.2905L160.592 91.4894L144.157 101.885L127.391 111.974L110.326 121.751L100.064 115.25L89.695 108.24L88.9677 104.357L88.2549 100.584L87.5632 96.9167L86.8921 93.3431L86.2382 89.8673L85.5981 86.4797L84.9782 83.1788L84.372 79.9662L83.7856 76.8337L94.2765 65.3905L104.635 53.7756L114.863 41.9917L124.953 30.0377L134.91 17.9255" stroke="#F5F5F5" stroke-width="1.08501" stroke-linecap="round" stroke-linejoin="round"/>
<path d="M160.731 44.8929L166.924 48.6551L172.869 52.0424L179.221 57.8355L185.715 63.7609L192.352 69.8212" stroke="#F5F5F5" stroke-width="1.08501" stroke-linecap="round" stroke-linejoin="round"/>
<path d="M170.2 54.7852L175.115 59.9223" stroke="#F5F5F5" stroke-width="1.08501" stroke-linecap="round" stroke-linejoin="round"/>
<path d="M165.407 49.7783L170.2 54.7852L178.131 59.5211L183.935 65.154" stroke="#F5F5F5" stroke-width="1.08501" stroke-linecap="round" stroke-linejoin="round"/>
<path d="M156.163 40.1268L161.513 43.4093L166.658 46.3747L171.561 49.0081L178.524 55.0412L183.851 57.6305" stroke="#F5F5F5" stroke-width="1.08501" stroke-linecap="round" stroke-linejoin="round"/>
<path d="M130.946 13.7852L131.267 14.1185L131.475 14.3401L131.496 14.3623L134.91 17.9258L138.963 22.1602L143.114 26.4936L147.361 30.9326L151.708 35.4732L156.163 40.127L160.731 44.8927L165.407 49.7784L172.462 54.0224L179.221 57.8353L185.635 61.1986L191.661 64.0815L199.621 70.6591L207.736 77.3659" stroke="#F5F5F5" stroke-width="1.08501" stroke-linecap="round" stroke-linejoin="round"/>
<path d="M151.709 35.4734L156.229 38.2797L160.577 40.8257L164.735 43.0984L168.666 45.0829" stroke="#F5F5F5" stroke-width="1.08501" stroke-linecap="round" stroke-linejoin="round"/>
<path d="M121.654 26.0939L124.952 30.0379L128.337 34.0732L131.799 38.2121L135.344 42.4464L138.98 46.7879L142.706 51.2366L146.526 55.795L150.44 60.47L154.459 65.2691L158.581 70.1925L167.8 75.7763" stroke="#F5F5F5" stroke-width="1.08501" stroke-linecap="round" stroke-linejoin="round"/>
<path d="M112.23 38.2512L114.863 41.992L117.559 45.8194L120.322 49.7427L123.155 53.7646L126.055 57.889L129.032 62.1169L132.083 66.4528L135.218 70.904L138.434 75.475L141.735 80.1681L151.316 86.1028L160.592 91.4897" stroke="#F5F5F5" stroke-width="1.08501" stroke-linecap="round" stroke-linejoin="round"/>
<path d="M147.361 30.9322L151.059 33.2676L154.63 35.3962L158.046 37.3041L161.284 38.98" stroke="#F5F5F5" stroke-width="1.08501" stroke-linecap="round" stroke-linejoin="round"/>
<path d="M102.684 50.251L104.635 53.7755L106.634 57.3833L108.688 61.0832L110.788 64.8771L112.945 68.7726L115.159 72.7629L117.428 76.8659L119.757 81.0729L122.154 85.3959L124.616 89.8392" stroke="#F5F5F5" stroke-width="1.08501" stroke-linecap="round" stroke-linejoin="round"/>
<path d="M34.9344 125.91L38.4701 122.82L40.6876 120.789L44.3725 117.175L51.6158 110.079L53.1003 107.813L63.2494 96.6386L73.2855 85.2944" stroke="#F5F5F5" stroke-width="1.08501" stroke-linecap="round" stroke-linejoin="round"/>
<path d="M0.542613 148.627L4.15176 146.483L5.19419 146.002L17.3809 140.4L21.1497 138.669L38.1743 130.55L55.1856 122.122L72.1311 113.392L88.968 104.358L105.657 95.0237L122.154 85.3963L138.435 75.4749L154.459 65.2691L170.2 54.7852" stroke="#F5F5F5" stroke-width="1.08501" stroke-linecap="round" stroke-linejoin="round"/>
<path d="M4.15122 146.483L7.65721 144.397L8.65245 143.894L12.1748 142.113L16.6697 139.838L23.8336 136.211L40.0242 127.735L56.1794 118.974L72.2728 109.925L88.2546 100.584L104.096 90.968L119.757 81.0731L135.218 70.904L150.44 60.4699L165.407 49.7782" stroke="#F5F5F5" stroke-width="1.08501" stroke-linecap="round" stroke-linejoin="round"/>
<path d="M143.114 26.4937L146.007 28.371L148.804 30.0847L151.485 31.6262L154.032 32.9894" stroke="#F5F5F5" stroke-width="1.08501" stroke-linecap="round" stroke-linejoin="round"/>
<path d="M7.65757 144.398L11.0703 142.372L12.0119 141.847L15.3591 139.986L18.616 138.174L26.4423 133.825L41.8192 125.002L57.1515 115.912L72.4126 106.547L87.5633 96.9171L102.58 87.0172L117.428 76.8662L132.083 66.4528L146.526 55.7951L160.731 44.8927" stroke="#F5F5F5" stroke-width="1.08501" stroke-linecap="round" stroke-linejoin="round"/>
<path d="M93.01 62.0959L94.2767 65.391L95.5734 68.767L96.9035 72.2334L98.2639 75.7874L99.6678 79.4328L101.105 83.1753L102.581 87.0173L104.097 90.9683L105.657 95.0239L107.258 99.1952L117.41 105.847L127.392 111.974L137.115 117.536L146.501 122.486" stroke="#F5F5F5" stroke-width="1.08501" stroke-linecap="round" stroke-linejoin="round"/>
<path d="M11.0707 142.372L14.3835 140.4L18.4568 137.918L21.552 136.029L28.9812 131.503L31.1513 130.138L43.5612 122.346L58.094 112.932L72.5464 103.263L86.8925 93.3437L101.106 83.1754L115.16 72.7635L129.033 62.1172L142.707 51.2369L156.163 40.1272" stroke="#F5F5F5" stroke-width="1.08501" stroke-linecap="round" stroke-linejoin="round"/>
<path d="M18.3862 141.198L21.1503 138.669L23.8347 136.211L26.4431 133.825L28.9815 131.503L31.4533 129.242L33.506 127.834L45.2602 119.761L59.0135 110.032L72.6775 100.066L86.239 89.8678L99.6683 79.4328L112.946 68.7732L126.056 57.8892L138.981 46.7882L151.709 35.4733" stroke="#F5F5F5" stroke-width="1.08501" stroke-linecap="round" stroke-linejoin="round"/>
<path d="M54.1624 125.366L55.1857 122.122L56.1801 118.974L57.1518 115.912L58.0939 112.932L59.0131 110.032L59.9058 107.209L60.7722 104.464L61.6185 101.789L62.4446 99.1825L63.2502 96.6387" stroke="#F5F5F5" stroke-width="1.08501" stroke-linecap="round" stroke-linejoin="round"/>
<path d="M83.7858 76.8346L83.2095 73.781" stroke="#F5F5F5" stroke-width="1.08501" stroke-linecap="round" stroke-linejoin="round"/>
<path d="M36.2772 133.44L38.174 130.55L40.0245 127.735L41.8191 125.002L43.5608 122.346L45.2594 119.761L46.9145 117.241L48.5199 114.793L50.0881 112.402L51.6163 110.079L62.4442 99.1824L73.1716 88.0997L83.7856 76.834" stroke="#F5F5F5" stroke-width="1.08501" stroke-linecap="round" stroke-linejoin="round"/>
<path d="M138.963 22.1601L141.064 23.5762L143.101 24.8786L145.053 26.059L146.917 27.1078" stroke="#F5F5F5" stroke-width="1.08501" stroke-linecap="round" stroke-linejoin="round"/>
<path d="M134.91 17.9256L136.232 18.8907L137.515 19.7804L138.745 20.5979L139.925 21.3325" stroke="#F5F5F5" stroke-width="1.08501" stroke-linecap="round" stroke-linejoin="round"/>
<path d="M130.946 13.7852L131.503 14.3028L131.988 14.753L136.232 18.8909L141.064 23.5763L146.007 28.3709L151.06 33.268L156.229 38.2795L161.513 43.4095L166.924 48.6549L172.462 54.0224L178.132 59.5212L185.715 63.7607L192.892 67.48L200.305 73.8973L207.736 77.3659" stroke="#F5F5F5" stroke-width="1.08501" stroke-linecap="round" stroke-linejoin="round"/>
<path d="M132.042 14.7874L132.563 15.2389L138.745 20.598L145.053 26.059L151.484 31.626L158.046 37.3044L164.735 43.098L171.561 49.0081L176.188 51.2971L183.851 57.6306L191.661 64.0814" stroke="#F5F5F5" stroke-width="1.08501" stroke-linecap="round" stroke-linejoin="round"/>
<path d="M18.4566 137.918L24.4075 133.947L27.2642 132.04L31.4527 129.242L33.8545 127.044L38.2623 123.735L46.9147 117.241L59.9056 107.209L72.8079 96.9552L85.5983 86.4802L98.2638 75.7874L110.788 64.8777L123.155 53.7648L135.345 42.4467L147.361 30.9327" stroke="#F5F5F5" stroke-width="1.08501" stroke-linecap="round" stroke-linejoin="round"/>
<path d="M24.4071 133.946L29.8877 129.939L33.8542 127.044L36.1924 124.903L38.4704 122.82L40.2741 121.38L48.5198 114.793L60.7717 104.464L72.9289 93.9273L84.978 83.1789L96.9031 72.2331L108.687 61.0834L120.322 49.7426L131.799 38.212L143.114 26.4934" stroke="#F5F5F5" stroke-width="1.08501" stroke-linecap="round" stroke-linejoin="round"/>
<path d="M132.608 15.2798L133.06 15.6531L139.925 21.3332L146.917 27.1085L154.032 32.9899L161.284 38.981L168.667 45.0832L176.189 51.2977" stroke="#F5F5F5" stroke-width="1.08501" stroke-linecap="round" stroke-linejoin="round"/>
<path d="M29.8875 129.939L34.9346 125.91L36.1923 124.903L40.274 121.38L42.3905 119.306L50.0879 112.402L61.6178 101.789L73.0533 90.9738L84.3717 79.9664L95.5728 68.7668L106.634 57.3836L117.559 45.8193L128.337 34.0732L138.963 22.1601" stroke="#F5F5F5" stroke-width="1.08501" stroke-linecap="round" stroke-linejoin="round"/>
<path d="M131.502 14.3029L131.699 14.4966L132.008 14.7753L132.299 15.0275L137.514 19.7806L143.1 24.8789L148.803 30.0847L154.63 35.3967L160.577 40.8255L166.657 46.375L172.869 52.0423L178.524 55.0415L185.634 61.1987L192.892 67.4801L199.621 70.6592" stroke="#F5F5F5" stroke-width="1.08501" stroke-linecap="round" stroke-linejoin="round"/>
</svg>
